<svg xmlns="http://www.w3.org/2000/svg" width="92" height="95" viewBox="0 0 92 95" fill="none"><path fill-rule="evenodd" clip-rule="evenodd" d="M44.6042 16.6611C40.5605 17.641 35.6457 20.2732 32.5116 23.137C28.9005 26.4376 27.3647 28.5562 28.0718 29.2633C28.4383 29.6298 29.7501 28.6356 32.3339 26.034C38.0998 20.2279 43.3703 18.0024 51.4116 17.9779C65.6361 17.9357 77.0625 29.6099 77.038 44.1607C77.0273 50.6219 74.3763 57.1651 69.9135 61.7469C67.4839 64.2412 63.4559 67.1585 63.0298 66.7324C62.8924 66.5955 63.1261 65.5021 63.5491 64.3033C64.5493 61.4685 64.5249 60.6103 63.4483 60.8179C62.8568 60.9315 62.2057 62.2066 61.4147 64.8001C59.6254 70.6683 59.4472 70.3965 65.0818 70.3965C69.0411 70.3965 69.9176 70.258 69.9176 69.6329C69.9176 69.1412 69.4198 68.8668 68.5178 68.8623C67.7476 68.8587 66.5921 68.7146 65.9492 68.5426C64.871 68.2534 64.9744 68.0992 67.2818 66.5451C76.2317 60.5176 80.8629 48.2453 78.2964 37.3565C76.0367 27.7687 67.5827 19.222 57.8519 16.6875C54.3737 15.7814 48.2836 15.7692 44.6042 16.6611ZM18.9264 32.3699C15.6976 34.8291 14.2982 37.6934 14.0427 42.3654C13.751 47.6955 14.9463 52.8256 17.8432 58.679C19.8462 62.7253 21.0012 64.287 24.8455 68.1481C30.8852 74.2138 37.2792 78.0992 37.72 75.9715C37.8229 75.4762 37.1667 74.8424 35.9567 74.2672C30.2896 71.5729 24.06 65.7108 20.5706 59.7877C17.6467 54.824 16.3777 50.6046 16.0814 44.8602C15.8559 40.4824 15.9547 39.6771 16.9793 37.5606C18.1064 35.2322 21.4675 32.2187 22.9366 32.2187C23.3306 32.2187 24.3049 32.9329 25.1025 33.8059C25.8997 34.6789 26.8032 35.2383 27.1097 35.0485C27.9486 34.5303 27.7984 33.9795 26.3497 32.2579C24.4902 30.0482 21.9231 30.0869 18.9264 32.3699ZM41.2314 34.994C39.9455 36.1857 39.493 37.7657 40.227 38.5003C40.4154 38.6886 41.3052 38.0396 42.2046 37.0576C44.1502 34.9334 45.0919 34.8347 46.8282 36.571C48.6048 38.3481 48.2245 39.5112 43.8723 45.6069C41.7592 48.5665 40.4245 50.9085 40.5961 51.3555C41.0222 52.4662 50.3197 52.1771 50.3197 51.0531C50.3197 50.4585 49.5053 50.2565 46.6419 50.1404L42.9641 49.9907L45.8453 46.0951C49.3215 41.3941 50.2581 39.0322 49.5037 36.8683C48.3869 33.6649 43.7898 32.6234 41.2314 34.994ZM57.3118 35.1457C55.0151 38.4687 51.0415 45.9923 51.3337 46.4646C51.5088 46.7487 53.3566 46.9808 55.4401 46.9808H59.2278V49.2715C59.2278 51.2226 59.3785 51.5621 60.2459 51.5621C61.1092 51.5621 61.264 51.2226 61.264 49.331C61.264 47.5275 61.4595 47.0485 62.2821 46.8332C62.842 46.6871 63.3001 46.2951 63.3001 45.9627C63.3001 45.6303 62.842 45.2384 62.2821 45.0923C61.3526 44.849 61.264 44.398 61.264 39.8965C61.264 34.8372 60.8909 33.7459 59.1607 33.7459C58.6761 33.7459 57.8438 34.3755 57.3118 35.1457ZM59.2278 40.6178V44.9447H56.6282C54.4796 44.9447 54.0815 44.8067 54.334 44.1485C54.8099 42.9085 58.7361 36.291 58.9957 36.291C59.1235 36.291 59.2278 38.2381 59.2278 40.6178ZM27.9292 37.8064C27.7419 38.1098 28.1792 39.3651 28.901 40.5965C29.6223 41.8278 30.2128 43.1992 30.2128 43.6441C30.2128 44.089 29.182 45.4405 27.9221 46.6474C24.8577 49.584 24.733 51.4731 27.2873 56.2921C28.9534 59.4349 33.8407 64.3588 36.6002 65.6747C38.706 66.679 40.2433 66.2855 42.9061 64.0605C44.3838 62.8261 45.2904 62.4066 45.9364 62.6576C46.4429 62.8541 48.8394 64.6189 51.2609 66.5787C56.3925 70.7319 56.6842 71.6161 53.7949 74.2626C51.2146 76.6261 49.1362 77.2003 44.3538 76.8725C40.8399 76.6317 40.3563 76.7004 40.4948 77.4197C40.6954 78.4591 42.3945 78.9351 46.1364 78.9992C50.6414 79.0771 55.2665 76.6811 56.9698 73.3871C58.3895 70.6418 57.63 69.3229 52.0357 64.8185C46.1115 60.0488 45.209 59.8431 41.8651 62.5013C40.6358 63.4787 39.1718 64.2804 38.6119 64.283C36.0733 64.2942 29.7663 57.836 27.8595 53.272C26.8653 50.8928 27.5536 49.0867 30.2784 46.9289C32.6806 45.0266 32.7915 43.6782 30.8374 40.1434C29.4075 37.557 28.5228 36.8464 27.9292 37.8064Z" fill="#00b0d1"></path></svg>