<svg xmlns="http://www.w3.org/2000/svg" width="92" height="95" viewBox="0 0 92 95" fill="none"><path fill-rule="evenodd" clip-rule="evenodd" d="M40.0296 15.7276C35.6529 16.9596 31.7278 19.113 32.0982 20.0783C32.5114 21.1558 32.9984 21.1075 35.7049 19.7236C43.6971 15.6381 53.238 16.4548 60.4157 21.8391C61.8928 22.947 62.3267 23.0636 62.7122 22.4551C63.4953 21.2193 63.3142 20.9367 60.6548 19.2508C54.6398 15.4358 46.191 13.9928 40.0296 15.7276ZM41.375 19.8185C36.2613 21.1108 30.2826 25.4084 28.1883 29.2982C27.2762 30.9912 27.2469 31.3008 27.9568 31.7547C28.5392 32.1273 28.9226 32.0134 29.3114 31.3518C30.9437 28.5759 35.3096 24.6953 38.4098 23.2658C41.2861 21.9394 42.4639 21.7095 46.3933 21.7095C50.3227 21.7095 51.5005 21.9394 54.3768 23.2658C57.477 24.6953 61.843 28.5759 63.4752 31.3518C63.864 32.0134 64.2474 32.1273 64.8298 31.7547C66.9171 30.4202 61.0854 24.0418 55.3025 21.3359C51.4512 19.5338 45.1981 18.8522 41.375 19.8185ZM64.4709 24.4523C63.9774 25.7386 65.1341 26.6453 66.1704 25.7853C66.8124 25.2522 66.8667 24.909 66.3981 24.3439C65.5858 23.3656 64.8727 23.4057 64.4709 24.4523ZM42.4379 28.2809C42.2275 28.4913 42.0551 30.4429 42.0551 32.618V36.5718L37.8524 36.7302L33.6497 36.8885V40.9556V45.0228L37.8301 45.1806L42.01 45.3389L42.1684 49.5188L42.3262 53.6993H46.3933H50.4604L50.6182 49.5188L50.7766 45.3389L54.9565 45.1806L59.137 45.0228V40.9556V36.8885L54.9565 36.7307L50.7766 36.5724L50.6182 32.3925L50.4604 28.212L46.6406 28.0547C44.5398 27.9685 42.6489 28.0705 42.4379 28.2809ZM20.6685 29.5135C20.5026 29.7819 19.3838 35.1424 18.1832 41.4247L16 52.8479L17.6393 59.3428C19.0487 64.9251 19.2792 66.8318 19.2792 72.9189C19.2792 79.6383 19.3345 80 20.3637 80C21.3941 80 21.4478 79.6426 21.4364 72.8148C21.4261 66.6441 21.1978 64.7488 19.8198 59.3933L18.2152 53.157L20.2141 42.4388C21.4114 36.0176 22.4401 31.7954 22.7796 31.9077C23.0914 32.0107 23.7048 32.7303 24.1429 33.5074C24.8576 34.7752 24.8126 35.5686 23.7075 41.2403L22.4754 47.5612L23.9287 51.3642C25.0767 54.3685 25.3159 55.7253 25.0675 57.8228C24.7915 60.1552 24.8745 60.4778 25.7535 60.4778C26.9048 60.4778 27.0593 59.9681 28.0154 53.0214C28.4801 49.6446 28.934 48.0053 29.4047 48.0053C30.4665 48.0053 30.8412 50.374 30.4334 54.5089C30.1221 57.6688 30.236 58.5701 31.1801 60.4203C31.7929 61.6215 32.294 63.3091 32.294 64.1708C32.294 65.617 29.8955 69.6462 28.5338 70.4878C28.1986 70.695 27.9557 72.767 27.9557 75.4226C27.9557 79.6383 28.0414 80 29.0403 80C30.0326 80 30.1248 79.6383 30.1248 75.7561C30.1248 71.869 30.2447 71.4021 31.5505 70.1977C34.4783 67.4977 35.2125 63.5303 33.4306 60.038C32.5657 58.3423 32.4458 57.2523 32.692 53.3137L32.9848 48.6132L31.2761 46.9039C29.665 45.2928 29.5999 45.0737 30.1379 43.0754C30.8396 40.4703 30.0934 37.2475 28.4427 35.7546C27.8131 35.1852 26.8337 33.8094 26.266 32.6972C24.9569 30.1317 21.5009 28.1664 20.6685 29.5135ZM69.0369 29.8763C68.218 30.3204 67.0847 31.592 66.5185 32.7016C65.9518 33.8116 64.9735 35.1852 64.344 35.7546C62.6932 37.2475 61.9471 40.4703 62.6488 43.0754C63.1867 45.0737 63.1217 45.2928 61.5105 46.9039L59.8018 48.6132L60.0946 53.3137C60.3408 57.2523 60.221 58.3423 59.356 60.038C57.5741 63.5303 58.3084 67.4977 61.2361 70.1977C62.542 71.4021 62.6618 71.869 62.6618 75.7561C62.6618 79.6383 62.754 80 63.7464 80C64.7452 80 64.8309 79.6383 64.8309 75.4226C64.8309 72.767 64.588 70.695 64.2529 70.4878C62.8912 69.6462 60.4927 65.617 60.4927 64.1708C60.4927 63.3091 60.9937 61.6215 61.6065 60.4203C62.5506 58.5701 62.6645 57.6688 62.3532 54.5089C61.9454 50.374 62.3202 48.0053 63.382 48.0053C63.8527 48.0053 64.3065 49.6446 64.7713 53.0214C65.7273 59.9681 65.8819 60.4778 67.0331 60.4778C67.9122 60.4778 67.9951 60.1552 67.7191 57.8228C67.4708 55.7253 67.7099 54.3685 68.8579 51.3642L70.3112 47.5612L69.0792 41.2403C67.974 35.5686 67.929 34.7752 68.6437 33.5074C69.0819 32.7303 69.6952 32.0107 70.007 31.9077C70.3465 31.7954 71.3752 36.0176 72.5726 42.4388L74.5714 53.157L72.9668 59.3933C71.5889 64.7488 71.3606 66.6441 71.3503 72.8148C71.3389 79.6426 71.3925 80 72.4229 80C73.4521 80 73.5075 79.6383 73.5075 72.9189C73.5075 66.8318 73.7379 64.9251 75.1473 59.3428L76.7866 52.8479L74.6034 41.4247C73.4028 35.1424 72.2841 29.7819 72.1181 29.5135C71.6951 28.8286 70.7662 28.9381 69.0369 29.8763ZM48.6752 34.3127L48.8336 38.5154L53.0363 38.6737L57.239 38.8321V40.9556V43.0792L53.0363 43.2376L48.8336 43.3959L48.6752 47.5986L48.5169 51.8013H46.3933H44.2697L44.1114 47.5986L43.953 43.3959L39.7504 43.2376L35.5477 43.0792V40.9556V38.8321L39.7504 38.6737L43.953 38.5154L44.1114 34.3127L44.2697 30.11H46.3933H48.5169L48.6752 34.3127ZM28.2024 39.7599C28.3841 40.5869 28.177 42.2718 27.742 43.5044C27.3071 44.737 26.7714 46.9251 26.5517 48.367L26.1521 50.9879L25.4346 49.2477C24.8294 47.7797 24.8484 46.8454 25.5556 43.2826C26.0165 40.9589 26.4997 38.7372 26.6287 38.3456C26.978 37.286 27.8266 38.0485 28.2024 39.7599ZM67.1801 43.0255C67.9187 46.8177 67.9458 47.8101 67.3515 49.2618L66.6443 50.9879L66.2582 48.5476C66.0456 47.2055 65.4941 44.8872 65.0327 43.3959C64.3743 41.268 64.325 40.3445 64.8038 39.1048C65.646 36.9227 66.1552 37.7632 67.1801 43.0255ZM35.3985 58.0967C34.5618 58.9334 35.1155 59.5044 38.1235 60.9089C40.8192 62.1676 41.9396 62.3644 46.3933 62.3644C50.8655 62.3644 51.9626 62.1697 54.7108 60.8872C56.6235 59.9946 57.7829 59.1378 57.6386 58.7235C57.3284 57.8299 56.014 57.9828 52.3584 59.3374C48.5657 60.7425 44.2426 60.7473 40.4282 59.3499C35.9251 57.7002 35.8204 57.6742 35.3985 58.0967ZM37.5557 64.4533C37.104 65.6306 39.7954 66.4722 45.1732 66.8355C49.3851 67.1202 49.647 67.0747 49.647 66.0547C49.647 65.0954 49.166 64.9305 45.4443 64.6165C43.1326 64.4213 40.4835 64.1198 39.5568 63.9463C38.3383 63.7185 37.784 63.859 37.5557 64.4533Z" fill="#00b0d1"></path></svg>