<svg xmlns="http://www.w3.org/2000/svg" width="92" height="95" viewBox="0 0 92 95" fill="none"><path fill-rule="evenodd" clip-rule="evenodd" d="M40.3952 15.7765C35.0279 17.2023 29.8868 20.4136 31.0727 21.5995C31.4157 21.9425 32.5681 21.5182 34.5717 20.312C38.3917 18.0117 40.2103 17.4731 45.2686 17.1464C51.9148 16.7165 57.2445 18.6535 62.1291 23.2728C71.4795 32.1161 71.8392 46.1402 62.9588 55.609C52.863 66.3741 35.2353 64.6068 27.1587 52.0202C22.4098 44.6194 22.5272 34.4596 27.4468 27.1492C29.2928 24.4064 29.6597 23.0965 28.5814 23.098C27.6683 23.0995 24.798 27.5029 23.3117 31.1827C20.4561 38.2532 21.3727 46.0035 26.0235 54.1091C26.1089 54.258 24.3473 56.9906 22.1085 60.1816C16.136 68.6942 16.4567 70.0127 24.5114 70.0661L29.3817 70.0981L30.868 74.5497C32.4213 79.2031 33.4192 80.3372 35.5005 79.8149C36.6753 79.5202 44.5572 68.7866 44.6578 67.3446C44.7961 65.3695 43.069 66.9559 39.4471 72.1306C37.2957 75.2047 35.1997 77.7199 34.7896 77.7199C34.3151 77.7199 33.531 76.2545 32.6347 73.6931C31.8598 71.4782 30.9747 69.3634 30.6673 68.9929C30.2725 68.5178 28.6414 68.3197 25.1196 68.3197C22.3351 68.3197 19.9911 68.0946 19.8158 67.8105C19.5328 67.3527 26.9056 56.1248 27.489 56.1248C27.6226 56.1248 28.6663 57.0231 29.8085 58.1207C32.7612 60.9575 37.1687 63.145 42.037 64.1892L46.2386 65.0901L51.2055 72.1672C53.9377 76.0594 56.6261 79.4516 57.1805 79.7051C59.2724 80.6614 60.5056 79.3784 62.1077 74.5797L63.6036 70.0981L68.474 70.0661C76.5287 70.0127 76.8493 68.6942 70.8769 60.1816C68.6381 56.9906 66.8764 54.258 66.9618 54.1091C72.1187 45.1214 72.639 37.021 68.5863 28.8204C63.4441 18.4157 51.4138 12.8492 40.3952 15.7765ZM42.1736 21.2723C34.4756 23.1798 29.15 28.951 27.6627 36.9971C26.2471 44.654 30.7592 53.3134 38.0132 56.8626C47.4632 61.486 58.9406 57.6542 63.4807 48.3597C69.0603 36.9377 62.6158 23.7723 50.1516 21.1275C46.8717 20.4319 45.4627 20.4573 42.1736 21.2723ZM53.3193 24.0461C56.5209 25.4628 60.4716 29.3331 61.9888 32.5409C63.9034 36.5871 64.1488 40.4635 62.7774 44.9787C61.8013 48.1925 61.2404 49.0929 58.5189 51.8124C54.8228 55.5064 51.6227 56.8494 46.4927 56.8595C39.8952 56.8733 33.8013 53.0466 30.9106 47.0752C29.0545 43.2414 28.9061 36.868 30.587 33.1699C31.8451 30.4012 35.1662 26.634 37.7642 25.0283C41.9531 22.4395 48.7208 22.0121 53.3193 24.0461ZM44.2747 27.7971C43.8799 28.4261 43.2732 29.855 42.9262 30.9728C41.974 34.0398 41.6284 34.2756 38.0828 34.2756C34.5442 34.2756 33.2815 35.0144 33.2815 37.085C33.2815 37.8751 33.9182 38.7913 35.1108 39.7161C36.1169 40.4965 37.4242 41.5092 38.0162 41.9665C39.0777 42.7861 39.0807 42.8374 38.22 45.5681C37.1102 49.0878 37.1209 50.1737 38.2759 51.2189C39.6473 52.4602 40.7479 52.2605 43.4439 50.2814C44.7762 49.3033 46.1482 48.503 46.4927 48.503C46.8372 48.503 48.2091 49.3033 49.5414 50.2814C52.2629 52.2788 53.5677 52.4897 54.7979 51.1305C55.8589 49.9582 55.8533 49.0192 54.7654 45.5681C53.9046 42.8374 53.9077 42.7861 54.9691 41.9665C55.5611 41.5092 56.8685 40.4965 57.8746 39.7161C60.8339 37.4209 59.9401 34.0368 56.4645 34.3752C54.6414 34.5525 54.5103 35.4138 56.244 35.8228C58.1047 36.2619 57.6266 37.5383 54.7496 39.8126C51.8584 42.0976 51.6816 42.6677 52.8442 45.9624C53.7314 48.4761 53.8233 50.0273 53.086 50.0273C52.8 50.0273 51.4021 49.2271 49.9804 48.2489C48.5582 47.2708 47.0176 46.4705 46.5557 46.4705C46.0943 46.4705 44.5288 47.2708 43.0761 48.2489C41.6239 49.2271 40.1717 50.0273 39.8495 50.0273C39.1971 50.0273 39.3571 48.6097 40.443 44.7719L41.1396 42.311L39.3698 40.7069C38.3963 39.8248 37.0457 38.743 36.3679 38.304C35.5386 37.7659 35.2429 37.2263 35.4629 36.6526C35.7256 35.9682 36.4837 35.8 39.3007 35.8C41.4968 35.8 43.0034 35.5622 43.3245 35.1648C43.6071 34.8157 44.2483 33.2152 44.7498 31.608C45.3723 29.6146 45.9261 28.6863 46.4927 28.6863C47.0592 28.6863 47.6131 29.6146 48.2355 31.608C49.3051 35.0347 49.8331 35.8 51.1277 35.8C52.2334 35.8 52.393 34.6582 51.4021 33.8356C51.0282 33.5256 50.4367 32.297 50.0876 31.106C49.111 27.7701 48.2096 26.6538 46.4927 26.6538C45.4876 26.6538 44.7549 27.0313 44.2747 27.7971ZM69.6116 61.7131C71.7417 64.7867 73.3428 67.5306 73.1695 67.8105C72.9942 68.0946 70.6502 68.3197 67.8657 68.3197C64.344 68.3197 62.7129 68.5178 62.3181 68.9929C62.0107 69.3634 61.1255 71.4782 60.3506 73.6931C59.4604 76.2372 58.6688 77.7199 58.2013 77.7199C57.5097 77.7199 48.3499 65.2771 48.7477 64.8787C48.8478 64.7786 50.361 64.3629 52.1099 63.9549C56.1226 63.019 60.5386 60.6816 63.0752 58.1512C64.1554 57.0735 65.1966 56.1766 65.3887 56.1583C65.5812 56.14 67.4816 58.6395 69.6116 61.7131Z" fill="#00b0d1"></path></svg>