<svg xmlns="http://www.w3.org/2000/svg" width="92" height="95" viewBox="0 0 92 95" fill="none"><path fill-rule="evenodd" clip-rule="evenodd" d="M28.9671 18.4905C23.95 19.7873 20.0907 22.4816 17.3634 26.5907C12.9158 33.2918 12.8771 41.2658 17.2596 48.1165C18.3991 49.8983 18.794 50.9676 18.4891 51.4485C18.2423 51.8384 18.0372 53.0333 18.0326 54.1047C18.0235 56.4381 20.2475 59.0276 22.2613 59.0276C23.2986 59.0276 23.6019 59.3655 23.9729 60.9325C24.262 62.1565 24.7587 62.9021 25.3618 63.0186C26.1842 63.1769 26.2565 62.9682 25.9486 61.3259C25.4574 58.709 26.627 56.9918 28.8999 56.9918C30.8822 56.9918 32.2751 58.2886 32.2751 60.134C32.2751 61.4038 30.9056 63.099 29.8801 63.099C29.5864 63.099 29.0632 63.44 28.7177 63.8563C28.2108 64.467 28.2383 64.6711 28.8597 64.9093C29.2836 65.0722 29.7752 65.977 29.9523 66.9206C30.3539 69.0627 32.8283 71.242 34.859 71.242C36.0183 71.242 36.3466 71.4715 36.3466 72.2827C36.3466 74.7037 40.274 76.7038 42.3927 75.3618C42.8467 75.0747 43.6981 75.2727 44.7979 75.9216C45.9975 76.6295 46.9517 76.8275 48.0261 76.5914C49.758 76.2112 52.1235 73.6879 52.1235 72.2206C52.1235 71.4491 52.4854 71.242 53.8361 71.242C55.9782 71.242 57.9839 69.707 58.8033 67.4402C59.3743 65.862 59.6038 65.7119 61.3367 65.7811C64.9435 65.9246 67.3915 63.5388 67.3915 59.88C67.3915 58.3782 67.589 58.0972 68.8155 57.8519C70.7861 57.458 72.8162 55.2762 73.2214 53.1173C73.4081 52.1234 74.3273 50.2408 75.2647 48.9344C83.6148 37.2936 77.2664 21.2438 63.1592 18.3292C58.2862 17.3225 52.1128 18.6834 48.2765 21.6093L46.5253 22.9452L44.8234 21.6469C43.8869 20.9329 42.8564 20.3486 42.5332 20.3486C41.898 20.3486 41.6934 22.3767 42.3266 22.3956C42.5367 22.4017 43.2798 22.846 43.9785 23.3829L45.2488 24.359L40.2888 29.4076C35.6326 34.1468 35.3287 34.5845 35.3287 36.5551C35.3287 38.1552 35.6819 39.0494 36.8138 40.3161C38.08 41.7335 38.6414 41.9783 40.6211 41.9783C42.8793 41.9783 43.0818 41.8404 47.9289 37.0116L52.9139 32.0449L62.1887 41.3691C72.1541 51.3875 72.5099 51.961 70.408 54.6329C69.6252 55.6284 68.8913 55.974 67.5595 55.974C66.0378 55.974 65.2321 55.4589 62.2432 52.5733C59.5117 49.9365 58.5844 49.3095 58.1126 49.7813C57.6414 50.2525 58.3941 51.2841 61.4655 54.3739C65.1782 58.1079 65.4163 58.48 65.2642 60.2963C65.054 62.7957 63.0961 64.4253 60.9469 63.8894C60.0308 63.6614 56.4866 60.5345 51.2512 55.3368C44.6402 48.7731 42.9312 47.3211 42.6579 48.0336C42.3983 48.71 44.0987 50.7192 49.7646 56.431C57.3075 64.0345 57.8617 64.8869 56.8968 67.4021C56.4316 68.6143 53.7893 69.8256 52.4798 69.4266C51.864 69.2388 47.6398 65.4014 43.0925 60.8984C36.57 54.4395 34.6936 52.843 34.2019 53.3346C33.7103 53.8263 35.3211 55.7027 41.8334 62.2237C50.5219 70.9244 51.2405 72.0766 49.1569 73.9622C47.0581 75.8616 44.7572 74.6895 44.7114 71.6975C44.6865 70.0338 44.3755 69.3101 43.2839 68.3711C42.5159 67.7105 41.583 67.1705 41.21 67.1705C40.8364 67.1705 40.386 66.3944 40.2079 65.4462C39.7819 63.1759 37.6418 61.0633 35.7684 61.0633C34.6279 61.0633 34.3109 60.8312 34.3109 59.9966C34.3109 57.5237 31.7066 54.9561 29.1976 54.9561C28.535 54.9561 28.2037 54.6085 28.2037 53.9128C28.2037 50.9141 25.1083 48.4244 22.1229 49.0219C20.8969 49.2667 20.4022 49.0514 19.3665 47.8203C16.0473 43.8761 15.0533 36.6289 17.0865 31.1955C18.481 27.4686 22.2934 23.3717 26.1124 21.4963C28.6836 20.2336 29.4857 20.0972 34.1836 20.1257C37.9304 20.1481 39.4002 19.9842 39.4002 19.544C39.4002 19.2066 39.0536 18.7979 38.6302 18.6356C36.8565 17.9546 31.359 17.8722 28.9671 18.4905ZM66.5864 21.2958C69.9077 22.7645 74.1802 26.9882 75.5635 30.17C77.2765 34.1102 77.4776 39.6118 76.0475 43.4028C75.4347 45.0263 74.3939 46.973 73.7338 47.7287L72.5343 49.1034L65.3731 41.9783L58.2114 34.8532L60.8884 34.4583C63.7903 34.0298 67.3915 31.99 67.3915 30.7746C67.3915 29.7283 66.823 29.8209 64.2626 31.2846C61.2523 33.0053 58.3417 32.9702 55.1456 31.1736L52.6742 29.7843L47.3833 34.9906C41.7311 40.5528 40.6079 41.0836 38.3538 39.2586C37.5818 38.6331 37.195 37.7725 37.195 36.6798C37.195 35.2746 37.9899 34.2384 42.7505 29.4402C50.699 21.4291 54.0397 19.6728 60.6059 20.0529C62.7373 20.1761 65.2235 20.6927 66.5864 21.2958ZM48.0521 40.338C48.0521 40.6953 49.6359 42.5595 51.5718 44.4802C54.1928 47.0814 55.3211 47.8845 55.9919 47.6275C56.739 47.3404 56.25 46.6345 53.121 43.4847C49.503 39.8423 48.0521 38.9415 48.0521 40.338ZM25.2371 51.7269C27.0402 53.3586 26.1455 56.4457 23.6395 57.2412C21.6282 57.8794 19.1731 55.4243 19.8113 53.413C20.5941 50.9472 23.409 50.0724 25.2371 51.7269ZM37.1329 63.8395C39.3758 66.0819 38.1772 69.2062 35.0743 69.2062C31.9178 69.2062 30.6379 65.5872 33.1072 63.6451C34.8447 62.2781 35.6091 62.3153 37.1329 63.8395ZM42.4884 70.2882C43.3246 71.8517 42.3464 73.7866 40.7198 73.7866C39.359 73.7866 37.8734 72.5911 37.8734 71.4964C37.8734 69.3574 41.4843 68.4123 42.4884 70.2882Z" fill="#00b0d1"></path></svg>