<svg xmlns="http://www.w3.org/2000/svg" width="95" height="129" fill="none" xmlns:v="https://vecta.io/nano"><g clip-path="url(#A)" fill="#fff"><path d="M34.562 58.092c-4.161-3.948-6.579-8.678-6.651-14.617h-2.205c-3.485-.071-6.224-2.81-6.295-6.295-.071-2.49-.071-4.908 1.885-6.829.249-.249.249-.818.249-1.245V16.054C21.545 9.652 26.133 5.1 32.57 5.1h2.134c.925 0 1.885-.071 2.81.071.854.142 1.672.533 2.561.818 1.743-2.738 4.197-4.552 7.469-5.015 1.778-.249 3.628-.178 5.442-.142 2.916.107 5.904-.036 8.713.569 6.473 1.458 10.99 7.469 11.025 14.119L72.759 29c0 .64.284 1.387.676 1.885 3.379 4.268 1.423 11.274-3.592 12.448-1.103.249-2.276.178-3.485.249-.036 5.797-2.489 10.563-6.651 14.582l.285.285h4.197c4.588.035 8.607 2.845 10.029 7.149.32.996.854 1.351 1.778 1.6 9.567 2.561 15.4 8.713 17.605 18.316.285 1.28.391 2.632.391 3.948v36.668c0 1.956-.711 2.667-2.632 2.667H2.661c-1.849 0-2.561-.711-2.561-2.561V89.567c0-10.421 7.362-19.703 17.676-22.299 1.174-.285 1.814-.747 2.276-1.956 1.458-4.161 5.442-6.864 9.816-6.9h4.268c.178-.107.32-.213.427-.32zM23.68 86.295c5.264 2.739 7.184 6.046 6.117 10.421-.96 3.947-4.339 6.543-8.464 6.508-4.019-.036-7.326-2.81-8.215-6.864-.925-4.161 1.209-7.647 6.188-10.029V71.393c-.356.071-.605.071-.854.142-8.322 2.276-13.941 9.816-13.977 18.778v32.933 1.245h14.937v-1.494-14.546-.783c.035-1.387.818-2.24 2.063-2.276 1.316-.035 2.169.854 2.169 2.312v15.471 1.351H36.59l3.592-44.918-2.027 1.565c-1.565 1.209-2.667 1.031-3.77-.605l-5.69-8.536c-1.743-2.596-1.743-2.596-4.766-1.814-.071.035-.142.107-.249.178v15.897zm65.973 38.232c.036-.249.142-.498.142-.747l-.071-34.391c-.071-5.868-2.632-10.705-7.22-14.404-2.205-1.778-4.73-3.059-7.611-3.592v3.948c3.094.64 4.232 2.027 4.232 5.192 0 .676.036 1.352 0 1.992-.071.747.249 1.174.854 1.6 2.916 2.027 4.837 4.73 5.299 8.251.32 2.418.285 4.872.178 7.291-.107 1.85-1.992 3.379-3.841 3.486a30.37 30.37 0 0 1-2.525 0c-1.245-.071-2.098-.925-2.098-2.134s.818-2.063 2.098-2.099c.676-.036 1.387 0 2.134 0 0-1.672.107-3.201-.035-4.695-.285-3.485-1.992-6.046-5.228-7.433-3.201-1.351-6.188-.818-8.82 1.423-3.414 2.881-3.094 6.757-2.881 10.705.782 0 1.458-.036 2.134 0 1.245.071 2.063.96 2.063 2.169-.035 1.138-.818 1.992-1.992 2.063a21.7 21.7 0 0 1-2.134 0c-2.561-.036-4.374-1.779-4.374-4.339v-4.268c.036-3.912 1.458-7.291 4.588-9.638 1.6-1.209 1.921-2.454 1.849-4.232-.107-3.343.96-4.624 4.197-5.442v-5.086c-.64-.142-1.245-.213-1.814-.462-1.102-.498-1.707-.071-2.347.889-2.134 3.343-4.339 6.58-6.544 9.887-1.102 1.636-2.205 1.778-3.77.569l-2.027-1.529 3.592 44.919h12.946v-1.494-14.795c0-.427-.036-.889.071-1.316.249-.996 1.316-1.636 2.383-1.494 1.102.142 1.814.996 1.814 2.276v15.471 1.423l14.759.035zM32.18 35.366c0 2.738-.071 5.513.035 8.251.249 9.247 7.967 15.364 16.004 14.688 8.109-.711 13.764-6.971 13.835-15.151v-16.11c0-2.027-.782-2.774-2.845-2.774H35.096c-2.205 0-2.916.747-2.916 2.987v8.109zm36.241-6.9c0-4.588.213-9.105-.071-13.55-.32-5.157-3.912-8.998-9.069-9.638-3.165-.391-6.366-.213-9.567-.213-3.948 0-6.508 2.383-6.864 6.295-.142 1.387-.818 2.169-1.992 2.241-1.245.071-2.027-.64-2.276-2.063-.249-1.529-.96-2.134-2.525-2.169-1.245-.036-2.49-.036-3.734 0-3.805.071-6.508 2.81-6.544 6.615-.036 1.849 0 3.734 0 5.584v6.9h2.134v-1.921c.036-3.734 2.739-6.508 6.437-6.508h25.607c3.557 0 6.295 2.774 6.366 6.331v2.134c.747-.036 1.352-.036 2.098-.036zm-15.08 96.026L50.033 83.13c-1.956 1.031-3.806.996-5.761 0l-3.343 41.362h12.412zM38.759 60.759c-.605 1.992.036 3.165 1.814 4.019 1.956.925 3.77 2.169 5.584 3.308.676.427 1.209.462 1.921.036 1.92-1.209 3.877-2.347 5.797-3.485 2.063-1.245 2.098-1.352 1.6-3.841-5.548 2.525-11.132 2.525-16.716-.036zm4.588 10.705l-6.864-4.126c-.178-.107-.427-.178-.64-.142l-4.41 1.102 5.548 8.251 6.366-5.086zm19.418-3.059c-2.703-1.209-5.228-1.707-7.611.462-.462.427-1.067.64-1.565.996-.854.498-1.672 1.031-2.632 1.6l6.402 5.086 5.406-8.144zM21.545 90.42c-2.241-.036-4.268 1.956-4.303 4.232 0 2.276 1.956 4.268 4.232 4.303s4.268-1.956 4.303-4.232-1.921-4.268-4.232-4.303zm6.331-57.615c-1.529.035-3.201-.462-3.912 1.209-.605 1.387-.711 3.023.213 4.339.925 1.28 2.347.854 3.663.782l.036-6.331zm38.517 6.366c1.458 0 3.236.498 3.77-1.067.462-1.28.427-3.058-.071-4.303-.605-1.529-2.312-.96-3.699-.96v6.331zM44.698 77.297c-.035 1.458.64 2.134 2.312 2.241 1.102.071 2.525-.747 2.561-1.458.071-1.743-1.245-3.877-2.383-3.912-.889-.107-2.418 1.921-2.49 3.13zM25.244 65.383l9.069-2.312-.107-.427c-3.236.107-6.686-.676-8.962 2.738zm34.818-2.703l-.107.427 9.46 2.383c-2.667-3.485-6.117-2.774-9.354-2.81zm14.76 17.142h-4.161v2.063h4.161v-2.063zM46.975 52.544c-2.739-.071-5.228-.996-7.326-2.881-1.174-1.031-1.316-2.241-.427-3.272.854-.96 2.027-.996 3.201-.036 3.094 2.525 6.402 2.525 9.425 0 1.209-.996 2.454-.996 3.307-.036s.676 2.241-.427 3.272c-2.205 1.956-4.766 2.916-7.753 2.952zm-4.126-18.636v1.209c-.107 1.174-.996 1.956-2.134 1.956s-2.027-.818-2.098-1.992v-2.276c.036-1.28.889-2.134 2.063-2.134 1.245-.036 2.098.818 2.169 2.169.035.356 0 .711 0 1.067zm8.571-.107v-1.209c.107-1.174.996-1.956 2.134-1.921 1.138 0 2.027.818 2.098 1.992v2.276c-.071 1.28-.889 2.134-2.063 2.134-1.245.036-2.098-.854-2.169-2.169a5.7 5.7 0 0 1 0-1.102zM21.439 96.787a2.1 2.1 0 0 1-2.063-2.134c0-1.245.996-2.169 2.241-2.098 1.174.071 2.063 1.031 1.992 2.205 0 1.174-.96 2.063-2.169 2.027z"/></g><defs><clipPath id="A"><path fill="#fff" d="M0 0h95v129H0z"/></clipPath></defs></svg>