<svg xmlns="http://www.w3.org/2000/svg" width="128" height="119" fill="none" xmlns:v="https://vecta.io/nano"><g clip-path="url(#A)" fill="#fff"><path d="M.273 35.562l2.429-1.665c3.903-2.265 8.188-3.712 12.418-5.349 6.55-2.538 13.428-3.63 20.305-4.885 6.359-1.146 12.746-1.228 19.159-1.092 3.193.082 6.359.409 9.552.71.737.055 1.474.355 2.183.546.901-2.32 1.556-4.558 2.593-6.632 2.347-4.749 5.813-8.679 10.453-11.79C84.142 2.183 89.436.628 95.277.328c6.332-.355 12.254.955 17.576 4.067 5.786 3.412 10.098 8.106 12.582 14.001 3.629 8.57 3.329 17.112-1.038 25.464-1.31 2.511-3.029 4.776-5.076 6.878-2.02 2.074-4.394 3.657-6.878 5.186-4.23 2.62-8.897 3.739-13.891 3.957-1.283.055-1.774.437-2.156 1.61a100.31 100.31 0 0 1-7.287 17.658c-2.565 4.858-5.349 9.607-8.843 13.974-2.565 3.193-5.267 6.332-8.024 9.415-3.139 3.548-6.714 6.687-10.671 9.471l-6.741 4.64-2.156 1.473c-1.31.901-2.593.846-3.876-.054-4.203-2.948-8.597-5.677-12.527-8.898-3.739-3.084-7.178-6.522-10.426-10.043-2.647-2.866-4.995-5.977-7.151-9.143-4.285-6.277-7.86-12.909-10.644-19.896-2.265-5.677-4.176-11.463-5.377-17.412-.901-4.449-1.446-8.952-2.183-13.428-.055-.382-.164-.737-.246-1.092.027-.901.027-1.747.027-2.593zm92.002 24.181c-.682-.191-.901-.3-1.146-.328-3.602-.655-6.959-1.747-10.071-3.63-2.948-1.774-5.704-3.712-7.778-6.304-1.719-2.183-3.384-4.449-4.612-6.85-2.102-4.23-3.057-8.733-2.866-13.428.027-.71-.273-1.092-1.037-1.146-3.712-.3-7.424-.791-11.163-.846-6.195-.109-12.391.055-18.531 1.228-6.468 1.228-12.991 2.238-19.077 4.776l-9.716 3.903c-.873.355-1.146.873-1.01 1.692.437 2.893.737 5.813 1.255 8.706 1.774 9.798 4.722 19.295 9.416 28.247 2.484 4.749 5.377 9.334 8.406 13.81 3.575 5.24 8.024 9.853 12.8 14.192 2.429 2.21 5.185 4.121 7.833 6.14.982.737 2.101 1.338 3.166 2.02.873.546 1.719 1.556 2.593 1.583.873 0 1.774-.955 2.62-1.528l6.741-4.804a56.91 56.91 0 0 0 9.853-9.115c2.647-3.111 5.24-6.25 7.724-9.47 3.439-4.449 6.195-9.279 8.461-14.301 2.156-4.803 4.067-9.634 6.141-14.547zM70.632 30.84c.136 1.01.273 2.92.682 4.749 1.692 7.314 6.113 12.882 13.073 16.676 2.129 1.174 4.64 1.747 7.041 2.456 1.037.3 2.211.573 3.357-.082.409-.218 1.174.082 1.774.164.628.109 1.255.437 1.856.382 4.585-.355 9.007-1.283 12.664-4.067 1.883-1.447 3.766-2.947 5.458-4.585 3.057-2.975 4.776-6.632 5.786-10.562 1.583-6.277.71-12.336-2.429-18.067-1.965-3.575-4.83-6.55-8.351-8.897-4.067-2.729-8.843-3.903-13.783-4.339-1.474-.136-3.002.191-4.503.409-4.558.655-8.87 1.938-12.281 4.94-1.719 1.501-3.439 3.057-4.913 4.776-3.794 4.449-5.267 9.607-5.431 16.048zm-7.833 23.635h1.419 10.835c2.347 0 3.166.737 3.166 2.893v17.631c0 1.883-.873 2.702-2.975 2.702H64.273h-1.501v1.31 10.862c0 1.856-.873 2.647-2.866 2.647H41.702c-2.101 0-3.029-.819-3.029-2.784V79.093v-1.419h-1.419-10.835c-2.265 0-3.139-.737-3.139-2.784V57.505c0-2.347.819-3.057 3.357-3.057h10.48 1.474l.082-1.283V42.739c0-2.347.791-3.111 3.302-3.111h17.576c2.511 0 3.221.682 3.248 3.029v11.817zm10.562 4.64H61.544c-2.811 0-3.493-.628-3.493-3.248V45.578 44.35H43.586v11.981c0 1.938-.928 2.784-3.029 2.811h-9.225-3.111v13.974H40.12c2.675 0 3.439.737 3.466 3.193v7.205 4.339H58.05v-1.337l.027-10.753c.027-1.965.846-2.675 2.975-2.675h10.971 1.365l-.027-13.974zm13.592-29.421h8.461v3.466H81.631c0-2.975 1.31-5.24 3.712-7.041l4.339-3.384c1.31-1.037 2.02-2.265 1.638-3.93-.328-1.365-1.255-2.074-2.811-2.047-1.365.027-2.347.901-2.538 2.211l-.191 1.419h-4.067c.273-1.201.328-2.484.873-3.493 1.829-3.439 5.595-4.503 9.115-2.866 3.548 1.638 4.885 4.804 3.002 8.624-.546 1.119-1.692 2.02-2.729 2.866-1.665 1.337-3.493 2.511-5.24 3.739a3.24 3.24 0 0 0 .218.437zm22.461-4.039l2.293.109v3.057l-2.211.164v4.203h-3.957v-4.23h-8.024c.109-1.637-.3-3.139.71-4.667 2.238-3.357 4.258-6.85 6.414-10.262.191-.3.655-.573 1.037-.6 1.201-.082 2.402-.027 3.766-.027l-.027 12.254zm-4.012.027v-7.887l-4.885 7.887h4.885zm-3.193 20.524l-.328.082c-2.647.027-2.074.191-2.265-1.856-.136-1.72-.328-1.911-2.265-1.938h-1.61v3.739h-2.156v-9.88l6.277.055c1.173.082 1.883.901 2.129 2.074.3 1.31-.11 2.238-1.283 2.947 1.665 1.283.628 3.248 1.501 4.776zm-6.441-5.622h2.811c.819-.055 1.419-.519 1.255-1.228-.109-.464-.71-1.064-1.201-1.146-.901-.191-1.856-.055-2.866-.055v2.429zm-4.476 5.676h-2.156v-2.293-2.183h-4.039v2.238 2.211h-2.156v-9.934h2.129v3.657h4.039v-3.657h2.211l-.027 9.962zm20.469-6.987c-.982.027-1.856.328-2.538-.71-.273-.437-1.31-.682-1.965-.628-.491.027-1.228.519-1.392.983-.3.737.519.873 1.119 1.037l3.084.873c1.556.409 1.965 1.501 2.047 2.784.055 1.092-.682 2.102-1.965 2.538-1.474.518-3.002.628-4.503.082-1.338-.464-1.993-1.419-2.156-2.784 1.01-.164 1.883-.491 2.511.737.464.873 2.811.928 3.602.218.601-.546.41-1.283-.491-1.61l-3.111-1.037c-1.856-.573-2.484-1.31-2.348-2.893.137-1.528 1.201-2.565 2.893-2.811 3.057-.437 4.777.573 5.213 3.22z"/></g><defs><clipPath id="A"><path fill="#fff" d="M0 0h128v118.994H0z"/></clipPath></defs></svg>