<svg xmlns="http://www.w3.org/2000/svg" width="128" height="128" fill="none" xmlns:v="https://vecta.io/nano"><g clip-path="url(#A)" fill="#fff"><path d="M21.487 125.766c-.603 1.773-1.064 2.128-2.801 2.128H2.73c-1.915 0-2.624-.709-2.624-2.66v-28.72c0-1.986.674-2.659 2.73-2.659H18.26c2.588 0 3.085.496 3.12 3.085v1.17l11.382-.071c.461 0 .993-.78 1.347-1.312.177-.248.036-.674.036-1.028l-.071-62.865c-.035-6.347 4.999-11.63 11.346-11.311 3.262.177 6.524.035 9.963.035v-7.375c.036-1.844-.071-3.758.284-5.567C56.59 3.723 60.915.284 65.915.248h25.671c5.921 0 10.566 4.68 10.601 10.673v10.602h10.46c5.39 0 9.574 3.439 10.637 8.723.178.816.178 1.666.178 2.517v58.894c0 .922.248 1.489.992 2.092 4.929 3.936 4.255 11.381-1.383 14.608L103.996 119.1l-10.531 5.886c-.816.426-1.808.709-2.73.709l-67.546.036c-.532.035-1.064.035-1.702.035zm97.755-34.57c0 .071 0-.177 0-.461V32.621c0-4.184-2.73-6.843-6.949-6.843H45.562c-4.538 0-7.162 2.624-7.162 7.198v58.362 1.276c.106.071.213.142.319.177.674-.745 1.277-1.56 2.057-2.163.674-.496 1.525-.993 2.305-.993l28.578-.035c5.886.035 10.389 5.779 9.042 11.488-.248 1.135-.745 2.198-1.135 3.369l8.191-.036c.709 0 1.489-.177 2.163-.461l22.905-10.495c1.951-.851 4.078-1.418 6.418-2.269zm-97.826 30.351h1.17l67.404-.036a3.92 3.92 0 0 0 1.879-.496l21.771-12.233 7.623-4.325c1.702-.993 2.518-2.908 2.199-4.645-.391-2.056-1.844-3.617-3.936-3.758-1.099-.071-2.305.177-3.298.603l-24.713 11.346a7.49 7.49 0 0 1-3.049.674l-33.507.035h-1.525v-4.254h17.622c3.227 0 5.638-2.305 5.638-5.284s-2.411-5.318-5.602-5.318c-8.864-.035-17.728-.035-26.593.035-.532 0-1.17.319-1.596.674-1.489 1.383-3.085 2.73-4.29 4.326-2.198 2.872-4.929 3.9-8.51 3.545-2.837-.283-5.709-.07-8.652-.07l-.035 19.182zm-17.019 2.021H17.02V98.181H4.397v25.387zm93.5-102.081c0-3.829.213-7.588-.071-11.311-.248-3.404-3.014-5.638-6.453-5.638a3009.39 3009.39 0 0 0-25.139 0c-3.865 0-6.559 2.766-6.595 6.666v8.226 2.057h4.255V20.14v-9.042c0-1.525.78-2.305 2.305-2.305h25.139c1.596 0 2.34.78 2.34 2.376v9.042 1.276h4.219zm-29.678-.035h21.132v-8.368H68.219v8.368zm10.496 63.893c-14.112 0-25.458-11.453-25.458-25.671.035-14.041 11.488-25.387 25.6-25.387s25.459 11.453 25.459 25.671c0 14.041-11.488 25.423-25.6 25.387zm-21.203-25.6c-.035 11.63 9.467 21.274 21.132 21.381s21.38-9.502 21.416-21.203c.035-11.63-9.503-21.274-21.133-21.345-11.665-.106-21.345 9.467-21.416 21.168z"/><path d="M72.439 66.198h-5.921c-1.844 0-2.553-.709-2.553-2.553v-7.694c0-1.737.745-2.482 2.517-2.482h5.992v-5.638c0-2.269.603-2.872 2.943-2.872h7.446c1.595 0 2.376.78 2.376 2.34v6.134h5.85c1.95 0 2.624.709 2.659 2.624v7.588c0 1.844-.745 2.553-2.588 2.553h-5.921v2.907c.071 5.886.248 5.673-5.673 5.602h-4.645c-1.666 0-2.411-.745-2.447-2.447l-.035-6.063zm8.51 4.219v-5.779c0-1.95.674-2.659 2.624-2.659h5.815v-4.255h-5.78c-1.915 0-2.624-.709-2.624-2.624v-5.779h-4.255v5.531c0 2.234-.638 2.872-2.801 2.872H68.29v4.255h5.886c1.844 0 2.553.709 2.553 2.588v5.886l4.219-.035z"/></g><defs><clipPath id="A"><path fill="#fff" d="M0 0h128v128H0z"/></clipPath></defs></svg>