<svg xmlns="http://www.w3.org/2000/svg" width="90" height="90" viewBox="0 0 90 90" fill="none"><rect width="90" height="90" fill="#F1FEFF"></rect><path fill-rule="evenodd" clip-rule="evenodd" d="M31.1303 23.1022C29.4949 23.5075 28.4451 24.8937 28.4451 26.6478V27.2921H27.9212C27.1587 27.2921 26.5561 27.4399 25.7599 27.8223C24.5965 28.381 23.6574 29.4553 23.2275 30.7193L23.0307 31.2979L23.0074 45.009C22.9876 56.6192 23.0032 58.8127 23.1098 59.3236C23.4712 61.0569 24.7502 62.4624 26.5082 63.0583C27.0792 63.2519 27.0995 63.2525 35.1744 63.2805L43.2682 63.3085L44.1985 64.2066C46.2949 66.2306 48.6043 67.3937 51.5112 67.8896C52.479 68.0547 54.8087 68.0304 55.8151 67.8447C57.3633 67.5591 59.0079 66.9402 60.3591 66.1349C62.7681 64.6989 64.9417 62.1208 65.9035 59.5583C66.5541 57.8249 66.7783 56.5438 66.7737 54.5841C66.77 52.9764 66.6077 51.9673 66.1166 50.4958C65.3202 48.1106 63.5375 45.6255 61.5652 44.1515L60.8583 43.6233L60.8262 37.5046C60.7948 31.4897 60.7909 31.3762 60.6019 30.8136C59.911 28.7582 58.2237 27.444 56.1112 27.3157L55.2969 27.2662L55.2954 26.8169C55.2932 26.1885 55.087 25.2835 54.8514 24.8689C54.5177 24.2813 53.8188 23.6274 53.2372 23.3586C52.7556 23.1361 52.6038 23.1103 51.7753 23.1103C50.9547 23.1103 50.7939 23.137 50.3431 23.3482C49.693 23.6529 48.9279 24.4153 48.639 25.0465C48.4892 25.3735 48.3847 25.8218 48.3205 26.4127L48.2249 27.2921H41.8685H35.5122L35.4689 26.4652C35.4332 25.7816 35.3786 25.5378 35.1538 25.0575C34.4315 23.5141 32.7555 22.6996 31.1303 23.1022ZM32.7485 25.1838C32.9254 25.2833 33.1685 25.5081 33.2887 25.6834C33.5047 25.9983 33.5077 26.0279 33.5337 28.1438L33.56 30.2854H31.971H30.3819V28.2443C30.3819 26.3548 30.3956 26.175 30.5657 25.8237C30.9309 25.0693 31.9915 24.7584 32.7485 25.1838ZM52.462 25.1268C52.791 25.298 53.0627 25.6066 53.2237 25.9919C53.3331 26.2535 53.36 26.7104 53.36 28.3017V30.2854H51.8194H50.2787V28.1415C50.2787 26.0573 50.2842 25.9893 50.4789 25.7005C50.8013 25.222 51.1999 25.0031 51.7487 25.0031C52.0103 25.0031 52.3312 25.0587 52.462 25.1268ZM28.4451 30.4161V31.6032L28.702 31.8907L28.9589 32.1782H31.9574H34.956L35.2 31.9344C35.4402 31.6945 35.4446 31.6706 35.4729 30.4597L35.5015 29.2289H41.8675H48.2334L48.2698 30.3955C48.2913 31.0856 48.3505 31.6425 48.4146 31.7592C48.6569 32.1995 48.8261 32.2223 51.8577 32.2223H54.6778L54.9653 31.9655L55.2529 31.7086L55.2836 30.4578L55.3142 29.2069L55.9486 29.2476C57.1751 29.3263 58.2327 30.0702 58.6525 31.1492C58.8251 31.5929 58.8518 31.8584 58.8868 33.4768L58.9265 35.3036H41.9249H24.9235V33.6494C24.9235 31.3875 25.0944 30.7878 25.9623 30.0038C26.5688 29.4558 27.0993 29.2547 27.9829 29.2377L28.4451 29.2289V30.4161ZM58.8858 39.9036C58.8986 41.3442 58.8921 42.5228 58.8713 42.5228C58.8505 42.5228 58.5231 42.4059 58.1436 42.2629C56.6448 41.6981 55.194 41.4477 53.454 41.4531C50.7522 41.4616 48.4681 42.1484 46.2289 43.6257C42.9876 45.764 40.8816 49.102 40.3253 52.983C40.1733 54.043 40.2652 56.5197 40.4941 57.5334C40.7349 58.5999 41.1239 59.7148 41.557 60.5802C41.7539 60.9736 41.915 61.3122 41.915 61.3326C41.915 61.353 38.6367 61.3584 34.6298 61.3444L27.3446 61.3191L26.8373 61.1143C26.1886 60.8524 25.5179 60.2044 25.2056 59.538L24.9676 59.03L24.9439 48.135L24.9202 37.24L41.8913 37.2622L58.8625 37.2845L58.8858 39.9036ZM55.2088 43.501C58.2506 43.9262 61.1891 45.7838 62.9091 48.3688C63.8182 49.7352 64.4801 51.3963 64.734 52.9486C64.8651 53.75 64.8651 55.6823 64.734 56.4837C64.0631 60.5856 61.187 64.0312 57.2543 65.4444C54.9159 66.2846 51.9913 66.2701 49.6437 65.4066C46.9036 64.3987 44.6392 62.3846 43.3295 59.7901C41.6821 56.5266 41.7908 52.3214 43.6043 49.158C45.9872 45.0012 50.434 42.8335 55.2088 43.501ZM52.5643 48.0174C52.4058 48.0701 52.1931 48.2251 52.0917 48.3617C51.9129 48.6028 51.9067 48.715 51.8826 52.1654C51.8554 56.0542 51.8682 56.1709 52.3583 56.4921C52.5836 56.6397 52.8427 56.653 55.4847 56.653C58.2705 56.653 58.3735 56.6469 58.6139 56.4687C58.8926 56.262 59.075 55.8167 59.0133 55.4938C58.9907 55.3761 58.8561 55.1635 58.714 55.0214L58.4556 54.7631L56.15 54.7396L53.8442 54.7162L53.8211 51.6184L53.798 48.5207L53.5393 48.262C53.2329 47.9557 52.9577 47.8866 52.5643 48.0174Z" fill="#1DBFCC"></path></svg>