<svg xmlns="http://www.w3.org/2000/svg" width="90" height="90" viewBox="0 0 90 90" fill="none"><rect width="90" height="90" fill="#F1FEFF"></rect><path fill-rule="evenodd" clip-rule="evenodd" d="M30.0993 22.1431C29.8117 22.2992 29.8077 22.3166 29.6875 23.9553C29.4775 26.8177 28.8113 28.5784 27.3951 30.0138C26.4883 30.9329 25.5951 31.4207 24.4064 31.6458C23.9955 31.7236 23.5556 31.824 23.429 31.8688C23.1885 31.954 23 32.2598 23 32.5647C23 32.8364 23.468 33.2571 23.7703 33.2571C24.2406 33.2571 25.3749 33.5999 26.0151 33.9355C26.3712 34.1222 26.9106 34.5172 27.2487 34.8389L27.8494 35.4107L26.9685 37.1248C24.6886 41.5604 23.469 45.3438 23.0905 49.1548C22.4285 55.8174 25.8784 62.2848 31.6974 65.2903C35.4089 67.2072 39.6912 67.5244 43.7085 66.1802C45.7623 65.4929 47.744 64.3349 49.2466 62.9437L49.7808 62.4491L51.0042 62.5003C53.0942 62.5875 55.1106 62.1616 56.8516 61.265L57.6078 60.8755L60.3215 63.5902C63.5577 66.8278 63.6317 66.8806 64.9296 66.8784C65.9224 66.8768 66.4011 66.6885 67.0421 66.0476C67.6702 65.4194 67.8686 64.9248 67.8717 63.979C67.8761 62.6446 67.848 62.6047 64.6282 59.3652L61.875 56.5952L62.3364 55.6468C63.6623 52.9218 63.8744 49.5959 62.907 46.6988C61.3745 42.1092 57.059 38.7982 52.2976 38.5588L51.2248 38.5048L50.418 37.0017C47.7232 31.9815 44.5601 27.5622 40.628 23.324C39.4553 22.06 38.9379 21.8063 38.1824 22.1247C37.6764 22.338 35.0472 25.2095 33.2011 27.5651L32.4607 28.5097L32.2072 27.9167C31.6219 26.548 31.2643 24.8133 31.2634 23.3393C31.2629 22.5506 31.2531 22.5096 31.0059 22.2624C30.7226 21.9791 30.4642 21.9451 30.0993 22.1431ZM39.4481 24.2694C42.1163 27.0718 44.8061 30.5671 47.0092 34.0948C47.9924 35.669 49.5461 38.4191 49.5464 38.5857C49.5465 38.6399 49.3066 38.7314 49.0133 38.789C45.6446 39.4518 42.4734 41.8727 40.8605 45.0128C39.9767 46.7333 39.627 48.096 39.5573 50.0904C39.5026 51.6539 39.6099 52.5691 40.0108 53.9592C41.0246 57.4738 43.9295 60.5625 47.3672 61.7812L48.0448 62.0214L47.6749 62.3331C47.0355 62.872 45.6293 63.7535 44.7809 64.1473C40.8865 65.9547 36.5888 65.9576 32.7793 64.1553C29.0158 62.3745 26.1099 58.8175 25.0236 54.6614C24.6273 53.1453 24.5453 52.4896 24.5452 50.8376C24.5451 48.0396 25.182 45.0528 26.4845 41.7448C27.0034 40.4267 28.5412 37.1874 28.6923 37.094C28.795 37.0305 28.9622 37.412 29.226 38.3115C29.5082 39.2739 29.6766 40.3097 29.7317 41.421C29.7871 42.5393 29.8558 42.7699 30.1779 42.9167C30.5202 43.0726 30.7311 43.0321 31.0059 42.7573C31.2472 42.516 31.2629 42.4574 31.2629 41.7949C31.2629 41.4069 31.3222 40.637 31.3946 40.0841C31.7901 37.0673 33.0388 34.9501 35.059 33.8712C35.5982 33.5833 36.7383 33.2571 37.2054 33.2571C37.6312 33.2571 37.9786 32.9256 37.9786 32.5193C37.9786 32.0315 37.7434 31.8568 36.8867 31.7081C35.6007 31.4849 34.5218 30.9534 33.7472 30.1614L33.3747 29.7805L34.1754 28.7483C35.5698 26.9509 38.5378 23.5878 38.7296 23.5878C38.7679 23.5878 39.0912 23.8944 39.4481 24.2694ZM31.5286 29.8319C32.1028 30.7066 32.8879 31.5016 33.7055 32.0365C34.0579 32.267 34.3462 32.48 34.3462 32.5099C34.3462 32.5398 34.0567 32.7532 33.7028 32.9842C32.4401 33.8085 31.325 35.1562 30.7731 36.5252L30.4995 37.2036L30.2027 36.5269C29.5451 35.0278 28.3029 33.5571 27.0865 32.8376L26.5525 32.5217L27.3035 32.0192C28.6005 31.1511 29.7236 29.7847 30.2565 28.4264L30.4977 27.8119L30.7869 28.4774C30.9461 28.8435 31.2798 29.453 31.5286 29.8319ZM53.2361 40.1613C56.0573 40.6188 58.6193 42.2761 60.2284 44.6844C62.607 48.2445 62.6209 52.7125 60.2648 56.3347C59.6805 57.2329 58.2274 58.686 57.3292 59.2703C54.5383 61.0856 51.2883 61.5069 48.1541 60.4593C45.4893 59.5687 43.3781 57.7246 42.12 55.1888C39.2742 49.4527 42.1335 42.5901 48.2188 40.5514C49.7694 40.0319 51.5734 39.8917 53.2361 40.1613ZM57.1039 46.154C56.9843 46.2369 54.999 48.0367 52.6919 50.1535C50.3849 52.2702 48.4749 54.0021 48.4476 54.0021C48.4201 54.0021 47.846 53.5862 47.1717 53.0779C46.4974 52.5696 45.8478 52.1092 45.7283 52.0548C45.4586 51.9318 45.0171 52.0903 44.8716 52.3623C44.7433 52.6019 44.7594 53.012 44.904 53.1878C44.9676 53.2649 45.7478 53.8753 46.6378 54.5442C48.4498 55.9057 48.5404 55.9403 49.0809 55.4745C49.8786 54.7871 57.8727 47.4523 58.0508 47.2443C58.326 46.9229 58.3051 46.5729 57.992 46.2599C57.7001 45.968 57.4196 45.9345 57.1039 46.154ZM26.9834 51.505C26.7676 51.7208 26.7584 51.7667 26.8106 52.3621C26.8409 52.7082 26.9842 53.4389 27.129 53.9861C28.1413 57.8135 30.2935 60.707 33.234 62.1938C34.1031 62.6332 35.6104 63.1325 36.279 63.2024C36.7422 63.2508 36.8047 63.2359 37.0127 63.0278C37.2888 62.7518 37.3094 62.3766 37.0657 62.0668C36.9389 61.9056 36.7169 61.803 36.2526 61.6914C32.7247 60.8426 30.2913 58.5989 28.9736 54.9797C28.6662 54.1353 28.2762 52.5261 28.275 52.097C28.2729 51.3934 27.4652 51.0232 26.9834 51.505ZM66.1698 63.1392C66.648 63.8746 66.4667 64.7314 65.7276 65.2295C65.3692 65.4711 64.7075 65.4984 64.2879 65.2891C64.1332 65.2118 62.856 64.0022 61.4499 62.601L58.8932 60.0534L59.9555 58.977L61.0179 57.9007L63.4668 60.3246C64.8136 61.6577 66.03 62.9243 66.1698 63.1392Z" fill="#1DBFCC"></path></svg>