<svg xmlns="http://www.w3.org/2000/svg" width="90" height="90" viewBox="0 0 90 90" fill="none"><rect width="90" height="90" fill="#F1FEFF"></rect><path fill-rule="evenodd" clip-rule="evenodd" d="M23.1529 23.2742C22.559 23.6364 22.4569 23.82 21.4214 26.3883L20.5369 28.5817L17.9774 28.7294C15.2472 28.8869 14.7394 29.0182 14.3066 29.6786C13.9644 30.2009 13.8986 31.0409 14.1602 31.5469C14.2839 31.7861 15.2245 32.6616 16.2506 33.4927C17.2767 34.3237 18.168 35.048 18.2313 35.1022C18.2947 35.1563 18.0458 36.367 17.6783 37.7924L17.0101 40.384L17.2818 40.939C17.4313 41.2443 17.7686 41.6372 18.0315 41.8123C18.9039 42.3933 19.2931 42.2816 21.8202 40.7259L24.1018 39.321L26.3766 40.7259C28.1716 41.8344 28.7597 42.1306 29.1657 42.1306C29.8441 42.1306 30.5666 41.6362 30.9085 40.9377L31.1809 40.3816L30.5687 38.0557C30.232 36.7766 29.9513 35.5971 29.9448 35.4346C29.9361 35.2188 30.4397 34.7287 31.8143 33.6155C32.8491 32.7774 33.8181 31.8975 33.9674 31.6602C34.2864 31.1527 34.2495 30.2379 33.8879 29.6859C33.4485 29.0155 32.9406 28.8826 30.2026 28.7212L27.6428 28.5705L26.7625 26.3826C26.2781 25.1793 25.7929 24.0493 25.6842 23.8715C25.3974 23.403 24.6625 23 24.0949 23C23.8241 23 23.4002 23.1234 23.1529 23.2742ZM65.9177 23.2742C65.3251 23.6356 65.2249 23.8162 64.19 26.388L63.3074 28.5814L60.7449 28.7292C58.0119 28.8869 57.5043 29.018 57.0715 29.6786C56.7292 30.2009 56.6634 31.0409 56.925 31.5469C57.0487 31.7861 57.9894 32.6616 59.0154 33.4927C60.0415 34.3237 60.9325 35.0477 60.9954 35.1015C61.0583 35.1552 60.8086 36.364 60.4406 37.7878L59.7713 40.3764L60.0447 40.9352C60.1953 41.2424 60.5335 41.6372 60.7964 41.8123C61.6687 42.3933 62.0579 42.2816 64.585 40.7259L66.8666 39.321L69.1414 40.7259C70.9364 41.8344 71.5246 42.1306 71.9306 42.1306C72.6089 42.1306 73.3314 41.6362 73.6734 40.9377L73.9457 40.3816L73.3335 38.0557C72.9969 36.7766 72.7161 35.5971 72.7096 35.4346C72.7009 35.2188 73.2045 34.7287 74.5792 33.6155C75.614 32.7774 76.5829 31.8975 76.7322 31.6602C77.0512 31.1527 77.0144 30.2379 76.6527 29.6859C76.2134 29.0155 75.7054 28.8826 72.9675 28.7212L70.4076 28.5705L69.5273 26.3826C69.0429 25.1793 68.5578 24.0493 68.449 23.8715C68.1622 23.403 67.4273 23 66.8597 23C66.5889 23 66.165 23.1234 65.9177 23.2742ZM25.0088 28.0731C25.4728 29.2372 25.9813 30.3107 26.1387 30.4587C26.381 30.6861 26.7941 30.7524 28.8121 30.8879C30.1248 30.9759 31.2193 31.0668 31.2443 31.0899C31.2694 31.1129 30.4696 31.801 29.4671 32.6188C28.4645 33.4366 27.6052 34.2073 27.5577 34.3316C27.4044 34.7312 27.4609 35.074 28.0367 37.2352C28.3477 38.4028 28.5852 39.373 28.5642 39.3913C28.5433 39.4095 27.6398 38.8641 26.5567 38.1793C25.1495 37.2898 24.4577 36.9332 24.1333 36.9301C23.8021 36.9268 23.1369 37.2635 21.6715 38.1757C20.5672 38.8632 19.6465 39.4106 19.6255 39.392C19.6046 39.3734 19.842 38.4028 20.153 37.2352C20.7532 34.983 20.7989 34.6657 20.5821 34.2605C20.507 34.1201 19.6485 33.3579 18.6744 32.5668C17.7004 31.7755 16.9232 31.1101 16.9471 31.088C16.9712 31.066 18.0649 30.9759 19.3777 30.8879C21.3956 30.7524 21.8088 30.6861 22.051 30.4587C22.2084 30.3107 22.717 29.2372 23.1809 28.0731C23.6449 26.909 24.0562 25.9565 24.0949 25.9565C24.1336 25.9565 24.5449 26.909 25.0088 28.0731ZM67.7736 28.0731C68.2376 29.2372 68.7461 30.3107 68.9035 30.4587C69.1458 30.6861 69.5589 30.7524 71.5769 30.8879C72.8897 30.9759 73.9841 31.0668 74.0091 31.0899C74.0342 31.1129 73.2345 31.801 72.2319 32.6188C71.2293 33.4366 70.3701 34.2073 70.3225 34.3316C70.1692 34.7312 70.2257 35.074 70.8015 37.2352C71.1125 38.4028 71.35 39.373 71.329 39.3913C71.3081 39.4095 70.4047 38.8641 69.3215 38.1793C67.9143 37.2898 67.2225 36.9332 66.8981 36.9301C66.5669 36.9268 65.9017 37.2635 64.4363 38.1757C63.332 38.8632 62.4113 39.4106 62.3903 39.392C62.3694 39.3734 62.6068 38.4028 62.9179 37.2352C63.4942 35.0719 63.5503 34.7313 63.3962 34.3297C63.3482 34.2047 62.4833 33.4274 61.4743 32.6027C60.4652 31.7778 59.6974 31.0866 59.768 31.0667C59.8385 31.0468 60.9362 30.9647 62.2072 30.8843C64.1806 30.7597 64.5607 30.6982 64.8101 30.464C64.9707 30.3131 65.4818 29.2372 65.9457 28.0731C66.4097 26.909 66.821 25.9565 66.8597 25.9565C66.8984 25.9565 67.3097 26.909 67.7736 28.0731ZM44.3963 35.6516C44.0396 35.8137 43.6714 36.1311 43.4617 36.4574C43.2712 36.7537 42.4033 38.8318 41.5329 41.0756C40.6626 43.3193 39.9096 45.202 39.8595 45.2594C39.8095 45.3166 37.7138 45.4922 35.2023 45.6493C30.4311 45.948 29.9248 46.0372 29.3143 46.6872C28.9314 47.0947 28.5964 47.9325 28.5964 48.4823C28.5964 49.5267 28.992 49.966 32.7495 53.0949C34.7207 54.7363 36.3335 56.1465 36.3335 56.2288C36.3335 56.3111 35.8271 58.3547 35.2081 60.7699C34.5891 63.1851 34.0827 65.3467 34.0827 65.5735C34.0827 65.8001 34.2251 66.2674 34.3992 66.6121C34.9106 67.6242 35.9902 68.163 37.0927 67.9562C37.3615 67.9059 39.2999 66.7553 41.5266 65.3245L45.4828 62.7824L49.3697 65.283C51.5075 66.6584 53.4871 67.8451 53.7687 67.9204C54.4158 68.0931 55.1586 67.9564 55.7659 67.5529C56.3063 67.1938 56.8719 66.1816 56.8719 65.5735C56.8719 65.3467 56.3654 63.1851 55.7465 60.7699C55.1275 58.3547 54.6211 56.3111 54.6211 56.2288C54.6211 56.1465 56.2339 54.7363 58.205 53.0949C61.9626 49.966 62.3581 49.5267 62.3581 48.4823C62.3581 47.9596 62.0333 47.1136 61.6846 46.7279C61.0639 46.0417 60.6717 45.9698 55.8134 45.6537C53.262 45.4877 51.1353 45.3076 51.0873 45.2535C51.0394 45.1994 50.2885 43.3193 49.4187 41.0756C48.5487 38.8318 47.6818 36.7537 47.4919 36.4574C47.0998 35.8456 46.2338 35.3845 45.4773 35.3845C45.2065 35.3845 44.72 35.5048 44.3963 35.6516ZM47.517 42.3861C48.5229 44.951 49.4557 47.1583 49.5902 47.2911C49.7981 47.4969 50.5683 47.5794 54.7736 47.8464C57.4901 48.019 59.8015 48.1941 59.91 48.2357C60.0186 48.2774 60.1073 48.3709 60.1073 48.4438C60.1073 48.5165 58.4139 49.9829 56.3443 51.7025C54.2747 53.4221 52.5022 54.9276 52.4055 55.0481C52.3088 55.1686 52.2296 55.4558 52.2296 55.6865C52.2296 55.9171 52.7714 58.2246 53.4335 60.8141C54.2338 63.9438 54.5904 65.5694 54.4971 65.6627C54.404 65.7558 53.9885 65.5672 53.2581 65.0996C52.6538 64.7129 50.712 63.4696 48.9432 62.3369C47.1744 61.2043 45.6154 60.2776 45.4791 60.2776C45.3427 60.2776 44.1628 60.9614 42.8572 61.7971C41.5516 62.6329 39.6098 63.8767 38.5419 64.5612C37.228 65.4036 36.5543 65.7596 36.4577 65.663C36.3611 65.5663 36.7043 63.9981 37.5199 60.8104C38.1826 58.2199 38.7249 55.8981 38.7249 55.6505C38.7249 55.0847 38.8507 55.2051 34.4639 51.571C32.4685 49.9179 30.859 48.4944 30.8873 48.4076C30.953 48.2058 32.0868 48.0911 37.0765 47.7812C40.7066 47.5559 41.1527 47.5016 41.3897 47.2568C41.5352 47.1067 42.3937 45.0848 43.2977 42.7637C45.3965 37.3747 45.3014 37.5939 45.5105 37.6635C45.6082 37.6962 46.5112 39.8213 47.517 42.3861Z" fill="#1DBFCC"></path></svg>