<svg xmlns="http://www.w3.org/2000/svg" width="90" height="90" viewBox="0 0 90 90" fill="none"><rect width="90" height="90" fill="#F1FEFF"></rect><path fill-rule="evenodd" clip-rule="evenodd" d="M44.7087 22.1599C44.2817 22.4202 44.2358 22.6885 44.2351 24.9276L44.2345 26.9581L43.6017 27.1108C42.3785 27.4058 41.033 28.2127 40.2959 29.0931C40.1052 29.3207 38.5362 31.287 36.8091 33.4624C34.4689 36.4101 33.5874 37.5857 33.349 38.0769L33.029 38.7361L33.005 51.1294C32.989 59.3755 33.0113 63.6646 33.0714 63.9467C33.3769 65.3799 34.5944 66.5879 36.0438 66.8957C36.6963 67.0342 53.7037 67.035 54.3614 66.8965C55.5474 66.6468 56.5029 65.8788 57.0478 64.7376L57.3761 64.0501L57.4033 51.7007C57.4233 42.5834 57.4038 39.2249 57.3286 38.868C57.2726 38.6021 57.1008 38.1472 56.947 37.8572C56.6876 37.3682 50.673 29.6627 49.9597 28.9055C49.2093 28.1091 47.9302 27.3826 46.7974 27.1093L46.1707 26.9581L46.17 24.9117C46.1693 22.641 46.1191 22.3706 45.6533 22.1296C45.3022 21.9481 45.0423 21.9564 44.7087 22.1599ZM47.679 29.4857C47.8934 29.6113 48.225 29.8658 48.4156 30.0511C48.834 30.4577 55.0593 38.2908 55.3356 38.7583L55.5303 39.0877L55.5568 50.9976C55.5713 57.548 55.5585 63.1149 55.5285 63.3684C55.453 64.0052 55.0463 64.5909 54.4779 64.8814L54.0407 65.1048H45.2049C36.6701 65.1048 36.3575 65.0991 36.0293 64.9362C35.8424 64.8434 35.5552 64.6293 35.3911 64.4604C34.8015 63.8532 34.8304 64.5348 34.8347 51.3551C34.8383 40.3519 34.85 39.4071 34.9886 39.0191C35.1641 38.5273 41.2076 30.834 42.0484 30.0319C42.5543 29.5494 43.3913 29.0824 43.9501 28.9708L44.2357 28.9138V31.6357V34.3574L43.8622 34.4677C42.7822 34.7866 41.6982 35.6628 41.1897 36.6278C40.7821 37.4014 40.6266 38.0192 40.6259 38.868C40.6242 40.9914 41.994 42.7799 44.0622 43.3547C44.2785 43.4147 44.8114 43.4629 45.2465 43.4616C48.0536 43.4532 50.1149 41.0677 49.7663 38.2307C49.5593 36.5457 48.1978 34.9564 46.543 34.4677L46.1694 34.3574V31.6041V28.8508L46.7293 29.054C47.0372 29.1658 47.4646 29.36 47.679 29.4857ZM46.366 36.4031C46.8912 36.6526 47.4178 37.1755 47.6801 37.7082C47.9758 38.3084 47.9711 39.4368 47.6704 40.0478C47.3993 40.5986 46.9332 41.0647 46.3824 41.3358C45.7714 41.6365 44.643 41.6412 44.0428 41.3455C43.5148 41.0855 42.9913 40.561 42.7308 40.0314C42.4359 39.4316 42.4354 38.2906 42.7299 37.7253C43.0992 37.0163 43.7423 36.4693 44.4994 36.2202C44.895 36.09 45.9179 36.1902 46.366 36.4031ZM44.7913 48.5904C44.4829 48.7425 44.2358 49.1737 44.2355 49.5606C44.2354 49.7749 44.1654 49.8476 43.7491 50.065C42.8435 50.5382 42.2219 51.4644 42.0771 52.5562C41.9549 53.4774 42.5145 54.7469 43.2919 55.3119C43.8187 55.6949 44.1787 55.8318 44.9828 55.9551C45.3696 56.0143 45.7771 56.1122 45.8885 56.1727C46.199 56.3411 46.4324 56.7937 46.4328 57.2278C46.4336 58.1685 45.4953 58.741 44.6277 58.3293C44.2554 58.1526 44.077 57.8796 43.972 57.3261C43.8605 56.738 43.6669 56.4681 43.2718 56.3497C42.8278 56.2167 42.3739 56.4258 42.169 56.8575C41.8748 57.4777 42.272 58.7099 43.0014 59.4393C43.2211 59.6589 43.5835 59.927 43.8071 60.0351C44.1872 60.2189 44.2163 60.2575 44.2588 60.6346C44.3409 61.3631 44.8555 61.7579 45.4866 61.5769C45.8538 61.4716 46.1694 61.0087 46.1694 60.5755C46.1694 60.2652 46.1957 60.2344 46.6487 60.0128C47.6793 59.5085 48.3034 58.4529 48.3158 57.1924C48.3221 56.5668 48.2907 56.422 48.0372 55.9071C47.531 54.8789 46.5857 54.2185 45.4587 54.1057C44.824 54.0423 44.5505 53.9286 44.245 53.6017C43.9663 53.3033 43.8942 52.6335 44.0983 52.2388C44.5132 51.4365 45.7898 51.3938 46.2608 52.1665C46.3552 52.3212 46.4326 52.5381 46.4328 52.6484C46.4337 53.2216 46.8788 53.7267 47.3958 53.7415C48.9968 53.787 48.4307 50.9923 46.6507 50.0622C46.2397 49.8475 46.1698 49.7747 46.1696 49.5606C46.1693 49.1642 45.9207 48.7394 45.6 48.5872C45.2396 48.4162 45.1438 48.4166 44.7913 48.5904Z" fill="#1DBFCC"></path></svg>