<svg xmlns="http://www.w3.org/2000/svg" width="52" height="37" viewBox="0 0 52 37" fill="none"><path fill-rule="evenodd" clip-rule="evenodd" d="M10.5392 1.25936C4.73873 2.35187 0.630722 7.50388 0.91259 13.3326C1.05037 16.1819 2.15115 18.7265 4.14136 20.7968C5.61775 22.3326 7.31495 23.3686 9.2545 23.9178C9.73006 24.0524 10.147 24.1904 10.181 24.2242C10.2739 24.3166 9.66238 25.6876 9.00784 26.8546C8.15477 28.3753 7.23539 29.712 5.87524 31.4092C4.84918 32.6894 4.64508 33.006 4.53757 33.4836C4.29596 34.5574 4.80157 35.6187 5.80251 36.1387C6.60702 36.5567 7.17885 36.5316 8.69434 36.0119C16.4021 33.3689 21.6318 27.8157 23.5656 20.221C24.2105 17.688 24.3585 16.4753 24.3618 13.6984C24.364 11.7605 24.329 11.1492 24.181 10.5444C23.0753 6.02237 19.8968 2.62821 15.6737 1.45993C14.8561 1.23365 14.4197 1.18275 13.0141 1.14962C11.8434 1.12203 11.0915 1.15537 10.5392 1.25936ZM37.1451 1.3251C33.2917 2.12946 30.0501 4.80183 28.6202 8.35328C27.9434 10.0342 27.8461 10.5825 27.8391 12.7578C27.8331 14.6171 27.8512 14.8092 28.1225 15.7752C29.2522 19.7954 32.4536 23.0026 36.3204 23.9881C36.9477 24.148 37.0755 24.2159 37.049 24.3751C37.0312 24.4812 36.7106 25.1845 36.3362 25.9379C35.4934 27.6345 34.0984 29.7552 32.7636 31.3693C31.6011 32.7751 31.359 33.2283 31.3557 34.004C31.3529 34.6844 31.5333 35.1314 32.033 35.6814C32.89 36.6247 33.8513 36.6544 36.1353 35.8078C45.7001 32.2624 51.2446 24.0981 51.2564 13.5417C51.2589 11.37 51.1758 10.786 50.638 9.19254C49.2609 5.11308 45.7743 2.0448 41.6266 1.26229C40.4389 1.03821 38.3813 1.06705 37.1451 1.3251Z" stroke="#86bbd8"></path></svg>