<svg xmlns="http://www.w3.org/2000/svg" width="39" height="40" viewBox="0 0 39 40" fill="none"><path fill-rule="evenodd" clip-rule="evenodd" d="M18.4777 0.0689896C17.6619 0.229151 17.246 0.518585 15.6676 2.0244C14.6725 2.97357 14.0569 3.5023 13.8613 3.5755C13.5918 3.67639 13.4001 3.66372 11.7743 3.43724C10.7897 3.30007 9.75097 3.18472 9.46607 3.18089C8.29786 3.16524 7.22764 3.7287 6.578 4.70149C6.18229 5.29412 6.10096 5.58324 5.7226 7.74206C5.54985 8.72782 5.35489 9.63804 5.28928 9.76481C5.14475 10.0443 4.94009 10.175 3.33676 11.0111C1.15392 12.1492 0.776277 12.4488 0.328793 13.3964C0.0778364 13.9278 0.00205678 14.3003 2.34718e-05 15.0128C-0.00193163 15.6755 0.116313 16 1.0844 17.9884C1.72051 19.295 1.91133 19.7601 1.91133 20.0046C1.91133 20.2491 1.72051 20.7142 1.0844 22.0209C0.116313 24.0092 -0.00193163 24.3337 2.34718e-05 24.9964C0.00205678 25.709 0.0778364 26.0814 0.328793 26.6129C0.776277 27.5605 1.15392 27.86 3.33676 28.9982C4.94009 29.8342 5.14475 29.9649 5.28928 30.2444C5.35489 30.3712 5.55016 31.2833 5.72331 32.2712C5.89645 33.2593 6.08664 34.2287 6.14584 34.4256C6.56947 35.8331 7.88057 36.8144 9.35847 36.8301C9.65955 36.8333 10.7291 36.7204 11.7352 36.5793C13.3987 36.3459 13.5914 36.3327 13.8613 36.4337C14.0569 36.5069 14.6725 37.0357 15.6676 37.9848C16.8685 39.1305 17.2759 39.4712 17.6607 39.6512C18.6544 40.1163 19.6917 40.1163 20.6855 39.6512C21.0702 39.4712 21.4777 39.1305 22.6786 37.9848C23.6736 37.0357 24.2893 36.5069 24.4848 36.4337C24.7543 36.3328 24.946 36.3455 26.5718 36.572C27.5565 36.7092 28.5952 36.8245 28.8801 36.8283C30.0483 36.844 31.1185 36.2805 31.7681 35.3077C32.1639 34.7151 32.2452 34.426 32.6235 32.2672C32.7963 31.2814 32.9913 30.3712 33.0569 30.2444C33.2028 29.9621 33.3783 29.8517 35.2155 28.8859C36.9468 27.9758 37.3305 27.7022 37.75 27.0782C38.164 26.4625 38.3397 25.8845 38.346 25.118C38.3525 24.3251 38.2728 24.0976 37.2617 22.0209C36.6256 20.7142 36.4348 20.2491 36.4348 20.0046C36.4348 19.7601 36.6256 19.295 37.2617 17.9884C38.2728 15.9116 38.3525 15.6842 38.346 14.8912C38.3397 14.1248 38.164 13.5468 37.75 12.9311C37.3305 12.3071 36.9468 12.0334 35.2155 11.1233C33.3783 10.1575 33.2028 10.0471 33.0569 9.76481C32.9913 9.63804 32.7963 8.72782 32.6235 7.74206C32.2452 5.58324 32.1639 5.29412 31.7681 4.70149C31.1185 3.7287 30.0483 3.16524 28.8801 3.18089C28.5952 3.18472 27.5565 3.30007 26.5718 3.43724C24.946 3.66372 24.7543 3.67639 24.4848 3.5755C24.2893 3.5023 23.6736 2.97357 22.6786 2.0244C21.4959 0.896154 21.0672 0.53665 20.6986 0.364132C19.9469 0.012448 19.2424 -0.0812404 18.4777 0.0689896ZM19.7596 2.4801C19.8886 2.56206 20.6366 3.24603 21.4217 3.99999C22.9897 5.50589 23.4026 5.77945 24.3234 5.92272C24.8572 6.00577 25.0413 5.98943 27.443 5.64556C28.2709 5.52693 28.984 5.46257 29.1416 5.49213C29.47 5.55375 29.8356 5.84631 29.9529 6.14138C30.0003 6.26048 30.1837 7.18345 30.3605 8.19228C30.7096 10.1848 30.8327 10.5978 31.2648 11.2251C31.6497 11.7839 32.0081 12.03 33.919 13.0474C34.8198 13.527 35.6233 13.9777 35.7045 14.0489C35.9001 14.2205 36.0651 14.6228 36.0651 14.9281C36.0651 15.0826 35.7311 15.8636 35.1692 17.0226C34.2351 18.9493 34.1139 19.2919 34.1139 20.0046C34.1139 20.7173 34.2351 21.0599 35.1692 22.9866C35.7311 24.1456 36.0651 24.9266 36.0651 25.0812C36.0651 25.3865 35.9001 25.7887 35.7045 25.9603C35.6233 26.0315 34.8198 26.4822 33.919 26.9618C32.0081 27.9792 31.6497 28.2253 31.2648 28.7841C30.8327 29.4115 30.7096 29.8245 30.3605 31.8169C30.1837 32.8258 30.0003 33.7487 29.9529 33.8678C29.8356 34.1629 29.47 34.4555 29.1416 34.5171C28.984 34.5467 28.2709 34.4823 27.443 34.3637C25.0413 34.0198 24.8572 34.0035 24.3234 34.0865C23.4026 34.2298 22.9897 34.5033 21.4217 36.0092C20.6366 36.7632 19.8886 37.4472 19.7596 37.5291C19.4912 37.6996 18.9141 37.7249 18.6494 37.5777C18.5549 37.5252 17.8406 36.8748 17.062 36.1323C15.5464 34.687 15.2304 34.4453 14.559 34.2175C13.9336 34.0053 13.1949 34.0268 11.2159 34.3148C10.1722 34.4667 9.36722 34.5476 9.2044 34.5171C8.87618 34.4555 8.51058 34.1629 8.39327 33.8678C8.34588 33.7487 8.16249 32.8258 7.98567 31.8169C7.63657 29.8245 7.5134 29.4115 7.08132 28.7841C6.69648 28.2253 6.33807 27.9792 4.42715 26.9618C3.52632 26.4822 2.72285 26.0315 2.64168 25.9603C2.44601 25.7887 2.281 25.3865 2.281 25.0812C2.281 24.9266 2.61509 24.1456 3.17698 22.9866C4.11105 21.0599 4.23227 20.7173 4.23227 20.0046C4.23227 19.2919 4.11105 18.9493 3.17698 17.0226C2.61509 15.8636 2.281 15.0826 2.281 14.9281C2.281 14.6228 2.44601 14.2205 2.64168 14.0489C2.72285 13.9777 3.52632 13.527 4.42715 13.0474C6.33807 12.03 6.69648 11.7839 7.08132 11.2251C7.5134 10.5978 7.63657 10.1848 7.98567 8.19228C8.16249 7.18345 8.34588 6.26048 8.39327 6.14138C8.51058 5.84631 8.87618 5.55375 9.20456 5.49213C9.36214 5.46257 10.0752 5.52693 10.9032 5.64556C13.3049 5.98943 13.489 6.00577 14.0227 5.92272C14.9436 5.77945 15.3564 5.50589 16.9245 3.99999C17.7096 3.24603 18.4575 2.56206 18.5865 2.4801C18.8944 2.28451 19.4517 2.28451 19.7596 2.4801ZM13.6597 9.72023C11.7191 10.1518 10.3325 11.8753 10.3372 13.8499C10.3416 15.7216 11.6078 17.3739 13.4589 17.9234C13.9921 18.0817 15.0105 18.0863 15.5989 17.9331C17.1464 17.53 18.4064 16.1893 18.7088 14.624C19.272 11.7086 16.5605 9.07512 13.6597 9.72023ZM26.3287 11.3354C26.0853 11.4674 10.653 26.8989 10.5265 27.1368C10.2666 27.6255 10.4745 28.299 10.9805 28.6074C11.2613 28.7787 11.7377 28.8112 12.003 28.6771C12.2455 28.5547 27.6837 13.1281 27.8196 12.8724C28.0795 12.3837 27.8716 11.7102 27.3656 11.4018C27.0872 11.232 26.5793 11.1995 26.3287 11.3354ZM15.5433 12.2271C16.5775 12.8664 16.7712 14.2794 15.9432 15.1433C15.1801 15.9393 13.98 15.9568 13.1975 15.1834C12.7023 14.6939 12.5124 13.7574 12.7793 13.1206C13.2264 12.0531 14.5631 11.6211 15.5433 12.2271ZM22.7138 22.0801C21.1903 22.4904 19.9363 23.8376 19.6374 25.3852C19.4494 26.3585 19.6895 27.6003 20.2229 28.4133C20.8911 29.4319 22.0159 30.1651 23.181 30.3419C25.6966 30.7234 28.0151 28.7149 28.009 26.1593C28.0045 24.2876 26.7383 22.6353 24.8873 22.0858C24.3652 21.9308 23.2785 21.928 22.7138 22.0801ZM24.6402 24.4586C25.2956 24.793 25.6916 25.4473 25.6847 26.1848C25.6743 27.3104 24.7978 28.1173 23.664 28.0451C22.0633 27.9432 21.2991 26.0169 22.403 24.8662C22.9998 24.244 23.8986 24.0802 24.6402 24.4586Z" fill="white"></path></svg>