<svg xmlns="http://www.w3.org/2000/svg" width="42" height="40" viewBox="0 0 42 40" fill="none"><path fill-rule="evenodd" clip-rule="evenodd" d="M17.679 0.187789L17.4517 0.383294V2.41277C17.4517 4.39415 17.4559 4.44638 17.6294 4.61994C17.8847 4.87513 18.2773 4.85626 18.5174 4.57718C18.7046 4.35956 18.707 4.33211 18.707 2.46177C18.707 0.450757 18.6734 0.238811 18.3299 0.0822612C18.0429 -0.0484534 17.9329 -0.0305551 17.679 0.187789ZM11.0387 2.17961C10.8185 2.26837 10.6892 2.50137 10.6892 2.80978C10.6892 3.00828 10.8613 3.20824 11.7623 4.05675C13.3223 5.52571 13.6732 5.8235 13.8443 5.8235C13.9284 5.8235 14.1094 5.72915 14.2465 5.61383C14.4859 5.41233 14.5537 5.17803 14.4503 4.90874C14.3963 4.76782 11.7989 2.34369 11.5504 2.20212C11.3478 2.0868 11.2768 2.08372 11.0387 2.17961ZM24.5787 2.1967C24.2689 2.376 21.7436 4.78273 21.6717 4.96722C21.5035 5.39888 21.9428 5.90303 22.3895 5.79086C22.6153 5.73417 25.3376 3.19334 25.4246 2.95798C25.5177 2.70644 25.363 2.35284 25.1003 2.21711C24.8274 2.07594 24.79 2.07449 24.5787 2.1967ZM16.2997 6.60536C15.8733 6.75632 15.1874 7.36381 14.9764 7.77734C14.8889 7.94887 14.6339 8.75478 14.4098 9.56823C14.1857 10.3817 13.9833 11.111 13.9601 11.189C13.9204 11.322 13.6001 11.3307 8.7166 11.3307C3.07198 11.3307 3.06331 11.3313 2.16629 11.7858C1.59532 12.0752 0.800264 12.8567 0.49583 13.4278C-0.0152853 14.3869 0.0013172 14.0313 2.13963e-05 24.0216C-0.000869472 30.3471 0.0260186 33.2389 0.0882984 33.5377C0.369408 34.8855 1.38937 36.0461 2.72422 36.5368C3.12389 36.6838 3.43723 36.718 4.7315 36.7562L6.26517 36.8014L6.36017 37.1746C6.68372 38.4454 7.90162 39.6061 9.23371 39.9131C10.0991 40.1125 11.2252 39.9608 11.9965 39.5409C12.8582 39.072 13.6242 38.1229 13.8973 37.1861L14.0212 36.7609H20.8476H27.674L27.8504 37.2986C28.4166 39.0233 30.0052 40.0955 31.8244 39.9808C33.4563 39.8778 34.8344 38.8035 35.3102 37.2632L35.4529 36.8014L36.8188 36.7553C38.2838 36.7059 38.7094 36.6097 39.4912 36.1516C40.3685 35.6374 41.1713 34.504 41.384 33.4794C41.4487 33.1677 41.4677 32.01 41.4459 29.6922C41.4159 26.4959 41.407 26.3336 41.2368 25.8745C40.8338 24.7877 40.1246 23.9821 39.1653 23.5216C38.4404 23.1735 37.8327 23.0753 36.3985 23.0746L35.2601 23.074L33.6516 19.6117C31.0901 14.0983 30.8467 13.6096 30.3889 13.0612C29.891 12.4647 29.0303 11.8736 28.2374 11.5837C27.6595 11.3724 27.6407 11.371 24.9357 11.3461L22.2151 11.3211L21.7549 9.6493C21.2625 7.86076 21.0464 7.39775 20.5153 6.99265C19.9292 6.54559 19.5693 6.47076 18.038 6.47781C17.0188 6.4825 16.5494 6.51692 16.2997 6.60536ZM19.4904 7.84318C19.6762 7.92757 19.8926 8.09481 19.9713 8.21492C20.0856 8.38945 20.8824 11.035 20.8914 11.2699C20.8927 11.3033 19.6143 11.3307 18.0505 11.3307C15.783 11.3307 15.2152 11.3098 15.2467 11.2277C15.2685 11.171 15.3839 10.761 15.5031 10.3166C15.9818 8.53199 16.1072 8.189 16.3423 8.02168C16.7005 7.76657 17.0608 7.70121 18.1401 7.6953C18.969 7.69076 19.2137 7.71757 19.4904 7.84318ZM20.0029 20.1179V27.6903H10.6469H1.29089L1.313 21.11L1.33511 14.5297L1.5494 14.1248C1.96536 13.3387 2.73296 12.7671 3.56131 12.6266C3.76232 12.5925 7.54381 12.5602 11.9648 12.5551L20.0029 12.5455V20.1179ZM27.2108 12.6293C28.2179 12.7874 29.3634 13.5578 29.8273 14.389L29.9735 14.6512H27.0472H24.1208L23.884 14.8879L23.6473 15.1247V19.4997V23.8748L23.8427 24.102L24.0382 24.3293L31.0709 24.3698L38.1037 24.4103L38.5611 24.6247C39.475 25.0531 40.0806 25.9199 40.1512 26.9006L40.1907 27.4473H38.7372C37.3865 27.4473 37.2713 27.459 37.1066 27.6124C36.9326 27.7746 36.9294 27.8178 36.9294 30.0069C36.9294 31.3062 36.9624 32.2981 37.0086 32.3844C37.1461 32.6412 37.5522 32.7115 38.8965 32.7115H40.1915L40.1447 33.1068C40.0369 34.0157 39.2844 34.9756 38.4284 35.2959C38.0395 35.4414 37.7961 35.4651 36.6924 35.4651H35.4086L35.3522 35.1614C35.1911 34.2944 34.2533 33.1207 33.3596 32.6679C31.4457 31.698 29.0583 32.4543 28.1024 34.3333C27.9772 34.5794 27.8333 34.9348 27.7826 35.1229L27.6905 35.4651H24.4945H21.2987V24.0053V12.5455L23.9915 12.5462C25.4726 12.5465 26.9213 12.5839 27.2108 12.6293ZM9.73559 15.0984C7.86801 15.504 6.28834 17.094 5.86566 18.9938C5.69137 19.7773 5.74102 20.9461 5.98066 21.6984C6.4572 23.195 7.74685 24.4836 9.31243 25.0277C9.73956 25.1761 10.0145 25.2108 10.7702 25.2116C11.5735 25.2125 11.7833 25.1834 12.2956 24.9994C13.1375 24.6972 13.7204 24.3297 14.3364 23.7126C15.2898 22.7575 15.8062 21.4946 15.8062 20.1179C15.8062 16.8688 12.8476 14.4226 9.73559 15.0984ZM32.1916 19.437C33.0824 21.3538 33.8235 22.9562 33.8383 22.998C33.8549 23.0447 32.1467 23.074 29.4042 23.074H24.9431V19.5105V15.947L27.7575 15.9495L30.5718 15.9519L32.1916 19.437ZM12.0051 16.4355C13.5491 16.9074 14.6576 18.4465 14.6576 20.1179C14.6576 22.9952 11.6587 24.8574 9.06947 23.5877C6.68939 22.4205 6.15706 19.2987 8.01435 17.4006C9.04679 16.3454 10.5339 15.9858 12.0051 16.4355ZM10.3901 17.6002C10.154 17.8033 10.1486 17.84 10.1239 19.4092C10.1227 19.4831 9.91255 19.5105 9.34758 19.5105C8.33531 19.5105 8.10125 19.627 8.09883 20.1322C8.09793 20.3147 8.15973 20.4384 8.31101 20.5574C8.49413 20.7015 8.63772 20.7253 9.32336 20.7253C9.90769 20.7253 10.1227 20.7525 10.1239 20.8265C10.147 22.3006 10.1616 22.4118 10.3591 22.622C10.4672 22.737 10.6372 22.831 10.7373 22.831C11.2648 22.831 11.4181 22.531 11.4181 21.4987V20.7253H12.2214C12.6631 20.7253 13.0863 20.7017 13.1617 20.6727C13.3774 20.59 13.5198 20.1712 13.425 19.8991C13.3085 19.565 13.1415 19.5105 12.2333 19.5105H11.4181V18.737C11.4181 18.2167 11.3793 17.8887 11.2996 17.7346C11.1003 17.3491 10.7433 17.2963 10.3901 17.6002ZM23.8371 26.4403C23.6694 26.608 23.6388 26.698 23.679 26.906C23.7766 27.4113 23.9015 27.4473 25.5529 27.4473C26.3683 27.4473 27.0946 27.4246 27.1666 27.397C27.3644 27.3211 27.5459 26.9126 27.4867 26.6767C27.3846 26.27 27.2227 26.2325 25.5693 26.2325H24.0449L23.8371 26.4403ZM40.1689 30.0389V31.4157H39.1565H38.1442V30.0389V28.6621H39.1565H40.1689V30.0389ZM20.0029 32.1861V35.4671L16.9971 35.4459L13.9914 35.4246L13.8486 34.9628C13.4562 33.6946 12.5172 32.7651 11.2348 32.3755C10.7905 32.2406 10.524 32.2134 9.89417 32.2387C9.19403 32.2668 9.04177 32.3021 8.50158 32.5606C7.42654 33.0754 6.651 33.9522 6.36309 34.9785L6.22298 35.4776L4.71045 35.451C3.25096 35.4252 3.18334 35.4166 2.78544 35.2069C2.26064 34.9302 1.59727 34.2071 1.40897 33.7066C1.28498 33.3769 1.25858 32.9892 1.23258 31.112L1.20205 28.9051H10.6024H20.0029V32.1861ZM11.2101 33.7248C11.7188 33.9655 12.2524 34.5129 12.4976 35.0459C12.7505 35.5956 12.7427 36.6397 12.4812 37.2227C12.0529 38.1782 10.9782 38.8358 9.96033 38.7651C7.81682 38.6164 6.75766 36.0053 8.18362 34.3853C8.99091 33.4682 10.1383 33.2178 11.2101 33.7248ZM32.6841 33.7616C33.2696 34.0499 33.6279 34.4238 33.9246 35.0565C34.0984 35.427 34.1345 35.6191 34.131 36.1535C34.1257 36.9525 33.873 37.5433 33.3176 38.0553C32.7588 38.5704 32.3155 38.7425 31.5436 38.7439C30.9514 38.7451 30.8505 38.7203 30.3693 38.4553C29.4681 37.9591 28.9929 37.1529 28.9921 36.1189C28.9916 35.4254 29.1902 34.886 29.6237 34.4034C30.4912 33.4374 31.5673 33.2118 32.6841 33.7616ZM9.82784 35.5599C9.454 35.7409 9.37358 36.2625 9.67323 36.5621C9.99362 36.8826 10.4506 36.82 10.6534 36.4278C10.8046 36.1357 10.7349 35.8368 10.4668 35.6258C10.2419 35.449 10.0893 35.4332 9.82784 35.5599ZM31.1351 35.6639C30.7371 36.0618 31.0013 36.7609 31.5496 36.7609C32.1495 36.7609 32.3958 36.0578 31.9396 35.6473C31.676 35.4101 31.3827 35.4162 31.1351 35.6639Z" fill="white"></path></svg>