<svg width="70" height="70" viewBox="0 0 70 70" fill="none" xmlns="http://www.w3.org/2000/svg">
<rect width="70" height="70" fill="#E63946" fill-opacity="0.15"/>
<path fill-rule="evenodd" clip-rule="evenodd" d="M27.1943 21.0887C22.5776 21.8144 19.2223 25.9183 19.4557 30.5538C19.5144 31.7199 19.7956 32.8917 20.2815 33.9946L20.3944 34.2509H19.6047C18.948 34.2509 18.7694 34.2741 18.5451 34.3885C18.2418 34.5433 18 34.9371 18 35.2763C18 35.6155 18.2418 36.0093 18.5451 36.1641C18.791 36.2895 18.9464 36.3017 20.3036 36.3017H21.7923L28.3898 42.8937C35.5632 50.0612 35.1069 49.6499 35.7563 49.5322C35.9842 49.4909 36.7461 48.753 42.6102 42.8937L49.2077 36.3017H50.6964C52.0536 36.3017 52.209 36.2895 52.4549 36.1641C52.7582 36.0093 53 35.6155 53 35.2763C53 34.9371 52.7582 34.5433 52.4549 34.3885C52.2306 34.2741 52.052 34.2509 51.3953 34.2509H50.6056L50.7185 33.9946C52.3593 30.2702 51.5366 26.1414 48.6113 23.4187C47.2543 22.1558 45.6199 21.3721 43.7373 21.0817C42.9002 20.9526 41.3946 20.9891 40.5928 21.1579C38.8885 21.5167 37.3872 22.3017 36.1154 23.4989L35.5 24.0782L34.8703 23.4855C33.4754 22.1724 31.8403 21.3738 29.9629 21.0887C29.1845 20.9704 27.9466 20.9705 27.1943 21.0887ZM29.9434 23.1702C31.0249 23.3808 31.9537 23.7845 32.8215 24.4212C33.0352 24.578 33.5945 25.081 34.0645 25.5389C34.5344 25.9969 34.9861 26.4064 35.0682 26.4489C35.2609 26.5487 35.7401 26.5485 35.9318 26.4484C36.0139 26.4055 36.481 25.9825 36.9698 25.5084C38.3208 24.1981 39.208 23.6504 40.6076 23.263C41.2049 23.0976 41.3932 23.0777 42.3701 23.0768C43.2793 23.0758 43.5654 23.1014 44.0659 23.2284C45.8368 23.6776 47.3229 24.7212 48.315 26.2122C49.8778 28.561 49.902 31.5757 48.3773 33.991L48.2131 34.2509H45.5226H42.832L41.6188 32.3341C40.5733 30.6821 40.3695 30.3989 40.1431 30.2833C39.801 30.1088 39.4937 30.1154 39.1652 30.3043C38.9276 30.4409 38.7203 30.77 37.1961 33.4306C36.2592 35.0661 35.4712 36.4255 35.445 36.4515C35.4189 36.4774 34.3977 34.5245 33.1758 32.1117C31.0439 27.9019 30.943 27.7185 30.6807 27.571C30.1894 27.2947 29.5896 27.4323 29.3257 27.8816C29.2573 27.9982 28.6228 29.4713 27.9159 31.1551L26.6304 34.2167L24.7132 34.2349L22.796 34.253L22.6624 34.064C22.5889 33.96 22.4056 33.6289 22.2549 33.3281C20.5621 29.9474 21.7837 25.8882 25.0741 23.9598C26.4338 23.163 28.3284 22.8558 29.9434 23.1702ZM34.1247 38.522C34.5172 39.2916 34.6134 39.4296 34.8506 39.5633C35.1971 39.7586 35.5301 39.7591 35.868 39.5648C36.1058 39.428 36.3172 39.0915 37.8948 36.3381C38.8636 34.6475 39.6824 33.2569 39.7144 33.2479C39.7463 33.2389 40.1679 33.8618 40.6513 34.6322C41.3957 35.8187 41.5704 36.0534 41.7936 36.1673C42.0386 36.2923 42.2039 36.3017 44.1617 36.3017H46.2665L40.8832 41.6849L35.5 47.0682L30.1168 41.6849L24.7335 36.3017H26.1205C27.3756 36.3017 27.5331 36.2887 27.7772 36.1641C28.1102 35.9942 28.0939 36.0258 29.2004 33.39C29.6897 32.2242 30.1284 31.1864 30.1751 31.0838C30.2566 30.9051 30.3311 31.0374 31.9662 34.266C32.9046 36.1188 33.8759 38.0339 34.1247 38.522Z" fill="#E63946"/>
</svg>
