<svg width="70" height="70" viewBox="0 0 70 70" fill="none" xmlns="http://www.w3.org/2000/svg">
<rect width="70" height="70" fill="#E63946" fill-opacity="0.15"/>
<path fill-rule="evenodd" clip-rule="evenodd" d="M48.9609 17.6474C44.3035 18.664 44.1156 18.6646 40.1884 17.6782L37.7375 17.0626L31.5219 17.0639L25.3064 17.0653L21.5058 20.9564C17.3567 25.2043 17.3426 25.2212 17.0965 26.2655C16.7243 27.8446 17.5501 29.5741 19.0318 30.3181C19.7295 30.6684 20.794 30.7681 21.6048 30.5591C22.4514 30.3408 22.7383 30.1282 24.3973 28.4898L25.9493 26.957L26.3019 27.274C26.6851 27.6186 27.32 27.9526 27.8037 28.0641C27.9943 28.108 29.6069 28.1351 32.0889 28.1362L36.0684 28.1378L36.6807 28.4449C38.0242 29.1185 39.4041 29.4488 40.8937 29.4534C42.7178 29.4589 44.1793 29.0394 45.8592 28.0278L46.2442 27.796H49.1237H52.0031V22.3951C52.0031 19.4247 51.9801 16.9969 51.9519 17C51.9236 17.0031 50.5777 17.2945 48.9609 17.6474ZM39.65 19.6585C40.8228 19.9581 42.0901 20.2554 42.4662 20.319C43.3034 20.4607 45.2328 20.479 46.0212 20.3526C46.5991 20.2599 49.688 19.6105 49.8545 19.5466C49.9383 19.5145 49.9522 19.9523 49.9522 22.6271V25.745H47.7622H45.5721L45.073 26.0852C43.1589 27.3896 41.0838 27.7475 38.9557 27.1404C38.3607 26.9706 37.2488 26.4759 36.8934 26.2229C36.7076 26.0906 36.5858 26.0869 32.4679 26.0869H28.2335L27.9321 25.9277C27.335 25.6123 27.0485 24.7699 27.3441 24.1983C27.497 23.9027 27.8882 23.5777 28.193 23.4931C28.3565 23.4477 29.6486 23.4212 31.7157 23.421L34.9801 23.4206V22.3951V21.3697L31.6473 21.3708C27.9551 21.3722 27.7211 21.3932 26.9629 21.7924C26.0135 22.2924 25.3447 23.2643 25.2038 24.3487L25.1334 24.8905L23.3748 26.6274C22.2434 27.7448 21.5184 28.4086 21.342 28.4888C20.9791 28.6537 20.3346 28.653 19.9701 28.4875C19.4352 28.2445 19.0498 27.6209 19.0519 27.0019C19.0538 26.4249 19.1984 26.2535 22.7677 22.6016L26.1767 19.1136H31.8471H37.5175L39.65 19.6585ZM47.3201 38.4519C46.5135 38.6837 46.2379 38.892 44.6046 40.5041L43.0514 42.0372L42.7544 41.7635C42.3441 41.3853 41.8803 41.1265 41.348 40.9789C40.9344 40.8643 40.5639 40.8538 36.9158 40.8538H32.9348L32.3224 40.5468C29.4144 39.0888 26.1609 39.1904 23.3789 40.8261L22.7503 41.1957H19.8752H17V46.5978V52L17.1538 51.9644C19.1139 51.5117 23.17 50.6866 23.734 50.6259C24.5064 50.5427 25.5572 50.5754 26.2793 50.7051C26.4962 50.7441 27.7104 51.0354 28.9775 51.3525L31.2813 51.929L37.489 51.9276L43.6967 51.9262L47.4977 48.0344C51.6468 43.7862 51.6607 43.7695 51.9067 42.7261C52.3446 40.8684 51.1541 38.912 49.2904 38.4265C48.7723 38.2916 47.8361 38.3037 47.3201 38.4519ZM49.0331 40.5042C49.3919 40.6672 49.7765 41.12 49.8849 41.5071C49.9853 41.8656 49.9374 42.3285 49.7653 42.6627C49.6989 42.7918 48.1105 44.4681 46.2355 46.3878L42.8264 49.8781H37.1706H31.5147L29.3677 49.3335C26.3012 48.5558 25.2709 48.4194 23.6315 48.5745C22.9551 48.6385 19.7353 49.263 19.1706 49.4396C19.0579 49.4749 19.051 49.2974 19.051 46.3618V43.2466H21.2476H23.4442L23.76 43.0213C26.0993 41.3521 28.7349 41.1086 31.2788 42.3263C31.6307 42.4948 32.0047 42.6939 32.1097 42.7687C32.2956 42.901 32.4173 42.9048 36.5352 42.9048H40.7697L41.071 43.0639C41.6682 43.3793 41.9546 44.2218 41.659 44.7934C41.5062 45.0889 41.115 45.4139 40.8101 45.4986C40.6467 45.544 39.3545 45.5704 37.2875 45.5706L34.023 45.571V46.5965V47.622L37.3558 47.6208C39.9865 47.6199 40.7861 47.599 41.1515 47.5216C42.5474 47.2258 43.6265 46.0504 43.7972 44.6398L43.8624 44.1012L45.6246 42.3643C46.7551 41.2501 47.4852 40.5828 47.6611 40.5028C48.024 40.338 48.6685 40.3386 49.0331 40.5042Z" fill="#E63946"/>
</svg>
