<svg width="70" height="70" viewBox="0 0 70 70" fill="none" xmlns="http://www.w3.org/2000/svg">
<rect width="70" height="70" fill="#E63946" fill-opacity="0.15"/>
<path fill-rule="evenodd" clip-rule="evenodd" d="M19.1214 22.2008V27.4016H18.0607H17V30.481V33.5604H18.0505H19.1009L19.1422 34.9461C19.2241 37.6976 19.7479 39.8686 20.8964 42.2169C22.6165 45.7337 25.3857 48.5151 28.8642 50.2197C30.1526 50.8511 30.9713 51.1544 32.2899 51.4888C33.7874 51.8686 34.8494 52.0007 36.4003 52C37.6477 51.9994 37.7227 51.9916 38.2479 51.8078C39.8582 51.2441 40.9402 50.1274 41.5072 48.4442L41.6685 47.9652L41.6906 42.0458C41.7135 35.874 41.6935 35.2729 41.4201 33.9367C40.5992 29.9256 37.8505 26.4114 34.1249 24.6096L33.4919 24.3035V20.6518V17H30.4125H27.3331V19.74C27.3331 22.351 27.3266 22.4926 27.1954 22.75C26.9869 23.1585 26.6611 23.2957 25.8988 23.2957H25.2802V20.1478V17H22.2008H19.1214V22.2008ZM23.2272 24.2537V29.4545H23.9829C25.2334 29.4545 26.2272 29.7317 27.0949 30.3225C27.9162 30.8817 28.6155 31.7333 28.9955 32.6367C29.3221 33.4132 29.3861 33.9452 29.3861 35.8842V37.6662H30.4192H31.4522L31.422 35.562C31.3943 33.6423 31.378 33.4069 31.2355 32.8778C30.879 31.5541 30.2177 30.4003 29.2922 29.4876C28.338 28.5466 27.2044 27.9138 25.9132 27.6015L25.2802 27.4484V26.3985V25.3486H25.9269C27.0452 25.3486 27.7382 25.114 28.3974 24.512C28.8022 24.1423 29.1952 23.4477 29.3101 22.8988C29.3542 22.6881 29.3861 21.8069 29.3861 20.7946V19.0529H30.4125H31.439V22.3955V25.7382L32.1404 25.9972C36.2526 27.5158 39.0358 31.0364 39.5787 35.4062C39.6239 35.7701 39.6508 38.1035 39.6508 41.6704C39.6508 47.8661 39.6566 47.764 39.2586 48.4951C38.9944 48.9806 38.3085 49.5957 37.8248 49.7809C36.8523 50.1532 34.3865 49.9683 32.2795 49.365C28.7854 48.3645 25.6616 46.0397 23.6401 42.9355C23.1269 42.1474 22.3573 40.5931 22.0645 39.7534C21.5104 38.164 21.2527 36.7193 21.1949 34.8777L21.1535 33.5604H22.809C24.3331 33.5604 24.4859 33.5713 24.7345 33.6981C24.9084 33.7868 25.0537 33.9322 25.1424 34.106C25.2692 34.3545 25.2802 34.5075 25.2802 36.0212V37.6662H26.3067H27.3331V35.993C27.3331 35.0254 27.301 34.1669 27.2568 33.9572C27.0096 32.7821 26.0585 31.8309 24.8834 31.5837C24.6516 31.5349 23.5342 31.5074 21.7868 31.5074H19.0529V30.481V29.4545H20.1136H21.1743V24.2537V19.0529H22.2008H23.2272V24.2537ZM49.5306 26.7857C49.0876 27.3879 48.695 27.8806 48.6581 27.8806C48.6212 27.8806 48.0235 27.6159 47.3298 27.2925C46.6361 26.9692 46.0448 26.7305 46.0158 26.7622C45.8875 26.9023 43.4694 30.2314 43.4397 30.3088C43.4137 30.3765 44.502 31.2469 44.9605 31.5252C45.0046 31.552 45.3687 31.1106 45.8501 30.4466C46.2982 29.8284 46.6977 29.3215 46.7376 29.3202C46.7775 29.3187 47.3744 29.5819 48.064 29.9049C49.1009 30.3907 49.3327 30.4764 49.4049 30.401C49.4529 30.3509 50.0651 29.529 50.7654 28.5746L52.0385 26.8393L51.2678 26.2679C50.8439 25.9537 50.4608 25.6952 50.4166 25.6936C50.3722 25.6921 49.9735 26.1835 49.5306 26.7857ZM48.3291 36.6965C46.6851 37.2487 45.3193 37.7216 45.294 37.7475C45.2464 37.796 45.7845 39.5021 45.8805 39.6071C45.9191 39.6494 51.8944 37.73 52.0181 37.6357C52.0476 37.6131 51.3895 35.6818 51.354 35.6871C51.3344 35.6901 49.9732 36.1443 48.3291 36.6965ZM44.2084 44.3462C43.7254 44.7011 43.4193 44.9707 43.4395 45.0234C43.4683 45.0984 45.8736 48.4078 46.017 48.5697C46.0448 48.6012 46.656 48.3502 47.3752 48.0121L48.6829 47.3972L49.5099 48.5195C49.9649 49.1367 50.3703 49.6417 50.4111 49.6417C50.4518 49.6417 50.8331 49.3804 51.2584 49.0609L52.0316 48.4802L50.7627 46.7514C50.0648 45.8005 49.4541 44.9815 49.4057 44.9315C49.3327 44.8559 49.1023 44.9411 48.064 45.4276C47.3744 45.7506 46.7775 46.0132 46.7376 46.0112C46.6977 46.0091 46.2968 45.501 45.8469 44.882C45.3969 44.2631 45.0247 43.7566 45.0199 43.7566C45.0149 43.7566 44.6498 44.0219 44.2084 44.3462Z" fill="#E63946"/>
</svg>
