<svg width="70" height="70" viewBox="0 0 70 70" fill="none" xmlns="http://www.w3.org/2000/svg">
<rect width="70" height="70" fill="#E63946" fill-opacity="0.15"/>
<path fill-rule="evenodd" clip-rule="evenodd" d="M23.223 17.1061C21.7355 17.4665 20.4648 18.7348 20.1183 20.2048C20.0154 20.6415 20.0003 22.4696 20.0003 34.4975C20.0003 49.6948 19.9713 48.7862 20.4862 49.767C20.8543 50.4683 21.6277 51.2128 22.3422 51.5536C22.6645 51.7074 23.1369 51.871 23.392 51.9172C23.709 51.9747 27.3913 52.0009 35.0351 52C44.3295 51.9988 46.3018 51.9801 46.732 51.8889C48.3178 51.5528 49.6533 50.1615 49.9245 48.5631C49.9851 48.2058 50.0039 44.996 49.988 37.7404C49.966 27.7401 49.9607 27.4128 49.813 27.0037C49.7291 26.7717 49.5357 26.3787 49.3832 26.1304C49.1025 25.6738 42.7389 18.6192 42.0444 17.9948C41.8374 17.8087 41.4717 17.5603 41.2317 17.4428C40.2954 16.9842 40.5395 16.9956 31.7192 17.0016C25.4747 17.0058 23.5385 17.0296 23.223 17.1061ZM39.7063 18.6844L39.9964 18.7324L40.0189 22.3367L40.0413 25.941L40.2275 26.3528C40.4576 26.862 41.1073 27.4742 41.6209 27.6658C41.9273 27.7801 42.3127 27.8111 43.7524 27.8371C45.7487 27.8732 46.0197 27.8304 46.257 27.441C46.4415 27.1385 46.4497 26.9089 46.2875 26.5952C46.0754 26.185 45.8245 26.1364 43.9224 26.1364C42.3147 26.1364 42.199 26.1267 42.0073 25.9759C41.6625 25.7047 41.6342 25.4313 41.6591 22.62L41.6823 20.0022L44.7298 23.3437C47.0828 25.9238 47.8397 26.8035 48.0509 27.2039L48.3244 27.7225V38.0451V48.3677L48.1211 48.8011C47.831 49.4196 47.4879 49.7729 46.8932 50.0657L46.3741 50.3213H35.0028H23.6315L23.1924 50.1153C22.5739 49.8254 22.1682 49.4291 21.904 48.857L21.678 48.3677V34.4975V20.6274L21.8971 20.1585C22.0176 19.9006 22.2286 19.5722 22.366 19.4287C22.6474 19.1347 23.2122 18.8229 23.6508 18.7196C23.9783 18.6424 39.2497 18.609 39.7063 18.6844ZM25.546 22.05C24.9123 22.2817 24.8418 23.276 25.4398 23.5485C25.575 23.6101 27.1867 23.6358 30.9084 23.6358H36.1853L36.4138 23.4074C36.7909 23.0302 36.6808 22.3006 36.2146 22.0882C36.0619 22.0186 34.6923 21.9964 30.8365 22.001C27.9912 22.0044 25.6105 22.0265 25.546 22.05ZM25.4925 26.2508C25.2321 26.364 24.999 26.716 24.999 26.9959C24.999 27.284 25.2348 27.6296 25.5096 27.7444C25.8997 27.9074 31.6 27.9074 31.9901 27.7444C32.2649 27.6296 32.5006 27.284 32.5006 26.9959C32.5006 26.7078 32.2649 26.3623 31.9901 26.2474C31.606 26.087 25.8623 26.0899 25.4925 26.2508ZM33.8586 26.2486C33.5372 26.3885 33.3602 26.6539 33.3602 26.9959C33.3602 27.64 33.7715 27.8555 35.0012 27.8555C36.2308 27.8555 36.6422 27.64 36.6422 26.9959C36.6422 26.6471 36.4626 26.3857 36.1265 26.2453C35.7775 26.0995 34.196 26.1018 33.8586 26.2486ZM29.3565 31.2141C28.431 31.3801 27.5986 31.8221 26.9811 32.4755C26.5349 32.9477 26.2827 33.3787 26.0539 34.0606C25.5866 35.4527 25.9536 37.1076 26.9649 38.1679L27.3551 38.577L27.1734 38.6977C27.0735 38.7642 26.7427 39.0684 26.4385 39.3737C26.0269 39.7867 25.8015 40.0988 25.558 40.5928C25.0879 41.5463 25.002 42.0622 25.0004 43.9407C24.999 45.6649 25.0426 45.8723 25.4454 46.0559C25.705 46.1742 34.2952 46.1742 34.5548 46.0559C34.9577 45.8723 35.0013 45.6649 34.9999 43.9407C34.9982 42.0622 34.9123 41.5463 34.4422 40.5928C34.1987 40.0988 33.9733 39.7867 33.5617 39.3737C33.2575 39.0684 32.923 38.7616 32.8184 38.6919L32.6283 38.5652L32.9594 38.231C33.7284 37.4547 34.0733 36.638 34.124 35.4734C34.154 34.7834 34.134 34.6194 33.9545 34.0849C33.6136 33.0695 33.103 32.4007 32.2328 31.8298C31.4446 31.3126 30.242 31.0552 29.3565 31.2141ZM38.0487 32.0509C37.4141 32.2899 37.3442 33.2781 37.9425 33.5506C38.21 33.6725 44.2951 33.6725 44.5625 33.5506C45.0356 33.3351 45.124 32.6018 44.7224 32.2244L44.5221 32.0361L41.344 32.0214C39.5961 32.0133 38.1132 32.0266 38.0487 32.0509ZM31.0781 33.0809C31.5885 33.3442 32.0038 33.7607 32.2443 34.2505C32.4274 34.6233 32.4614 34.7912 32.4604 35.318C32.4586 36.2996 32.0416 37.0175 31.1761 37.529C30.8854 37.7008 30.711 37.7397 30.1133 37.7658C29.2526 37.8035 28.885 37.6727 28.2919 37.1179C27.1277 36.029 27.2887 34.1657 28.6247 33.2667C29.1377 32.9214 29.3867 32.8577 30.1173 32.8847C30.576 32.9016 30.8318 32.9538 31.0781 33.0809ZM37.9952 36.2529C37.7348 36.3661 37.5017 36.7182 37.5017 36.9981C37.5017 37.2862 37.7375 37.6317 38.0123 37.7466C38.4024 37.9096 44.1027 37.9096 44.4928 37.7466C44.7676 37.6317 45.0033 37.2862 45.0033 36.9981C45.0033 36.71 44.7676 36.3644 44.4928 36.2495C44.1087 36.0891 38.365 36.092 37.9952 36.2529ZM31.1991 39.7338C32.0556 40.0569 32.8184 40.8448 33.1423 41.7414C33.2711 42.0978 33.3139 42.4406 33.3429 43.3471L33.3796 44.4997H30.0098H26.64V43.6154C26.64 42.041 26.8918 41.2688 27.6541 40.5047C28.1317 40.0261 28.5261 39.7928 29.1602 39.6143C29.71 39.4595 30.6116 39.5123 31.1991 39.7338ZM37.9197 40.4501C37.4672 40.6691 37.3911 41.4039 37.7827 41.7718L37.9832 41.9601H41.2525H44.5219L44.7223 41.7718C45.124 41.3944 45.0356 40.6611 44.5625 40.4455C44.3069 40.329 38.1611 40.3333 37.9197 40.4501ZM38.0487 44.5536C37.4141 44.7926 37.3442 45.7807 37.9425 46.0533C38.21 46.1752 44.2951 46.1752 44.5625 46.0533C45.0356 45.8378 45.124 45.1045 44.7224 44.7271L44.5221 44.5388L41.344 44.5241C39.5961 44.516 38.1132 44.5293 38.0487 44.5536Z" fill="#E63946"/>
</svg>
