<svg xmlns="http://www.w3.org/2000/svg" width="38" height="45" viewBox="0 0 38 45" fill="none"><path fill-rule="evenodd" clip-rule="evenodd" d="M5.52018 0.0770712C5.10007 0.204891 4.75423 0.427124 4.46783 0.753266C3.93158 1.36406 3.91963 1.44133 3.89783 4.43436C3.87796 7.17219 3.81642 7.92443 3.44729 9.94115L3.30822 10.7008L2.83369 11.0276C1.86221 11.6967 0.924395 12.8871 0.463577 14.0359C0.00548357 15.178 -0.0886667 16.1521 0.0744922 18.0602C0.394744 21.8051 1.39356 25.2937 3.34637 29.4884C3.66153 30.1653 4.14397 31.2334 4.41851 31.8619C5.64449 34.6685 7.42306 37.365 9.41991 39.4445C12.5456 42.6995 16.0431 44.4841 20.1575 44.9232C23.4732 45.277 25.9741 44.4186 28.2452 42.1471C31.8627 38.5288 34.0987 31.7565 34.4418 23.3787C34.552 20.6884 34.5512 16.1746 34.4404 15.1224C34.3409 14.1778 33.9887 13.0682 33.5518 12.3232C33.1709 11.6737 31.8187 10.3214 31.1691 9.94053C30.4153 9.49844 29.2516 9.12658 28.4504 9.07164C28.0716 9.04571 27.7617 8.99402 27.7617 8.95683C27.7617 8.86778 28.9995 8.39764 29.9513 8.1253C31.1571 7.78017 32.7075 7.55345 34.223 7.50053C34.9966 7.47355 35.7557 7.41315 35.9098 7.36638C36.6016 7.15646 37.2748 6.13865 37.445 5.04524C37.6818 3.5245 36.8684 1.87762 35.7271 1.56704C34.806 1.31641 29.8023 2.17941 26.199 3.21041L24.8562 3.59466L24.4478 3.28284C23.5347 2.5859 21.1357 1.58875 19.3777 1.1754C18.7401 1.02552 18.6689 0.985961 18.4707 0.672126C18.3303 0.449629 18.1188 0.27091 17.8606 0.156717C17.5014 -0.00222262 17.3079 -0.0154969 15.7347 0.0104363C14.0236 0.0385671 13.9979 0.0418197 13.4765 0.297634C12.7481 0.654984 11.7393 1.68167 11.1706 2.64445C10.7117 3.42139 10.182 4.54776 10.1772 4.75681C10.1753 4.84094 10.152 4.83549 10.0946 4.7373C10.0507 4.66222 9.95106 3.93214 9.87343 3.11494C9.75071 1.82373 9.70113 1.57152 9.49454 1.18885C9.22625 0.691818 8.66521 0.222297 8.17776 0.086917C7.80432 -0.0168155 5.85248 -0.024024 5.52018 0.0770712ZM7.96009 1.62453C8.19982 1.79244 8.30101 2.18451 8.37195 3.22034C8.51946 5.37525 9.10704 7.89595 9.78658 9.28878C10.0513 9.83126 10.2678 10.2923 10.2678 10.3134C10.2678 10.3344 10.0979 10.451 9.89049 10.5726C9.3044 10.9161 8.34048 11.8569 7.78885 12.6239C5.90584 15.242 4.5996 19.5868 4.03312 25.1165C3.94204 26.0046 3.84877 26.7502 3.82574 26.7732C3.74979 26.8492 2.73488 23.9729 2.41076 22.7634C1.99442 21.2092 1.68243 19.3313 1.554 17.6062C1.46345 16.3896 1.46846 16.1255 1.59373 15.5109C1.97297 13.6501 3.33881 12.1055 5.13286 11.5085C5.8516 11.2693 6.00676 11.0857 5.97037 10.5181C5.9534 10.2531 5.55754 9.92866 5.25118 9.92866C4.98077 9.92866 4.97515 9.92066 5.03238 9.6158C5.27861 8.30314 5.36494 7.10943 5.39412 4.61018L5.42603 1.885L5.65407 1.68721C5.86004 1.50858 5.97344 1.48941 6.82466 1.48941C7.53022 1.48941 7.81575 1.52335 7.96009 1.62453ZM16.8473 1.90698C14.7053 4.20466 14.1534 8.05471 15.4075 11.9506C15.8387 13.2901 15.9709 13.4802 16.4712 13.4802C16.8465 13.4802 17.2126 13.1566 17.2126 12.8248C17.2126 12.6939 17.1137 12.3241 16.9928 12.0029L16.773 11.4189L17.0758 10.8176C17.6089 9.759 18.4887 8.77293 19.7035 7.87256C20.194 7.50897 20.3767 7.1605 20.3767 6.58813C20.3767 5.99677 20.1858 5.65155 19.6587 5.2898C19.157 4.94546 17.9675 4.35129 17.4983 4.21081C17.2928 4.14919 17.1247 4.06989 17.1247 4.03455C17.1247 3.93056 17.8698 2.96057 18.1457 2.70537L18.3994 2.47083L19.2345 2.68849C21.0895 3.17217 22.5122 3.77918 23.7048 4.59594C24.5956 5.20603 24.761 5.21851 26.1793 4.78204C28.3249 4.12185 30.2887 3.69083 32.9331 3.29963C33.1312 3.27036 33.1356 3.28337 33.0736 3.72001C32.9794 4.38443 33.0186 5.21605 33.1641 5.63836C33.2345 5.84266 33.284 6.01461 33.2741 6.02032C33.2641 6.02613 32.8513 6.07667 32.3567 6.13258C27.9572 6.62997 24.4551 8.50507 22.511 11.4043C21.8246 12.4278 20.9927 14.4419 20.9927 15.0799C20.9927 15.3988 21.3617 15.7306 21.7163 15.7306C22.1885 15.7306 22.3547 15.5432 22.6105 14.7226C22.7392 14.31 22.8762 13.9725 22.9151 13.9725C23.033 13.9725 24.1008 15.1221 24.5482 15.7306C24.7793 16.0449 25.2847 16.935 25.6716 17.7086C26.0584 18.4822 26.5475 19.3581 26.7583 19.6551C27.8661 21.2154 29.6208 22.1321 32.0274 22.4078C32.4614 22.4575 32.8523 22.4985 32.8961 22.4989C33.0028 22.4999 32.8984 25.0389 32.7297 26.5434C31.8783 34.1416 29.3455 39.8677 25.7898 42.2337C24.5822 43.0372 23.5159 43.3967 22.0915 43.4806C20.6635 43.5647 18.5984 43.2702 17.0646 42.7638C16.0708 42.4357 14.2189 41.5017 13.2846 40.8576C10.1968 38.7288 7.44073 35.1646 5.66181 30.9996C5.27254 30.0884 5.25698 30.0187 5.25698 29.1896C5.25698 27.5782 5.55667 24.4964 5.92456 22.3238C6.53131 18.7407 7.56697 15.6542 8.78565 13.7967C9.24796 13.0919 10.1653 12.1564 10.7509 11.7924L11.19 11.5195L11.4239 11.7435C11.7606 12.0661 12.2434 12.0661 12.5207 11.7436C12.8208 11.3948 12.7881 11.0702 12.4077 10.6183C11.9519 10.0769 11.3565 9.14135 11.0473 8.48081L10.783 7.91599L11.0483 6.92245C11.652 4.66196 12.5407 2.92804 13.5413 2.05854C14.1465 1.53258 14.2923 1.49671 15.8401 1.49284L17.2367 1.48941L16.8473 1.90698ZM35.4152 3.07468C35.7235 3.23968 35.9541 3.83544 35.955 4.46944C35.9555 4.78863 35.9095 5.1684 35.8528 5.31345C35.7202 5.65251 35.4196 5.97277 35.2339 5.97277C35.0608 5.97277 34.7806 5.67247 34.6353 5.3313C34.368 4.70336 34.6082 3.32733 35.0278 3.08347C35.2302 2.96584 35.2125 2.9662 35.4152 3.07468ZM17.7696 5.9587C18.1643 6.14507 18.5805 6.37469 18.6945 6.46884L18.9018 6.64017L18.5535 6.87067C18.0446 7.20745 17.2035 8.00821 16.7742 8.56458C16.5684 8.8313 16.3607 9.04958 16.3125 9.04958C16.192 9.04958 16.2834 6.29179 16.4184 5.85321C16.5157 5.53762 16.5414 5.51766 16.7874 5.56689C16.9329 5.59599 17.3749 5.77225 17.7696 5.9587ZM29.0161 10.682C29.9874 10.9337 30.6498 11.321 31.4106 12.0817C31.9138 12.5848 32.1963 12.9553 32.401 13.3801C32.9238 14.4654 32.9483 14.6716 32.9483 17.9971V21.0178L32.4428 20.9618C30.6772 20.7663 29.5329 20.3401 28.6556 19.5513C28.0405 18.9983 27.7946 18.6238 27.0077 17.0415C26.1179 15.2522 25.6262 14.5407 24.528 13.4536L23.6044 12.5392L23.7709 12.2292C23.8626 12.0586 24.2285 11.6097 24.5841 11.2316L25.2306 10.544H26.8571C28.0503 10.544 28.6254 10.5808 29.0161 10.682ZM29.7294 28.6035C29.4158 28.74 29.2765 29.054 29.198 29.8012C29.1488 30.2698 29.1582 30.2994 29.4279 30.5264C30.008 31.0146 30.5298 30.7093 30.7045 29.7795C30.841 29.0532 30.7327 28.7255 30.3071 28.5771C30.1498 28.5223 30.0171 28.479 30.0122 28.4809C30.0073 28.4828 29.8801 28.538 29.7294 28.6035ZM28.7607 32.3604C28.5382 32.4681 28.4558 32.6352 28.0534 33.7959C27.6636 34.9203 26.8477 36.5947 26.268 37.46C25.0215 39.3205 23.5755 40.3462 21.9907 40.4942C21.5021 40.5398 21.3957 40.5829 21.2015 40.8137C20.924 41.1434 20.9671 41.5202 21.3174 41.8281C21.5363 42.0205 21.6035 42.0321 22.1914 41.9788C23.688 41.8432 24.8033 41.2843 26.0595 40.0406C27.4987 38.6158 28.6665 36.6159 29.5292 34.0992C29.8722 33.0984 29.897 32.9708 29.7955 32.726C29.6262 32.3171 29.1773 32.1585 28.7607 32.3604Z" fill="#E63946"></path></svg>