<svg width="34" height="34" viewBox="0 0 30 30" fill="none" xmlns="http://www.w3.org/2000/svg">
<path d="M22.0031 9.51437C22.0128 9.57648 22.0349 9.63601 22.068 9.68942C22.1011 9.74283 22.1447 9.78904 22.196 9.82528C22.2474 9.86153 22.3055 9.88708 22.3669 9.90041C22.4283 9.91374 22.4918 9.91458 22.5536 9.90288C22.6153 9.89119 22.6741 9.86719 22.7264 9.83232C22.7787 9.79745 22.8234 9.75242 22.858 9.6999C22.8925 9.64739 22.9161 9.58847 22.9274 9.52664C22.9387 9.46481 22.9375 9.40134 22.9238 9.34C22.7796 8.49244 22.4156 7.69753 21.8681 7.03466C21.3207 6.37179 20.6088 5.86417 19.8038 5.5625C19.4947 5.44058 19.1761 5.34422 18.8513 5.27437C18.7892 5.25527 18.7237 5.24929 18.6592 5.2568C18.5947 5.26432 18.5324 5.28518 18.4763 5.31804C18.4203 5.35091 18.3717 5.39507 18.3336 5.44773C18.2955 5.50038 18.2688 5.56038 18.2552 5.62391C18.2415 5.68744 18.2412 5.75311 18.2543 5.81676C18.2674 5.88041 18.2935 5.94065 18.3311 5.99364C18.3687 6.04664 18.4169 6.09124 18.4727 6.12461C18.5285 6.15798 18.5905 6.1794 18.655 6.1875C18.93 6.24644 19.1997 6.32797 19.4613 6.43125C20.1177 6.6777 20.698 7.09218 21.1441 7.63323C21.5902 8.17427 21.8864 8.82294 22.0031 9.51437ZM21.0856 14.9487C21.0299 14.9223 20.9694 14.9071 20.9077 14.9041C20.8461 14.9011 20.7844 14.9103 20.7263 14.9312C20.6682 14.9521 20.6148 14.9843 20.5692 15.0259C20.5236 15.0676 20.4867 15.1178 20.4606 15.1737C19.5171 17.1563 19.0631 19.3363 19.1369 21.5306C19.1425 24.0306 18.7163 25.7256 17.8706 26.5731C17.6494 26.7922 17.3853 26.9632 17.095 27.0756C16.8046 27.188 16.4942 27.2393 16.1831 27.2263C14.0956 27.2263 13.8231 24.895 13.5513 21.0919L13.5325 20.8325C13.5067 20.0862 13.2764 19.3613 12.8669 18.7369C12.714 18.5206 12.5115 18.3441 12.2763 18.2224C12.0411 18.1006 11.7802 18.037 11.5153 18.037C11.2505 18.037 10.9895 18.1006 10.7543 18.2224C10.5191 18.3441 10.3166 18.5206 10.1638 18.7369C9.75495 19.3615 9.52537 20.0864 9.50001 20.8325L9.48188 21.09C9.20876 24.9081 8.89626 27.2263 6.85001 27.2263C6.53895 27.2392 6.22857 27.1878 5.93823 27.0755C5.64789 26.9631 5.38382 26.7921 5.16251 26.5731C4.31251 25.7256 3.88438 24.0288 3.89001 21.5306C3.98051 18.868 3.29966 16.236 1.92938 13.9513C1.45298 13.2013 1.14181 12.3585 1.01658 11.4789C0.891355 10.5993 0.954951 9.7031 1.20313 8.85C1.39426 8.29745 1.70541 7.79409 2.11421 7.3761C2.52302 6.95811 3.01934 6.63585 3.56751 6.4325C5.41813 5.705 7.12001 6.22 8.76563 6.71812C9.65066 7.03625 10.5768 7.22568 11.5156 7.28062C12.0224 7.27104 12.5261 7.19968 13.0156 7.06812C13.1332 7.03558 13.2334 6.9585 13.295 6.85325C13.3567 6.74801 13.3748 6.62289 13.3457 6.50446C13.3166 6.38602 13.2425 6.2836 13.1391 6.21894C13.0357 6.15427 12.9111 6.13246 12.7919 6.15812C12.3748 6.27201 11.9454 6.33497 11.5131 6.34562C10.6672 6.28567 9.83364 6.10878 9.03626 5.82C7.32126 5.30125 5.37501 4.71375 3.22438 5.5625C2.55029 5.81334 1.94013 6.21038 1.43773 6.72509C0.935343 7.2398 0.553198 7.8594 0.31876 8.53938C0.0256125 9.51892 -0.0549426 10.5498 0.0824848 11.563C0.219912 12.5762 0.572152 13.5483 1.11563 14.4144C2.40937 16.5556 3.04792 19.0288 2.95251 21.5288C2.94626 24.3237 3.45251 26.1906 4.49313 27.2356C4.80176 27.5422 5.16966 27.7827 5.57437 27.9422C5.97907 28.1018 6.41206 28.1772 6.84688 28.1638C9.91376 28.1638 10.1594 24.76 10.4138 21.1569L10.4319 20.8994C10.4473 20.3247 10.6184 19.765 10.9269 19.28C10.9957 19.1895 11.0845 19.1161 11.1863 19.0655C11.2882 19.015 11.4004 18.9887 11.5141 18.9887C11.6278 18.9887 11.7399 19.015 11.8418 19.0655C11.9437 19.1161 12.0325 19.1895 12.1013 19.28C12.4102 19.7648 12.5814 20.3246 12.5963 20.8994L12.615 21.1587C12.8725 24.7613 13.115 28.1638 16.1819 28.1638C16.6166 28.1771 17.0495 28.1018 17.4541 27.9422C17.8587 27.7826 18.2265 27.5422 18.535 27.2356C19.5781 26.1906 20.0819 24.3237 20.0756 21.5288C19.9988 19.4726 20.4226 17.4286 21.3106 15.5725C21.3368 15.5168 21.3518 15.4564 21.3547 15.3949C21.3575 15.3334 21.3483 15.2719 21.3274 15.214C21.3065 15.1561 21.2744 15.1028 21.2329 15.0573C21.1914 15.0118 21.1414 14.9749 21.0856 14.9487Z" fill="#6E7990"/>
<path d="M29.7156 19.8225L24.93 12.0263C25.8964 10.896 26.4274 9.45793 26.4274 7.97093C26.4275 6.48392 25.8965 5.04577 24.9303 3.91551C23.964 2.78524 22.6259 2.03715 21.157 1.80598C19.6881 1.5748 18.1849 1.87574 16.9181 2.65459C15.6514 3.43343 14.7044 4.639 14.2478 6.05414C13.7911 7.46928 13.8547 9.00098 14.4272 10.3734C14.9997 11.7457 16.0434 12.8686 17.3704 13.5397C18.6973 14.2108 20.2203 14.386 21.665 14.0338L26.4506 21.8294C26.7184 22.2598 27.1451 22.5674 27.6381 22.6853C28.1312 22.8032 28.6508 22.7221 29.0844 22.4594C29.5176 22.1932 29.8274 21.766 29.9458 21.2716C30.0641 20.7771 29.9814 20.2559 29.7156 19.8225ZM14.9706 8.02375C14.97 7.16147 15.1818 6.3123 15.5872 5.55129C15.9927 4.79028 16.5793 4.14084 17.2953 3.66038C18.0114 3.17992 18.8347 2.88322 19.6926 2.79649C20.5505 2.70977 21.4166 2.83569 22.2143 3.16314C23.012 3.49058 23.7167 4.00947 24.2663 4.67395C24.8158 5.33842 25.1933 6.12803 25.3652 6.97299C25.5371 7.81796 25.4983 8.69227 25.2521 9.51867C25.006 10.3451 24.5601 11.0981 23.9538 11.7112C23.8246 11.8417 23.6919 11.9637 23.5556 12.0775C23.4725 12.1456 23.3844 12.2075 23.2975 12.2706C23.23 12.32 23.1625 12.3694 23.0938 12.4144C23.0031 12.4769 22.9063 12.53 22.8144 12.5844C22.7225 12.6388 22.6419 12.6781 22.555 12.7213C22.4681 12.7644 22.3763 12.8125 22.2831 12.8525C22.1116 12.928 21.9354 12.9925 21.7556 13.0456C20.9708 13.2855 20.1407 13.338 19.3319 13.199C18.5231 13.06 17.7582 12.7333 17.0985 12.2451C16.4388 11.757 15.9027 11.121 15.5333 10.3882C15.1639 9.65546 14.9714 8.84627 14.9713 8.02562L14.9706 8.02375ZM28.5956 21.6594C28.3741 21.7934 28.1086 21.8347 27.8568 21.7745C27.605 21.7142 27.387 21.5573 27.25 21.3375L22.5875 13.7444C22.7844 13.6614 22.9767 13.5682 23.1638 13.465L23.1719 13.4606C23.2669 13.4088 23.3594 13.3587 23.4569 13.3012C23.7382 13.1288 24.0047 12.9333 24.2538 12.7169L28.9181 20.3125C29.0536 20.534 29.0956 20.8002 29.035 21.0527C28.9745 21.3052 28.8168 21.5234 28.5956 21.6594Z" fill="#6E7990"/>
<path d="M24.7306 8.02375C24.7306 7.13161 24.4661 6.2595 23.9704 5.51772C23.4748 4.77593 22.7702 4.1978 21.946 3.85642C21.1218 3.51504 20.2148 3.42575 19.3398 3.59984C18.4648 3.77394 17.6611 4.20359 17.0303 4.83448C16.3995 5.46536 15.97 6.26914 15.796 7.14415C15.622 8.01917 15.7114 8.92613 16.0529 9.75032C16.3944 10.5745 16.9726 11.2789 17.7145 11.7745C18.4563 12.2701 19.3285 12.5345 20.2206 12.5344C21.4165 12.5331 22.5629 12.0574 23.4084 11.2117C24.254 10.3661 24.7295 9.21958 24.7306 8.02375ZM16.6475 8.02375C16.6475 7.31705 16.8571 6.62623 17.2497 6.03863C17.6423 5.45103 18.2004 4.99305 18.8533 4.72261C19.5062 4.45217 20.2246 4.38141 20.9177 4.51928C21.6108 4.65715 22.2475 4.99746 22.7472 5.49717C23.2469 5.99688 23.5872 6.63355 23.7251 7.32667C23.863 8.01979 23.7922 8.73822 23.5218 9.39113C23.2513 10.044 22.7934 10.6021 22.2058 10.9947C21.6182 11.3873 20.9273 11.5969 20.2206 11.5969C19.2733 11.5957 18.3652 11.2189 17.6953 10.5491C17.0255 9.87921 16.6487 8.97105 16.6475 8.02375Z" fill="#6E7990"/>
</svg>
