<svg width="34" height="34" viewBox="0 0 34 34" fill="none" xmlns="http://www.w3.org/2000/svg">
<path fill-rule="evenodd" clip-rule="evenodd" d="M7.32744 8.49157C6.29328 9.80759 5.66668 11.6056 5.66668 13.4828C5.66668 14.572 5.854 15.6141 6.18377 16.6065H12.3358L14.7356 12.34L16.2352 17.5885L18.0702 15.2292H22.6667V16.6458H18.7631L15.6398 20.6615L14.3061 15.9933L13.1642 18.0231H2.83334V16.6065H4.70042C4.41316 15.6157 4.25001 14.5727 4.25001 13.4828C4.25001 11.3044 4.97338 9.19445 6.21352 7.61629C7.45706 6.03375 9.24808 4.95834 11.3554 4.95834C13.8372 4.95834 15.7244 6.34906 17 8.31144C18.2756 6.34915 20.1628 4.95834 22.6446 4.95834C24.7522 4.95834 26.5432 6.03394 27.7866 7.6165C29.0267 9.19481 29.75 11.3048 29.75 13.4828C29.75 18.1454 26.5316 22.039 23.4866 24.6968C21.9467 26.0408 20.4102 27.1047 19.2602 27.8322C18.6844 28.1964 18.2037 28.4775 17.8654 28.6682C17.6962 28.7637 17.5624 28.8366 17.4701 28.8861C17.4239 28.9109 17.3881 28.9298 17.3633 28.9428L17.3346 28.9577L17.3266 28.9618L17.3243 28.9631L17.3235 28.9635C17.3235 28.9635 17.323 28.9638 17 28.3333C16.6927 28.9715 16.6925 28.9715 16.6925 28.9715L16.6883 28.9694L16.6784 28.9646L16.6427 28.947C16.6119 28.9318 16.5674 28.9095 16.5101 28.8804C16.3957 28.822 16.2303 28.736 16.0222 28.6231C15.6063 28.3974 15.0189 28.0641 14.3266 27.6298C12.9445 26.7628 11.1315 25.486 9.42665 23.8525C8.51722 22.9812 7.63393 22.004 6.86205 20.9285C6.63395 20.6107 6.70668 20.1681 7.02449 19.94C7.34231 19.7119 7.78488 19.7847 8.01296 20.1025C8.72448 21.0938 9.54707 22.0059 10.4067 22.8296C12.021 24.3762 13.7497 25.5956 15.0794 26.4297C15.7431 26.846 16.3042 27.1644 16.6978 27.3779C16.8095 27.4385 16.9076 27.4906 16.9907 27.5341C17.0441 27.5046 17.1039 27.4713 17.1695 27.4342C17.4897 27.2537 17.9497 26.9849 18.5029 26.635C19.6106 25.9342 21.0845 24.913 22.555 23.6294C25.531 21.032 28.3333 17.5003 28.3333 13.4828C28.3333 11.6059 27.7068 9.80787 26.6727 8.49179C25.642 7.18002 24.2345 6.375 22.6446 6.375C20.4468 6.375 18.7421 7.8064 17.6358 10.0596L17 11.3547L16.3642 10.0596C15.2579 7.80626 13.5532 6.375 11.3554 6.375C9.76566 6.375 8.35813 7.17988 7.32744 8.49157ZM17 28.3333L16.6925 28.9715L17.0099 29.1242L17.3235 28.9635L17 28.3333Z" fill="#6E7990"/>
</svg>
