<svg width="34" height="34" viewBox="0 0 34 34" fill="none" xmlns="http://www.w3.org/2000/svg">
<path fill-rule="evenodd" clip-rule="evenodd" d="M24.6351 18.0569C24.4837 18.7308 24.379 19.2789 24.2321 19.6956C24.1419 19.9507 24.0515 20.148 23.8742 20.2557C23.7619 20.324 23.6199 20.3507 23.4409 20.355C23.3002 20.3586 23.1667 20.4177 23.0697 20.5196C22.9726 20.6215 22.92 20.7578 22.9234 20.8984C22.9269 21.0391 22.9861 21.1726 23.088 21.2696C23.1898 21.3667 23.3261 21.4193 23.4667 21.4159C24.313 21.3953 24.7671 21.0499 25.0838 20.407C25.3226 19.9221 25.4633 19.2099 25.6736 18.2752C25.7445 17.9599 25.7548 17.7257 25.7272 17.564C25.686 17.3233 25.5728 17.1649 25.4247 17.0581C25.2863 16.9581 25.0961 16.8938 24.8368 16.918C24.5726 16.9428 24.155 17.0917 23.5691 17.3423C23.4398 17.3977 23.3378 17.5022 23.2855 17.6328C23.2332 17.7634 23.2348 17.9095 23.2901 18.0388C23.3456 18.1682 23.45 18.2702 23.5806 18.3225C23.7112 18.3749 23.8573 18.3732 23.9867 18.318C24.2413 18.209 24.4564 18.1197 24.6351 18.0569ZM7.74651 18.0569C7.92517 18.1197 8.14025 18.209 8.39493 18.318C8.5243 18.3733 8.67033 18.3749 8.80092 18.3226C8.93151 18.2702 9.03597 18.1682 9.09136 18.0388C9.14664 17.9095 9.14831 17.7634 9.096 17.6328C9.04369 17.5022 8.94167 17.3977 8.81235 17.3423C8.22646 17.0917 7.80904 16.9428 7.54468 16.918C7.28541 16.8938 7.09529 16.9581 6.95674 17.0581C6.80865 17.1649 6.69557 17.3233 6.65444 17.564C6.6268 17.7257 6.63699 17.9599 6.70792 18.2752C6.91816 19.2099 7.05887 19.9221 7.29763 20.407C7.61433 21.0499 8.06843 21.3953 8.91474 21.4159C9.0554 21.4193 9.19163 21.3667 9.29352 21.2696C9.3954 21.1726 9.4546 21.0391 9.4581 20.8984C9.46145 20.7578 9.40883 20.6215 9.31179 20.5196C9.21475 20.4177 9.08124 20.3586 8.94059 20.355C8.76154 20.3507 8.61956 20.324 8.50725 20.2557C8.33011 20.148 8.23957 19.9507 8.14954 19.6956C8.00247 19.2789 7.89779 18.7308 7.74651 18.0569Z" fill="#6E7990"/>
<path fill-rule="evenodd" clip-rule="evenodd" d="M23.242 15.577C23.242 15.577 23.1811 17.7327 22.8457 19.9125C22.631 21.3079 22.3142 22.718 21.8043 23.5274C20.2853 25.9389 18.8063 27.1291 16.1956 27.2332C13.5749 27.1305 12.1243 25.9186 10.5737 23.522C10.0514 22.7144 9.72986 21.3612 9.51504 20.0334C9.17937 17.9586 9.1269 15.933 9.1269 15.933C9.1232 15.7924 9.06381 15.6589 8.96178 15.562C8.85976 15.4651 8.72344 15.4127 8.58277 15.4163C8.44213 15.42 8.30871 15.4794 8.21183 15.5814C8.11496 15.6834 8.06256 15.8197 8.06615 15.9604C8.06615 15.9604 8.14052 18.8177 8.66835 21.2795C8.90546 22.3859 9.23934 23.4128 9.68274 24.0984C11.4623 26.8491 13.1621 28.1828 16.171 28.2946C16.1841 28.295 16.1974 28.295 16.2105 28.2946C19.2217 28.1827 20.9548 26.867 22.7022 24.093C23.1332 23.4086 23.4613 22.3495 23.6956 21.1974C24.2167 18.6348 24.3027 15.607 24.3027 15.607C24.3067 15.4664 24.2546 15.3299 24.1579 15.2277C24.0613 15.1254 23.928 15.0657 23.7874 15.0616C23.6468 15.0577 23.5103 15.1098 23.4081 15.2064C23.3058 15.3031 23.2461 15.4363 23.242 15.577Z" fill="#6E7990"/>
<path fill-rule="evenodd" clip-rule="evenodd" d="M12.3052 6.35838C7.6109 7.78015 6.83055 11.7869 7.12471 14.7195C7.20455 15.5147 7.36424 16.2288 7.54341 16.7865C7.57445 16.8827 7.63232 16.968 7.71022 17.0325C7.78811 17.097 7.8828 17.1378 7.98313 17.1503C8.08347 17.1628 8.18528 17.1464 8.27659 17.1029C8.36791 17.0595 8.44493 16.991 8.49859 16.9053C8.98656 16.1244 9.82039 15.6027 10.791 15.1913C12.3927 14.5124 14.3611 14.1464 16.0005 13.6447C16.9851 13.3433 17.8569 12.99 18.4938 12.518C18.7871 12.3006 19.0345 12.0587 19.2277 11.7871C19.2716 11.8581 19.3166 11.9271 19.3629 11.9942C19.4429 12.11 19.5655 12.1893 19.7038 12.2147C19.8422 12.2402 19.985 12.2096 20.1009 12.1299C20.2167 12.0499 20.296 11.9273 20.3214 11.7889C20.3469 11.6505 20.3163 11.5077 20.2365 11.3918C20.0092 11.0622 19.8205 10.6728 19.6859 10.1943C19.6517 10.0726 19.5752 9.96705 19.4702 9.89674C19.3651 9.82642 19.2384 9.79593 19.1129 9.81075C18.9874 9.82557 18.8712 9.88473 18.7854 9.97757C18.6997 10.0704 18.6499 10.1908 18.645 10.3172C18.6219 10.8996 18.3218 11.3245 17.862 11.6654C17.3087 12.0755 16.5451 12.3681 15.6899 12.6299C14.0174 13.1418 12.0109 13.5216 10.3769 14.2143C9.5801 14.552 8.86992 14.9652 8.3086 15.4895C8.25269 15.1996 8.20998 14.9073 8.18062 14.6135C7.91817 11.9979 8.61664 8.37432 13.0313 7.25792C13.0313 7.25792 13.5799 7.13351 13.412 6.60046C13.2516 6.02806 13.5599 5.57231 14.029 5.24326C14.6084 4.83679 15.429 4.61076 16.1907 4.60146C16.9525 4.61076 17.7731 4.83679 18.3525 5.24326C18.8216 5.57231 18.5991 6.02806 18.4388 6.60046C18.394 6.76027 18.9572 6.9318 19.0576 7.06411C19.1312 7.16124 19.236 7.23001 19.3544 7.25881L19.3503 7.25792C20.0245 7.42843 20.6137 7.65561 21.1265 7.92913C21.2507 7.99531 21.396 8.00948 21.5306 7.96853C21.6653 7.92758 21.7781 7.83486 21.8444 7.71074C21.9105 7.58656 21.9247 7.44121 21.8837 7.30662C21.8427 7.17202 21.75 7.0592 21.6259 6.99292C21.1651 6.74703 20.6503 6.5331 20.0763 6.35889C20.101 5.73238 19.8402 5.18468 19.3948 4.7367C18.6626 4.00016 17.3788 3.55307 16.1965 3.54033C16.1927 3.54021 16.1888 3.54021 16.185 3.54033C15.0027 3.55307 13.7189 4.00016 12.9867 4.7367C12.5414 5.18456 12.2806 5.73212 12.3052 6.35838ZM11.9199 17.8867C12.5065 17.5006 13.4534 17.4637 14.0785 17.8837C14.1953 17.9622 14.3385 17.9911 14.4765 17.964C14.6146 17.937 14.7363 17.8562 14.8148 17.7395C14.8932 17.6227 14.9221 17.4795 14.895 17.3414C14.868 17.2033 14.7873 17.0816 14.6705 17.0031C13.7049 16.3541 12.2427 16.4039 11.3365 17.0003C11.223 17.0793 11.1448 17.1996 11.1186 17.3355C11.0925 17.4713 11.1204 17.612 11.1965 17.7276C11.2725 17.8432 11.3907 17.9245 11.5258 17.9542C11.6609 17.9839 11.8023 17.9597 11.9199 17.8867ZM18.2986 17.8867C18.8854 17.5006 19.8322 17.4637 20.4574 17.8837C20.5742 17.9622 20.7174 17.9911 20.8554 17.964C20.9935 17.937 21.1152 17.8562 21.1937 17.7395C21.2721 17.6226 21.301 17.4795 21.2739 17.3414C21.2468 17.2033 21.1661 17.0816 21.0493 17.0031C20.0838 16.3541 18.6216 16.4039 17.7153 17.0003C17.5978 17.0777 17.5158 17.1985 17.4874 17.3363C17.459 17.4741 17.4865 17.6176 17.5637 17.7351C17.6411 17.8526 17.762 17.9346 17.8998 17.963C18.0376 17.9914 18.181 17.964 18.2986 17.8867ZM14.3199 24.9943C15.618 25.6077 16.9353 25.5951 18.083 24.9827C18.2071 24.9164 18.2999 24.8036 18.3408 24.669C18.3818 24.5343 18.3676 24.389 18.3014 24.2648C18.2351 24.1407 18.1222 24.048 17.9876 24.0071C17.853 23.9661 17.7077 23.9803 17.5835 24.0464C16.7263 24.5038 15.7426 24.4929 14.7733 24.0348C14.6461 23.9748 14.5002 23.9677 14.3677 24.0152C14.2353 24.0626 14.127 24.1607 14.0668 24.2878C14.0068 24.4151 13.9997 24.561 14.0472 24.6934C14.0946 24.8259 14.1927 24.9341 14.3199 24.9943Z" fill="#6E7990"/>
<path fill-rule="evenodd" clip-rule="evenodd" d="M23.1908 16.1554C23.1908 16.1554 24.6531 16.2014 26.079 14.3549C27.1715 12.9402 27.3187 10.95 27.3187 7.82128C27.3187 7.68624 27.2672 7.55629 27.1747 7.4579C27.0822 7.3595 26.9557 7.30006 26.8209 7.29167C24.6221 7.15528 23.5885 6.02361 23.5885 6.02361C23.5387 5.96721 23.4774 5.92205 23.4088 5.89112C23.3402 5.86019 23.2659 5.84419 23.1906 5.84419C23.1154 5.84419 23.041 5.86019 22.9724 5.89112C22.9038 5.92205 22.8426 5.96721 22.7927 6.02361C22.7927 6.02361 21.7594 7.15528 19.5607 7.29167C19.4259 7.30006 19.2994 7.3595 19.2069 7.4579C19.1145 7.55629 19.063 7.68624 19.0629 7.82128C19.0629 10.9499 19.21 12.9402 20.3026 14.3549C21.7286 16.2014 23.1908 16.1554 23.1908 16.1554ZM23.1963 15.0942H23.19C23.1879 15.0941 22.1777 15.0468 21.1424 13.7062C20.2185 12.5101 20.1317 10.8403 20.1247 8.30402C21.6761 8.10716 22.6818 7.49032 23.1908 7.08868C23.6995 7.49032 24.7054 8.10716 26.2569 8.30402C26.2499 10.8404 26.1629 12.5101 25.2391 13.7062C24.2484 14.9892 23.2805 15.0876 23.1967 15.0938L23.1963 15.0942Z" fill="#6E7990"/>
<path fill-rule="evenodd" clip-rule="evenodd" d="M21.3226 11.3712L22.398 12.5068C22.4472 12.5588 22.5065 12.6004 22.5723 12.6289C22.6381 12.6574 22.7089 12.6723 22.7806 12.6726C22.8523 12.673 22.9233 12.6588 22.9893 12.631C23.0553 12.6031 23.1151 12.5622 23.1648 12.5106L25.0426 10.5669C25.1403 10.4656 25.1938 10.3297 25.1914 10.189C25.1889 10.0483 25.1308 9.91438 25.0296 9.81657C24.9284 9.71887 24.7925 9.66535 24.6518 9.66779C24.5111 9.67022 24.3771 9.72841 24.2793 9.82956L22.787 11.3743L22.0931 10.6415C21.9963 10.5394 21.8629 10.4799 21.7223 10.476C21.5816 10.4722 21.4452 10.5243 21.343 10.621C21.2409 10.7178 21.1814 10.8512 21.1776 10.9919C21.1737 11.1325 21.2259 11.2689 21.3226 11.3712Z" fill="#6E7990"/>
</svg>
