<?xml version="1.0" encoding="iso-8859-1"?>
<!-- Uploaded to: SVG Repo, www.svgrepo.com, Generator: SVG Repo Mixer Tools -->
<svg fill="#fff" height="128" width="128" version="1.1" id="Layer_1" xmlns="http://www.w3.org/2000/svg" xmlns:xlink="http://www.w3.org/1999/xlink" 
	 viewBox="0 0 512 512" xml:space="preserve">
<g>
	<g>
		<g>
			<path d="M501.333,106.668h-192V95.575c0-30.613-20.16-52.907-48-52.907c-27.84,0-48,22.187-48,52.907v64.427h-95.787
				c-3.627,0-7.04,1.92-9.067,5.013L56,248.428L4.053,289.922c-2.56,2.027-4.053,5.12-4.053,8.32v128.427
				c0,5.867,4.8,10.667,10.667,10.667H60.48c11.52,26.88,42.667,39.253,69.547,27.627c12.373-5.333,22.293-15.253,27.627-27.627
				h207.36c11.52,26.88,42.667,39.253,69.547,27.627c12.373-5.333,22.293-15.253,27.627-27.627h39.147
				c5.867,0,10.667-4.8,10.667-10.667V117.335C512,111.468,507.2,106.668,501.333,106.668z M234.667,95.575
				c0-15.68,8.213-31.573,26.667-31.573c18.453,0,26.667,15.893,26.667,31.573v11.093h-53.333V95.575z M56.107,416.002H21.333v-32
				H67.52C60.267,393.068,56.213,404.375,56.107,416.002z M140.053,421.655c-0.96,1.6-1.493,3.307-1.493,5.12
				c0,0.107,0.107,0.213,0.107,0.32c-4.373,12.48-16.32,20.907-29.653,20.907c-17.387,0-31.467-14.187-31.467-31.573
				s14.187-31.467,31.573-31.467s31.467,14.187,31.467,31.573C140.587,418.242,140.373,419.948,140.053,421.655z M21.333,362.668
				v-59.307l49.387-39.467c0.96-0.747,1.707-1.6,2.347-2.667l50.347-79.893h89.92v181.333H21.333z M360.64,416.002H162.027
				c-0.107-11.627-4.16-22.933-11.413-32H372.16C364.8,393.068,360.853,404.375,360.64,416.002z M413.653,448.002
				c-13.333,0-25.173-8.427-29.653-21.013c0-0.107,0.107-0.213,0.107-0.32c0-1.813-0.533-3.627-1.493-5.12
				c-0.32-1.707-0.533-3.413-0.533-5.12c0-18.133,15.147-32.747,33.6-31.68c15.787,0.96,28.587,13.76,29.653,29.44
				C446.293,432.642,431.787,448.002,413.653,448.002z M490.667,416.002H466.56c-0.107-11.627-4.16-22.933-11.413-32h35.52V416.002z
				 M490.667,362.668h-256V128.002h256V362.668z"/>
			<path d="M288,288.002h42.667v32c0,5.867,4.8,10.667,10.667,10.667H384c5.867,0,10.667-4.8,10.667-10.667v-32h42.667
				c5.867,0,10.667-4.8,10.667-10.667v-53.333c0-5.867-4.8-10.667-10.667-10.667h-42.667v-42.667c0-5.867-4.8-10.667-10.667-10.667
				h-42.667c-5.867,0-10.667,4.8-10.667,10.667v42.667H288c-5.867,0-10.667,4.8-10.667,10.667v53.333
				C277.333,283.202,282.133,288.002,288,288.002z M298.667,234.668h42.667c5.867,0,10.667-4.8,10.667-10.667v-42.667h21.333v42.667
				c0,5.867,4.8,10.667,10.667,10.667h42.667v32H384c-5.867,0-10.667,4.8-10.667,10.667v32H352v-32
				c0-5.867-4.8-10.667-10.667-10.667h-42.667V234.668z"/>
		</g>
	</g>
</g>
</svg>