<svg width="97" height="95" viewBox="0 0 97 95" fill="none" xmlns="http://www.w3.org/2000/svg">
<path fill-rule="evenodd" clip-rule="evenodd" d="M83.3619 6.02993C77.7692 9.39072 73.0284 12.2898 72.8266 12.4724C72.3625 12.8925 72.1574 13.9449 72.4254 14.5326C72.5383 14.7806 74.1267 16.8488 75.9552 19.1286C77.7837 21.4085 79.3801 23.4346 79.5026 23.6313C79.6967 23.9431 79.2571 24.8076 76.0731 30.374C74.0645 33.8858 72.3768 37.0323 72.3225 37.3662C72.137 38.5096 73.0687 39.4957 74.3347 39.4957C75.0458 39.4957 94.5093 27.9073 95.4557 26.9204C96.5616 25.7671 96.4347 25.5047 92.2336 20.2577C89.7137 17.1103 88.6163 15.6025 88.6955 15.3962C88.7586 15.2317 90.4365 12.2492 92.424 8.76841C95.0568 4.15742 96.0375 2.27749 96.0375 1.84255C96.0375 0.975476 95.2209 0.127526 94.2732 0.0109006C93.5676 -0.0761972 93.0232 0.224095 83.3619 6.02993ZM87.8932 8.71437C87.5866 9.25069 86.6198 10.9429 85.7447 12.475C84.6566 14.38 84.1534 15.4495 84.1528 15.8581C84.1523 16.3548 84.7322 17.1822 87.5927 20.7651C89.6463 23.3377 90.9654 25.1426 90.8651 25.2429C90.6099 25.4981 79.982 31.856 79.9168 31.7925C79.8856 31.762 80.8258 30.0411 82.006 27.9678C83.2692 25.7491 84.1521 23.9942 84.1521 23.7019C84.1521 23.0573 83.8261 22.5924 80.2462 18.1317C78.5971 16.077 77.294 14.3499 77.3503 14.2936C77.5536 14.0903 88.1487 7.75425 88.2977 7.747C88.3818 7.74273 88.1998 8.17804 87.8932 8.71437ZM40.8817 11.9336C40.5242 11.9751 39.4378 12.0984 38.4675 12.2076C33.9014 12.7212 28.4432 14.2639 24.5216 16.1491C21.242 17.7257 18.6612 19.5409 16.1622 22.0286C13.1658 25.0115 11.3453 27.866 10.1716 31.422C9.19219 34.3896 9.08707 35.2907 8.96302 41.7792L8.84677 47.8697L7.61867 48.2987C3.64151 49.6875 0.954102 53.4867 0.954102 57.7201C0.954102 62.2227 4.56541 66.5306 9.01632 67.3373C9.62025 67.4469 10.1252 67.5577 10.1382 67.5836C10.1514 67.6096 10.3579 68.2575 10.5969 69.0235C11.2162 71.0084 12.535 74.041 13.6249 75.9877C21.7133 90.4325 36.1948 97.3846 51.6991 94.2657C63.505 91.8911 74.003 82.1408 78.2773 69.5807L78.9411 67.6307L80.3859 67.2532C82.4562 66.7124 83.9561 65.8409 85.3382 64.3758C87.1923 62.4102 88.0457 60.3058 88.0497 57.6878C88.0566 53.3188 85.2348 49.4427 81.1421 48.1996C80.4483 47.9888 79.8807 47.7397 79.8807 47.6461C79.8807 47.3821 78.7238 46.7399 78.2465 46.7391C78.0118 46.7388 77.5939 46.8547 77.318 46.9967C76.8736 47.2257 76.2399 47.1731 71.7454 46.535C65.6021 45.6628 62.679 45.0854 59.9454 44.2044C52.5757 41.8295 46.573 38.3401 41.0182 33.2017C39.6386 31.9255 39.2929 31.6959 38.752 31.6959C37.7558 31.6959 37.3337 31.9936 36.285 33.4362C31.2246 40.3966 24.4286 44.6718 15.4859 46.5204L12.8395 47.0675L12.8406 42.5852C12.8414 39.5815 12.9322 37.5023 13.116 36.2824C13.904 31.0549 16.474 26.6329 20.6969 23.2393C25.2227 19.602 30.8172 17.3398 37.948 16.2636C41.6882 15.6993 47.3178 15.6993 51.058 16.2636C54.3336 16.758 57.3694 17.5293 59.9741 18.5286C63.0491 19.7086 63.0645 19.7123 63.734 19.435C64.3912 19.1628 65.0223 18.2741 65.0232 17.6191C65.0253 16.3389 64.0022 15.6575 60.1027 14.3423C55.2974 12.7216 51.0309 12.0183 45.4316 11.924C43.2866 11.8878 41.2392 11.8922 40.8817 11.9336ZM40.4542 37.9848C47.3578 43.8252 56.1964 47.9724 65.024 49.5133C66.1986 49.7183 68.9982 50.1404 71.2452 50.4513C73.4923 50.762 75.5262 51.06 75.7652 51.1135L76.1994 51.2108L76.1183 56.7279C76.0568 60.9045 75.9593 62.6513 75.7169 63.9165C74.9646 67.8441 72.8451 72.9413 70.4656 76.5448C63.4623 87.151 52.283 92.3793 40.1389 90.7274C31.0987 89.4978 22.8734 83.783 17.6981 75.1356C16.3327 72.8542 15.3661 70.7074 14.429 67.8747C13.1742 64.0807 12.9894 62.7107 12.8873 56.4417C12.8057 51.4337 12.8234 51.0097 13.1123 51.0097C13.8633 51.0097 19.7808 49.6227 21.5629 49.0288C27.367 47.0948 33.4658 43.0346 37.2604 38.5783C37.9753 37.7387 38.5882 36.9749 38.6222 36.8809C38.7328 36.5754 38.9262 36.6919 40.4542 37.9848ZM29.2576 51.633C27.5242 52.071 26.0028 53.3493 25.2475 55.0025C24.6035 56.4124 24.6406 58.5415 25.3341 59.9537C25.901 61.1084 26.877 62.0919 28.1058 62.7473C28.7762 63.1048 29.1848 63.1726 30.6677 63.1726C32.1506 63.1726 32.5591 63.1048 33.2295 62.7473C34.4584 62.0919 35.4343 61.1084 36.0012 59.9537C36.6997 58.5313 36.7289 56.4248 36.0705 54.9523C34.9557 52.4594 31.8926 50.9668 29.2576 51.633ZM57.0253 51.6248C55.887 51.9455 54.5913 52.7249 53.9642 53.4667C51.4048 56.493 52.3183 60.9877 55.8456 62.7237C56.61 63.1 57.034 63.1731 58.4313 63.1705C59.8174 63.1679 60.2453 63.0931 60.9384 62.733C62.0766 62.1413 63.1013 61.13 63.69 60.0166C64.1147 59.2138 64.1816 58.8619 64.1847 57.4167C64.1877 56.0189 64.1145 55.5956 63.7383 54.8311C62.5178 52.3513 59.5234 50.9211 57.0253 51.6248ZM8.95522 56.6274C8.96395 59.1042 9.03099 61.6113 9.10435 62.1987C9.19293 62.9072 9.17194 63.266 9.04232 63.2649C8.63264 63.2612 6.92578 62.1476 6.42864 61.5597C4.69374 59.5083 4.46699 56.8091 5.83697 54.5224C6.41267 53.5617 8.12454 52.124 8.69281 52.124C8.89096 52.124 8.94278 53.0132 8.95522 56.6274ZM81.4786 52.7275C84.5614 54.8021 85.0227 58.9089 82.4822 61.665C81.7763 62.4307 80.1662 63.4281 79.9634 63.2253C79.9173 63.1793 79.9623 62.146 80.0629 60.9292C80.1638 59.7123 80.2475 57.2332 80.2492 55.4203C80.2509 53.6074 80.3263 52.124 80.4169 52.124C80.5075 52.124 80.9852 52.3955 81.4786 52.7275ZM31.8363 55.8411C32.5459 56.3992 32.7948 57.3196 32.4557 58.1313C32.1736 58.8065 31.3628 59.3666 30.6677 59.3666C29.9725 59.3666 29.1617 58.8065 28.8796 58.1313C28.3468 56.8562 29.2793 55.4667 30.6677 55.4667C31.0811 55.4667 31.5524 55.6177 31.8363 55.8411ZM59.3204 55.6682C60.4102 56.1648 60.6691 57.8171 59.8018 58.7404C58.9416 59.656 57.19 59.4188 56.6889 58.3191C55.867 56.5153 57.5215 54.8487 59.3204 55.6682ZM43.0825 75.3574C41.556 75.4846 39.6118 76.0112 37.9415 76.7498C36.6299 77.33 33.3735 79.4879 32.9955 80.0274C32.3936 80.8867 32.7315 82.2932 33.6732 82.8496C34.4987 83.3371 35.2571 83.1276 36.9434 81.946C40.3342 79.57 43.5637 78.7549 46.8617 79.4428C48.233 79.729 50.5509 80.8414 52.3678 82.0858C54.0418 83.2324 54.557 83.347 55.4872 82.7798C56.2936 82.288 56.5931 81.3502 56.225 80.4692C55.6376 79.0634 51.0926 76.4035 48.1244 75.7282C46.2127 75.2933 44.9586 75.2012 43.0825 75.3574Z" fill="#F2C078"/>
</svg>
