<svg xmlns="http://www.w3.org/2000/svg" width="123" height="95" viewBox="0 0 123 95" fill="none"><path fill-rule="evenodd" clip-rule="evenodd" d="M33.6767 0.0492407C19.3288 1.67749 8.21613 11.6501 5.08804 25.7056C4.69518 27.471 4.59079 29.0258 4.49234 34.5838L4.37296 41.3215L3.32971 42.2832C2.74257 42.8244 1.94853 43.9312 1.51359 44.8146C0.82443 46.2143 0.740723 46.6048 0.740723 48.4159C0.740723 50.2311 0.823717 50.6159 1.52096 52.032C2.01774 53.041 2.73448 54.0063 3.49427 54.6895C4.62646 55.7075 6.76861 56.7391 7.75027 56.7391C8.11149 56.7391 8.23063 56.9662 8.3424 57.8687C9.13548 64.2702 10.9908 69.2232 14.3465 73.8963L15.8413 75.9783V84.9183V93.8584L16.4252 94.4419C17.169 95.186 18.0808 95.186 18.8246 94.4419L19.4084 93.8584V86.7156V79.5727L21.4892 81.1146C25.1842 83.8525 29.9199 85.8978 34.7768 86.8536C37.6478 87.4186 43.4869 87.421 46.3446 86.8583C50.4194 86.056 54.6278 84.3616 58.1707 82.0972L59.4786 81.2613L59.5975 87.5701L59.7164 93.8786L60.3837 94.4522C61.2257 95.1763 61.7741 95.176 62.6162 94.4522L63.2835 93.8783L63.355 85.8557L63.4264 77.8329L64.7436 76.3821C68.8607 71.8469 71.7277 65.4975 72.5281 59.1426L72.8095 56.9087L74.1105 56.5777C80.3969 54.9782 82.5105 47.0695 77.8904 42.4337L76.787 41.3267L76.655 35.0618C76.5076 28.0653 76.2289 25.9591 74.9388 22.1004C73.3181 17.2525 71.005 13.4945 67.2477 9.60544L64.7655 7.03643L66.5214 6.22766C68.698 5.22507 70.7674 4.54209 73.2568 4.00394C74.8434 3.66102 76.4236 3.58968 82.4268 3.58968C90.2632 3.58968 91.3164 3.70098 95.1082 4.929C102.102 7.19433 108.249 12.354 111.568 18.746C114.255 23.9211 114.774 26.2868 114.938 34.1236L115.064 40.1634L114.543 40.0271C113.849 39.8457 112.675 40.2747 112.385 40.8155C111.684 42.1262 112.507 43.3264 114.267 43.56C115.828 43.7671 117.096 44.5216 117.969 45.7632C118.604 46.6664 118.692 46.991 118.692 48.4159C118.692 49.8409 118.603 50.1657 117.968 51.0708C117.004 52.4441 115.671 53.1502 113.693 53.3347C111.495 53.5399 111.311 53.7839 111.117 56.7318C110.629 64.1808 107.569 70.7128 102.143 75.8867C93.9287 83.7193 82.2494 85.8955 71.502 81.5955C70.3501 81.1346 69.1798 80.7574 68.9018 80.7574C67.5162 80.7574 66.9117 82.9193 68.0477 83.8128C68.9556 84.5269 72.0061 85.7292 74.5431 86.3727C83.9708 88.7643 93.956 86.7437 101.867 80.843L103.591 79.557V86.7078V93.8584L104.175 94.4419C104.919 95.186 105.831 95.186 106.575 94.4419L107.159 93.8584V84.9105V75.9626L108.56 74.0202C111.953 69.3185 113.877 64.2214 114.658 57.8687C114.769 56.966 114.888 56.7391 115.25 56.7391C116.231 56.7391 118.373 55.7075 119.506 54.6895C120.265 54.0063 120.982 53.041 121.479 52.032C122.176 50.6159 122.259 50.2311 122.259 48.4159C122.259 46.6048 122.175 46.2143 121.486 44.8146C121.051 43.9312 120.257 42.8244 119.67 42.2832L118.627 41.3215L118.507 34.5838C118.38 27.4508 118.161 25.7365 116.9 22.0177C113.711 12.6111 106.351 5.0988 97.1424 1.85085C92.4869 0.209047 90.979 0.0221312 82.4268 0.0273629C75.2546 0.0316434 74.5183 0.0713568 72.2012 0.579071C69.1641 1.24421 65.2732 2.68008 63.0949 3.93926L61.4792 4.87312L60.2412 4.14282C57.6037 2.58733 54.367 1.36692 50.7987 0.582875C48.8435 0.153399 47.5959 0.0777776 41.5243 0.0207044C37.6659 -0.0156798 34.1345 -0.00283857 33.6767 0.0492407ZM50.0853 4.05816C55.8511 5.35158 60.5796 7.93819 64.6014 11.9994C70.9101 18.3702 73.3241 25.2965 73.1041 36.3958L73.0335 39.9522L72.1139 40.0107C70.9241 40.0866 70.2987 40.6599 70.2987 41.6754C70.2987 42.7479 70.9643 43.3524 72.3624 43.5495C75.0406 43.9271 76.7986 45.8557 76.7986 48.4159C76.7986 51.1766 74.979 52.9965 71.9046 53.3112C71.0221 53.4015 70.1284 53.6008 69.9189 53.754C69.483 54.0728 69.1351 55.6148 69.1202 57.2963C69.0914 60.4805 67.3946 65.9769 65.3773 69.4206C64.0002 71.7713 61.7772 74.6271 61.4174 74.5079C60.8241 74.3115 57.8537 70.0465 56.7438 67.7971C54.9508 64.1636 54.2212 61.2717 53.7529 55.9451C53.5682 53.8427 53.2593 53.5326 51.1326 53.315C48.0185 52.9963 46.2012 51.1909 46.2012 48.4159C46.2012 45.8557 47.9593 43.9271 50.6375 43.5495C52.0355 43.3524 52.7011 42.7479 52.7011 41.6754C52.7011 40.6606 52.0764 40.0871 50.886 40.0091L49.9664 39.9489L49.9904 34.4917C50.0173 28.4144 50.2922 26.3469 51.548 22.7865C52.4926 20.1088 53.2816 18.5624 55.0611 15.902C56.7167 13.427 56.882 12.5999 55.8794 11.8113C55.5348 11.5402 55.0678 11.3183 54.8414 11.3183C53.2916 11.3183 49.8194 16.8402 48.0604 22.1026C46.751 26.0195 46.479 28.0708 46.3422 35.0584L46.22 41.3196L45.113 42.4304C40.4011 47.158 42.6004 54.9385 49.1272 56.6314L50.1902 56.907L50.4717 59.1417C51.2517 65.3355 53.6821 70.9185 57.6991 75.7455L58.8869 77.1728L57.6068 78.1392C54.4538 80.5199 50.5243 82.2758 46.2804 83.2011C43.3171 83.847 37.8019 83.8796 34.9847 83.2675C29.3629 82.0461 24.8368 79.6816 20.8569 75.8867C15.4204 70.7028 12.3715 64.1953 11.8826 56.7318C11.6893 53.7839 11.5045 53.5399 9.30718 53.3347C7.32911 53.1502 5.99598 52.4441 5.03168 51.0708C4.3965 50.1657 4.3078 49.8409 4.3078 48.4159C4.3078 46.991 4.39626 46.6664 5.0312 45.7632C5.90371 44.5216 7.17145 43.7671 8.73288 43.56C10.4933 43.3264 11.3162 42.1262 10.6146 40.8155C10.3252 40.2747 9.1507 39.8457 8.45655 40.0271L7.93552 40.1634L8.06203 34.1236C8.20352 27.3671 8.4789 25.6216 10.0047 21.8077C11.5716 17.8915 13.3506 15.1525 16.2601 12.1761C21.0039 7.3237 26.7235 4.56682 34.0334 3.6099C34.4258 3.55829 37.7967 3.5483 41.5243 3.5873C46.8064 3.64248 48.6953 3.7464 50.0853 4.05816Z" fill="#fff"></path></svg>