<svg width="36" height="35" viewBox="0 0 36 35" fill="none" xmlns="http://www.w3.org/2000/svg">
<path fill-rule="evenodd" clip-rule="evenodd" d="M2.12137 5.20078V10.4016H1.06068H0V13.481V16.5604H1.05049H2.10091L2.14217 17.9461C2.22408 20.6976 2.74793 22.8686 3.89641 25.2169C5.6165 28.7337 8.3857 31.5151 11.8642 33.2197C13.1526 33.8511 13.9713 34.1544 15.2899 34.4888C16.7874 34.8686 17.8494 35.0007 19.4003 35C20.6477 34.9994 20.7227 34.9916 21.2479 34.8078C22.8582 34.2441 23.9402 33.1274 24.5072 31.4442L24.6685 30.9652L24.6906 25.0458C24.7135 18.874 24.6935 18.2729 24.4201 16.9367C23.5992 12.9256 20.8505 9.41135 17.1249 7.60963L16.4919 7.30353V3.65177V0H13.4125H10.3331V2.73999C10.3331 5.35098 10.3266 5.49264 10.1954 5.75001C9.98693 6.15854 9.66106 6.29568 8.8988 6.29568H8.28018V3.14784V0H5.20078H2.12137V5.20078ZM6.22725 7.25372V12.4545H6.98286C8.23338 12.4545 9.2272 12.7317 10.0949 13.3225C10.9162 13.8817 11.6155 14.7333 11.9955 15.6367C12.3221 16.4132 12.3861 16.9452 12.3861 18.8842V20.6662H13.4192H14.4522L14.422 18.562C14.3943 16.6423 14.378 16.4069 14.2355 15.8778C13.879 14.5541 13.2177 13.4003 12.2922 12.4876C11.338 11.5466 10.2044 10.9138 8.91317 10.6015L8.28018 10.4484V9.39849V8.34862H8.92693C10.0452 8.34862 10.7382 8.11396 11.3974 7.51204C11.8022 7.14231 12.1952 6.44773 12.3101 5.89884C12.3542 5.68808 12.3861 4.80689 12.3861 3.79458V2.05294H13.4125H14.439V5.39553V8.73819L15.1404 8.99721C19.2526 10.5158 22.0358 14.0364 22.5787 18.4062C22.6239 18.7701 22.6508 21.1035 22.6508 24.6704C22.6508 30.8661 22.6566 30.764 22.2586 31.4951C21.9944 31.9806 21.3085 32.5957 20.8248 32.7809C19.8523 33.1532 17.3865 32.9683 15.2795 32.365C11.7854 31.3645 8.66162 29.0397 6.64009 25.9355C6.12686 25.1474 5.35735 23.5931 5.06453 22.7534C4.51044 21.164 4.25273 19.7193 4.19491 17.8777L4.1535 16.5604H5.80899C7.3331 16.5604 7.4859 16.5713 7.73451 16.6981C7.9084 16.7868 8.05375 16.9322 8.14243 17.106C8.26917 17.3545 8.28018 17.5075 8.28018 19.0212V20.6662H9.30665H10.3331V18.993C10.3331 18.0254 10.301 17.1669 10.2568 16.9572C10.0096 15.7821 9.05845 14.8309 7.88335 14.5837C7.65157 14.5349 6.53423 14.5074 4.78684 14.5074H2.05294V13.481V12.4545H3.11362H4.17431V7.25372V2.05294H5.20078H6.22725V7.25372ZM32.5306 9.78567C32.0876 10.3879 31.695 10.8806 31.6581 10.8806C31.6212 10.8806 31.0235 10.6159 30.3298 10.2925C29.6361 9.9692 29.0448 9.73052 29.0158 9.7622C28.8875 9.90235 26.4694 13.2314 26.4397 13.3088C26.4137 13.3765 27.502 14.2469 27.9605 14.5252C28.0046 14.552 28.3687 14.1106 28.8501 13.4466C29.2982 12.8284 29.6977 12.3215 29.7376 12.3202C29.7775 12.3187 30.3744 12.5819 31.064 12.9049C32.1009 13.3907 32.3327 13.4764 32.4049 13.401C32.4529 13.3509 33.0651 12.529 33.7654 11.5746L35.0385 9.83925L34.2678 9.26792C33.8439 8.95368 33.4608 8.69522 33.4166 8.69365C33.3722 8.69207 32.9735 9.18348 32.5306 9.78567ZM31.3291 19.6965C29.6851 20.2487 28.3193 20.7216 28.294 20.7475C28.2464 20.796 28.7845 22.5021 28.8805 22.6071C28.9191 22.6494 34.8944 20.73 35.0181 20.6357C35.0476 20.6131 34.3895 18.6818 34.354 18.6871C34.3344 18.6901 32.9732 19.1443 31.3291 19.6965ZM27.2084 27.3462C26.7254 27.7011 26.4193 27.9707 26.4395 28.0234C26.4683 28.0984 28.8736 31.4078 29.017 31.5697C29.0448 31.6012 29.656 31.3502 30.3752 31.0121L31.6829 30.3972L32.5099 31.5195C32.9649 32.1367 33.3703 32.6417 33.4111 32.6417C33.4518 32.6417 33.8331 32.3804 34.2584 32.0609L35.0316 31.4802L33.7627 29.7514C33.0648 28.8005 32.4541 27.9815 32.4057 27.9315C32.3327 27.8559 32.1023 27.9411 31.064 28.4276C30.3744 28.7506 29.7775 29.0132 29.7376 29.0112C29.6977 29.0091 29.2968 28.501 28.8469 27.882C28.3969 27.2631 28.0247 26.7566 28.0199 26.7566C28.0149 26.7566 27.6498 27.0219 27.2084 27.3462Z" fill="#fff"></path>
</svg>