<svg width="93" height="95" viewBox="0 0 93 95" fill="none" xmlns="http://www.w3.org/2000/svg">
<path fill-rule="evenodd" clip-rule="evenodd" d="M41.3774 0.286256C39.6543 0.903864 38.4949 1.97999 37.5719 3.81889C37.1002 4.75839 36.9662 5.28745 36.8969 6.48424C36.7282 9.40056 37.5218 11.0726 40.4555 13.9802C42.1873 15.6964 45.3929 18.3493 46.8748 19.2925C48.0868 20.064 48.9674 20.0116 50.3443 19.0863C53.3559 17.0623 57.7168 13.0477 58.9227 11.1895C59.8017 9.83458 60.1126 8.57152 60.0354 6.66801C59.9815 5.33775 59.8711 4.85139 59.3962 3.85323C58.6763 2.34049 57.551 1.17545 56.1953 0.539834C55.2998 0.119927 54.9002 0.0482722 53.4749 0.0519849C52.075 0.0556976 51.6373 0.13385 50.7746 0.534821C50.2084 0.798052 49.4488 1.27365 49.0864 1.59183L48.4276 2.17027L47.9164 1.63656C46.5819 0.243746 43.3555 -0.422498 41.3774 0.286256ZM44.7457 2.9464C45.6323 3.19256 46.8146 4.31769 46.98 5.0723C47.2858 6.46771 48.0133 6.98081 49.061 6.54011C49.5296 6.34315 49.687 6.11482 49.9292 5.28169C50.6875 2.67315 54.1133 1.84299 56.0247 3.8046C56.9429 4.74669 57.3142 5.71125 57.3032 7.12635C57.2904 8.79149 56.6888 9.86446 54.6117 11.9261C53.065 13.4611 50.1063 15.9512 48.9034 16.7302L48.4161 17.0458L46.314 15.4151C43.4274 13.1762 40.7672 10.5175 40.1422 9.24667C39.304 7.54236 39.5088 5.37228 40.6282 4.09753C41.6852 2.8935 43.1153 2.49383 44.7457 2.9464ZM26.1596 6.26444C24.1516 6.68621 22.2154 8.24665 21.3114 10.1721C20.884 11.0824 20.7107 11.2719 20.2224 11.3637C19.903 11.4236 19.4287 11.6699 19.1684 11.9113C18.5868 12.4502 17.6299 14.3084 17.4557 15.2366C17.3529 15.7844 17.228 15.9423 16.8374 16.0184C12.3632 16.8915 7.92115 19.6146 5.69631 22.8481C4.73157 24.2504 3.66807 26.6468 3.12824 28.6355L2.62424 30.4918L2.61756 37.7316C2.61032 45.6677 2.63724 45.9148 3.82753 48.801C5.44255 52.7176 8.95384 56.1835 12.9311 57.7872C14.3187 58.3467 14.4915 58.4691 14.4915 58.8925C14.4915 59.3217 14.3426 59.4201 12.9812 59.8916C6.67591 62.0749 2.00478 67.4902 0.758239 74.0622C0.529166 75.269 0.476074 77.3095 0.476074 84.8899V94.2305L0.965222 94.6152C1.45233 94.9985 1.52695 95 19.3108 95H37.167L37.5708 94.5704C37.956 94.1604 37.9743 93.9796 37.9743 90.6081C37.9743 87.3034 37.9502 87.0533 37.6007 86.737C37.0887 86.2737 36.1902 86.3062 35.6899 86.8061C35.3185 87.1773 35.2769 87.4337 35.218 89.7144L35.1534 92.2155H32.7584H30.3633V84.2436V76.2717L29.9456 75.8066C29.3423 75.1352 28.5534 75.0906 27.95 75.694C27.5901 76.0539 27.5788 76.3127 27.5788 84.1404V92.2155H19.2252H10.8716V84.161C10.8716 76.7528 10.8455 76.074 10.5453 75.7034C10.0556 75.0986 9.06893 75.1302 8.52019 75.768L8.08711 76.2717V84.2436V92.2155H5.66401H3.24074L3.30608 83.3514C3.37848 73.5211 3.36084 73.6759 4.74215 70.7238C6.29722 67.4007 9.6405 64.2106 13.0064 62.8382C14.5052 62.2271 14.508 62.2276 14.7807 63.2056C15.0984 64.3446 16.5677 65.8611 17.6688 66.1865C18.8372 66.5318 20.2926 66.4677 21.1935 66.0317C22.2904 65.5007 23.4447 64.1917 23.7183 63.1684C23.8419 62.7064 24.0302 62.3305 24.1365 62.3333C24.6043 62.3453 26.9224 63.4708 28.1212 64.2678C30.5714 65.8967 32.5497 68.2188 33.8037 70.9376C34.8713 73.2525 35.0368 74.1434 35.1651 78.2628L35.2826 82.0382L35.8035 82.486C36.4417 83.0345 36.8485 83.0497 37.4852 82.5489L37.9743 82.1643V78.7356C37.9743 74.9373 37.767 73.5237 36.8305 70.9354C36.2069 69.212 34.7391 66.7519 33.3979 65.182C31.523 62.9872 28.237 60.7955 25.3823 59.8352C24.2546 59.4559 24.1395 59.3696 24.0888 58.8637C24.0376 58.3549 24.0994 58.2888 24.8314 58.0698C28.5923 56.9443 32.6594 53.2136 34.4638 49.2343C35.0729 47.891 35.7467 45.5868 35.7467 44.8472C35.7467 44.3879 35.8228 44.3341 36.6285 44.2251C38.1227 44.0232 38.7436 43.7477 39.5717 42.9197C41.1069 41.3843 41.2942 39.0609 40.0237 37.3074C39.3194 36.3349 38.4247 35.8105 37.0593 35.5701L35.9324 35.3714V32.9903C35.9324 29.0172 35.1367 26.2822 33.1114 23.2935L32.3847 22.2211L33.0446 20.9018C33.7471 19.4976 33.828 18.9392 33.4552 18.0656C33.2442 17.5709 33.2824 17.3996 33.8642 16.2334C36.1011 11.749 33.1243 6.63516 28.0217 6.19687C27.4208 6.14508 26.5828 6.17571 26.1596 6.26444ZM29.6937 9.58638C30.9545 10.2909 31.7021 11.3737 31.8077 12.6482C31.897 13.7234 31.4775 15.3485 31.0108 15.7357C30.804 15.9073 30.0024 15.5635 27.1225 14.0672C25.1273 13.0307 23.4948 12.1429 23.4948 12.0945C23.4948 12.046 23.6558 11.6907 23.8527 11.305C24.3021 10.4238 25.5507 9.28194 26.2283 9.13232C26.5116 9.06976 26.827 8.98752 26.9291 8.94947C27.3818 8.78091 28.8626 9.12211 29.6937 9.58638ZM67.6694 12.5673C61.0885 13.956 55.5991 19.3833 54.3915 25.6949C54.2447 26.4623 54.1246 28.1571 54.1246 29.4612V31.8321L53.1246 31.9353C50.7826 32.177 49.2179 33.9051 49.2207 36.2465C49.2221 37.5283 49.6537 38.5068 50.6276 39.4374C51.3545 40.1319 52.018 40.4185 53.2785 40.5824L54.1959 40.7018L54.4216 41.9084C55.4437 47.3713 59.2954 52.0469 64.5406 54.1913C65.8496 54.7267 66.0052 54.8423 66.0052 55.2812C66.0052 55.6987 65.887 55.8071 65.2163 56.0046C64.7824 56.1323 63.7431 56.5556 62.9066 56.945C57.9531 59.2517 54.3635 63.4072 52.6896 68.7731L52.1812 70.4034L52.1242 82.3161L52.0674 94.2287L52.4812 94.6144C52.8944 94.9993 52.93 95 70.7489 95C88.53 95 88.6046 94.9985 89.0917 94.6152L89.5809 94.2305L89.5784 83.0594C89.5762 72.8792 89.5452 71.7403 89.2293 70.2177C88.4685 66.5509 86.8019 63.4346 84.2065 60.8259C81.8883 58.496 79.3581 56.9246 76.5883 56.095C75.5925 55.7967 75.4726 55.7083 75.4726 55.2734C75.4726 54.8416 75.6085 54.7378 76.6614 54.3662C80.8898 52.8735 84.7148 49.0709 86.4232 44.6619C87.3963 42.1507 87.5389 40.7179 87.5389 33.4498V26.8961L88.8888 25.5287C91.1283 23.2599 92.3138 20.4984 92.4985 17.1206C92.6115 15.0494 92.3784 14.2933 91.3151 13.284C90.204 12.2296 90.0177 12.2068 82.5533 12.2068C76.1333 12.2068 75.6722 12.2287 75.2704 12.5541C74.9599 12.8055 74.8414 13.0941 74.8414 13.5991C74.8414 14.104 74.9599 14.3927 75.2704 14.644C75.672 14.9691 76.1303 14.9913 82.4257 14.9913C90.1704 14.9913 89.7685 14.8991 89.7637 16.6767C89.757 19.1369 88.6347 21.875 86.9356 23.5758L85.8682 24.6443H75.0237C69.0593 24.6443 64.0462 24.6954 63.8836 24.7578C63.721 24.8201 63.204 25.6711 62.7349 26.6488C61.475 29.2735 59.5392 31.0332 57.4523 31.4507L56.9091 31.5592L56.9123 29.3548C56.9175 25.8454 57.5997 23.5582 59.3884 21.0531C61.6157 17.9336 65.4892 15.6067 69.3205 15.0862C70.5202 14.923 71.0174 14.4914 71.0174 13.6126C71.0174 13.1463 70.8867 12.8734 70.5282 12.5916C69.9466 12.134 69.7313 12.1322 67.6694 12.5673ZM30.7346 19.2166C30.7346 19.5166 29.9527 20.7648 29.5614 21.0896C29.3078 21.2999 28.604 20.9979 24.6056 18.9626C19.378 16.3014 19.7325 16.6593 20.5295 14.8482L20.8785 14.0554L25.8065 16.5173C28.517 17.8713 30.7346 19.0861 30.7346 19.2166ZM23.1235 21.3239C27.4524 23.5359 28.39 23.9475 29.2907 24.0319C30.313 24.1275 30.3733 24.1636 30.9037 24.9911C32.7482 27.8699 33.1432 29.5819 33.1361 34.6686L33.1309 38.4742L32.1946 37.4532C30.5541 35.6644 28.9742 33.4234 27.2073 30.379C26.2624 28.7506 25.2797 27.2536 25.0239 27.0524C24.731 26.822 24.2754 26.6869 23.7946 26.6876C23.154 26.6887 22.6862 26.9178 20.8959 28.1063C16.491 31.0307 13.9383 31.8693 8.97834 32.0217C7.27347 32.0738 5.75739 32.0703 5.60962 32.0135C5.37609 31.924 5.37461 31.7321 5.59886 30.5561C6.40414 26.329 8.04237 23.6341 11.1798 21.3751C13.0341 20.0399 16.1466 18.7645 17.6473 18.7252C17.8515 18.7198 20.3158 19.8893 23.1235 21.3239ZM84.7543 33.7483C84.7543 40.6077 84.6296 41.8202 83.6949 44.0428C82.2824 47.4013 79.3425 50.3036 76.0295 51.6099C73.9289 52.4384 73.2387 52.565 70.8317 52.5637C68.2083 52.5622 66.9341 52.2904 64.7984 51.277C61.0881 49.5163 58.306 46.0904 57.2793 42.0179C56.9828 40.8419 56.9091 39.9319 56.9091 37.448V34.3462L57.6052 34.2485C60.3768 33.8596 63.47 31.4265 64.9753 28.4512L65.4925 27.4289H75.1234H84.7543V33.7483ZM25.5154 32.9979C26.938 35.4106 28.8066 37.8784 31.1645 40.4588C33.4369 42.9455 33.4207 42.8939 32.773 45.596C31.672 50.1885 28.1437 54.0207 23.5876 55.573C21.4706 56.2942 18.1116 56.4165 15.8849 55.8535C11.0975 54.6428 7.4359 51.1487 5.84297 46.2708C5.45276 45.0757 5.41285 44.565 5.34509 39.9128L5.27158 34.8543L7.93229 34.8532C11.2331 34.8519 13.6634 34.4964 16.2255 33.6402C18.3631 32.9257 19.2156 32.4913 21.8493 30.7736L23.5596 29.6583L24.0176 30.4464C24.2695 30.8798 24.9435 32.028 25.5154 32.9979ZM54.1246 36.2465V37.8244H53.5534C52.8227 37.8244 51.897 36.9425 51.897 36.2465C51.897 35.5506 52.8227 34.6686 53.5534 34.6686H54.1246V36.2465ZM64.419 35.31C63.8608 35.868 63.8377 36.501 64.3521 37.1548C65.408 38.4974 67.6611 38.8605 69.2297 37.9412C70.1826 37.3828 70.4604 36.9885 70.4604 36.1947C70.4604 35.1628 69.061 34.5706 68.2817 35.2729C67.6748 35.8199 67.0776 35.8367 66.3869 35.3265C65.5829 34.7329 65.0009 34.7279 64.419 35.31ZM74.8936 35.0412C74.7284 35.1377 74.4921 35.4607 74.3684 35.7591C74.0592 36.5057 74.4882 37.2993 75.5201 37.8892C77.0158 38.7446 78.6004 38.6743 79.8941 37.6954C80.7353 37.0589 80.9689 36.5029 80.6837 35.8149C80.2727 34.8225 79.2675 34.6644 78.2785 35.4368C77.701 35.8877 77.5155 35.8738 76.6969 35.3184C75.9824 34.8335 75.4017 34.7442 74.8936 35.0412ZM9.65665 38.4658C8.97945 39.1428 9.06355 39.7933 9.93529 40.6225C11.3619 41.9797 13.5652 42.0187 15.075 40.7135C15.8595 40.0353 15.9944 39.202 15.4219 38.5694C14.9797 38.0808 13.955 38.0797 13.3356 38.567C12.7167 39.0537 12.3747 39.0353 11.6142 38.4742C10.8202 37.8883 10.2364 37.8859 9.65665 38.4658ZM20.0856 38.3949C19.7519 38.6574 19.5965 38.9561 19.5965 39.3351C19.5965 40.1326 19.8682 40.5351 20.76 41.0576C22.3903 42.0129 24.1609 41.8429 25.3909 40.613C26.1889 39.8148 26.2598 39.3852 25.7089 38.6848C25.2353 38.0826 24.3898 38.0357 23.5876 38.567C22.8687 39.0431 22.6867 39.0333 21.864 38.4742C21.0335 37.9098 20.7199 37.8959 20.0856 38.3949ZM37.113 38.4513C38.4269 39.0004 38.41 40.7395 37.0853 41.293C36.0651 41.7194 35.9324 41.5594 35.9324 39.9032C35.9324 38.0557 35.9916 37.9828 37.113 38.4513ZM72.6821 57.1305C72.676 58.9692 72.591 59.215 71.7649 59.7843C70.8544 60.4119 69.5039 59.9653 69.0535 58.8877C68.817 58.3217 68.6719 55.6396 68.8671 55.4443C68.9097 55.4018 69.7868 55.3669 70.8163 55.3669H72.6881L72.6821 57.1305ZM66.7119 60.4075C67.2436 61.4417 68.2958 62.2779 69.5141 62.6344C70.7723 63.0027 71.8624 62.869 73.1015 62.1946C74.1954 61.5993 74.8667 60.7851 75.2866 59.5447L75.5901 58.648L76.7845 59.1253C81.3342 60.9432 84.8004 64.7628 86.2673 69.5752C86.682 70.9354 86.6907 71.1518 86.7514 81.5879L86.8134 92.2155H84.3916H81.9698V82.5532C81.9698 74.4363 81.9264 72.807 81.6982 72.3659C81.2525 71.504 80.3245 71.3469 79.6149 72.0136L79.1853 72.4173V82.3163V92.2155H70.8317H62.4781V82.3685V72.5213L62.0224 72.0657C61.7718 71.8151 61.3504 71.61 61.0859 71.61C60.8214 71.61 60.4 71.8151 60.1494 72.0657L59.6936 72.5213V82.3685V92.2155H57.1705H54.6471L54.7301 81.9591C54.8096 72.1656 54.8317 71.6315 55.2189 70.1249C56.4944 65.1642 59.991 61.1094 64.613 59.2311L66.098 58.6276L66.2068 59.1322C66.2666 59.4095 66.494 59.9835 66.7119 60.4075ZM21.2672 60.385C21.2672 62.6349 20.6251 63.6277 19.1697 63.6277C18.6263 63.6277 18.3236 63.4972 17.9115 63.0851C17.3872 62.5608 17.3689 62.4821 17.3689 60.7646V58.9868H19.318H21.2672V60.385Z" fill="#fff"></path>
</svg>