<svg width="75" height="95" viewBox="0 0 75 95" fill="none" xmlns="http://www.w3.org/2000/svg">
<path fill-rule="evenodd" clip-rule="evenodd" d="M40.8527 0.271081C38.4376 0.800909 35.7903 2.4264 34.2803 4.30705C33.2898 5.54023 32.1981 7.78017 31.898 9.19428L31.664 10.2968L30.2428 10.5212C24.272 11.4635 20.9897 17.6984 23.6219 23.0986C24.0499 23.9766 24.6149 24.7462 25.3348 25.4313C27.6002 27.5872 28.9107 28.0051 33.4073 28.0051C36.2758 28.0051 36.5527 27.9756 36.8943 27.634C37.3941 27.1342 37.3846 26.1293 36.8756 25.6678C36.5319 25.356 36.0871 25.3027 33.1176 25.217C29.924 25.1248 29.7004 25.0939 28.8016 24.6241C25.8598 23.086 24.668 19.5353 26.1102 16.6056C26.7845 15.2358 27.6349 14.4172 29.0915 13.7352C29.9607 13.3284 30.3853 13.2527 31.8226 13.2483C33.9366 13.2418 34.2233 13.0478 34.3848 11.5162C34.5566 9.88445 35.0057 8.32261 35.591 7.3203C36.8301 5.19858 39.2707 3.44133 41.6706 2.94249C44.913 2.26865 48.6478 3.73677 50.6324 6.46552C51.1164 7.13101 51.6492 7.65379 51.9105 7.71967C52.1571 7.78184 52.9328 7.68366 53.6345 7.5018C56.1099 6.85969 58.2493 7.52499 59.9325 9.46021C60.9923 10.6787 61.0205 10.6867 63.0435 10.3397C65.4971 9.91896 67.8441 10.7216 69.6145 12.5867C70.1553 13.1566 70.7887 14.0195 71.0216 14.5046C72.807 18.2195 71.1574 22.7534 67.374 24.5313C66.1911 25.0871 65.9733 25.1244 63.3692 25.2166C60.7572 25.3092 60.5974 25.3367 60.2608 25.7524C59.8009 26.3204 59.8083 27.165 60.2773 27.634C60.6102 27.9669 60.8958 28.0051 63.0519 28.0051C65.9519 28.0051 66.9912 27.8099 68.8139 26.9228C72.2054 25.2721 74.5506 21.5058 74.5637 17.6888C74.5682 16.3866 73.9524 14.1002 73.2348 12.7539C72.5296 11.4307 70.8856 9.69813 69.6459 8.97158C67.7522 7.86182 66.4914 7.52629 64.1498 7.50922L61.9911 7.49326L61.1211 6.69137C59.3513 5.05995 56.326 4.14894 54.0493 4.56148L52.9811 4.75523L51.6599 3.4339C48.8391 0.613288 44.7497 -0.583696 40.8527 0.271081ZM41.0686 21.1857C40.5866 21.6001 40.5764 21.6639 39.853 28.8408C39.4518 32.8211 39.123 36.4698 39.1224 36.9487C39.1207 38.2636 39.4162 38.3976 42.3175 38.3976C43.6216 38.3976 44.6887 38.4447 44.6887 38.5022C44.6887 38.5597 44.1041 41.8113 43.3896 45.7279C42.6751 49.6446 42.0905 53.1338 42.0905 53.4816C42.0905 54.4284 42.975 55.0626 43.8378 54.7345C44.2845 54.5646 60.4508 34.197 60.9912 33.123C61.2293 32.6502 61.2301 32.5201 60.9972 32.1051C60.541 31.2925 60.0232 31.1657 57.149 31.1628C55.0944 31.1605 54.505 31.1069 54.5741 30.928C54.6233 30.8005 55.4754 28.7912 56.4675 26.463C58.1101 22.6092 58.2524 22.1833 58.0557 21.7084C57.8473 21.2053 57.198 20.7675 56.6602 20.7675C55.9941 20.7675 55.4055 21.8242 53.2483 26.8917C52.0101 29.8006 50.9972 32.4104 50.9976 32.691C50.998 32.9716 51.1654 33.3684 51.3695 33.5725C51.7043 33.9073 51.988 33.9437 54.2614 33.9437C55.846 33.9437 56.7593 34.0119 56.7203 34.1278C56.6457 34.3499 45.9127 48.0347 45.8571 47.9788C45.8355 47.9573 46.2672 45.4796 46.8165 42.4727C48.1037 35.4259 48.1779 35.6215 44.2154 35.6166L41.9792 35.6139L42.5838 29.6289C43.3892 21.6537 43.3874 21.7413 42.7594 21.2011C42.1273 20.6573 41.6873 20.6532 41.0686 21.1857ZM16.5424 23.8491C10.147 27.2229 5.47321 33.5408 3.82768 41.0361C3.51572 42.4573 3.43314 43.6619 3.35594 47.9207L3.26222 53.083L2.34397 54.0012C0.971616 55.3734 0.436035 56.6717 0.436035 58.6257C0.436035 59.9405 0.517504 60.3783 0.925778 61.2563C1.81897 63.1774 3.65231 64.7141 5.43869 65.0393C6.31648 65.1991 6.45269 65.3626 6.45659 66.2604C6.46086 67.3015 6.99013 69.859 7.5864 71.7212C8.28176 73.8927 9.69495 76.6578 11.0925 78.5814L12.1995 80.105L12.2522 87.1974L12.3051 94.2899L12.7433 94.6445C13.3108 95.104 13.8976 95.094 14.507 94.6145L14.996 94.2299V88.5789V82.9276L16.3802 83.9696C21.3736 87.7278 27.9574 89.5701 34.0179 88.9047C38.7024 88.3905 42.8451 86.7626 46.6836 83.9275L48.0291 82.9339V88.5818V94.2299L48.5181 94.6145C49.3133 95.24 50.1005 95.0959 50.5413 94.2435C50.7653 93.8105 50.8128 92.5161 50.8128 86.8571V79.9957L51.2455 79.4712C52.8014 77.5855 54.596 74.2412 55.4333 71.6665C55.9279 70.1459 56.5026 67.3238 56.6112 65.8833C56.6561 65.2863 56.7108 65.2405 57.6747 64.9949C60.2829 64.3304 62.019 62.4297 62.5247 59.6846C62.7162 58.6452 62.7039 58.2809 62.4412 57.216C62.0874 55.7828 61.2473 54.3644 60.3441 53.6754L59.7206 53.1999V49.4425C59.7206 45.9224 59.6963 45.6542 59.3359 45.1962C58.8539 44.5835 57.8607 44.5257 57.308 45.0784C56.9643 45.4221 56.9369 45.6969 56.9369 48.79V52.1304H56.1946C55.2964 52.1304 54.7099 52.6356 54.7099 53.4089C54.7099 54.2447 55.221 54.6838 56.4469 54.9015C57.836 55.1481 58.6802 55.6748 59.2444 56.6468C59.8262 57.6488 59.9852 58.5707 59.7362 59.496C59.2473 61.311 57.9973 62.2664 55.8043 62.5008C54.8922 62.5982 54.4024 62.7414 54.2449 62.9571C54.1185 63.1299 53.9557 64.0424 53.8834 64.9847C53.4459 70.6783 51.4207 75.3599 47.719 79.2344C41.632 85.6057 32.6355 87.852 24.3483 85.0699C19.9005 83.577 15.4676 80.187 12.8993 76.3151C10.5854 72.8264 9.08272 68.0583 9.05154 64.1051C9.04245 62.9524 8.70822 62.6596 7.22043 62.5008C5.12989 62.2773 3.87816 61.3947 3.33014 59.7579C3.01169 58.8068 3.07571 58.0769 3.57065 57.0137C4.10846 55.8587 5.02503 55.1861 6.42226 54.9211C7.97908 54.6259 8.31517 54.3418 8.31517 53.3214C8.31517 52.6296 7.69292 52.1304 6.83053 52.1304H6.08822V48.5532C6.08822 46.5857 6.17507 44.2682 6.28103 43.4034C6.91683 38.2175 9.31117 33.4491 13.0935 29.8355C14.5204 28.4722 16.6208 26.9254 17.9653 26.2477C19.0164 25.7179 19.4499 25.2231 19.4499 24.553C19.4499 24.1219 19.3102 23.8394 18.9609 23.5648C18.2952 23.0411 18.0107 23.0745 16.5424 23.8491Z" fill="#fff"></path>
</svg>