<svg width="30" height="35" viewBox="0 0 30 35" fill="none" xmlns="http://www.w3.org/2000/svg">
<path fill-rule="evenodd" clip-rule="evenodd" d="M3.22302 0.106053C1.73551 0.466521 0.464772 1.73476 0.118291 3.20485C0.0153785 3.6415 0.000296983 5.46955 0.000296983 17.4975C0.000296983 32.6948 -0.0286935 31.7862 0.486183 32.767C0.854309 33.4683 1.62768 34.2128 2.34221 34.5536C2.66454 34.7074 3.13691 34.871 3.39196 34.9172C3.70899 34.9747 7.39134 35.0009 15.0351 35C24.3295 34.9988 26.3018 34.9801 26.732 34.8889C28.3178 34.5528 29.6533 33.1615 29.9245 31.5631C29.9851 31.2058 30.0039 27.996 29.988 20.7404C29.966 10.7401 29.9607 10.4128 29.813 10.0037C29.7291 9.77165 29.5357 9.37868 29.3832 9.13042C29.1025 8.67384 22.7389 1.61919 22.0444 0.99476C21.8374 0.808705 21.4717 0.560292 21.2317 0.442766C20.2954 -0.0157701 20.5395 -0.0044395 11.7192 0.00157742C5.47468 0.00579708 3.53848 0.0296305 3.22302 0.106053ZM19.7063 1.68444L19.9964 1.73242L20.0189 5.33671L20.0413 8.941L20.2275 9.35281C20.4576 9.86198 21.1073 10.4742 21.6209 10.6658C21.9273 10.7801 22.3127 10.8111 23.7524 10.8371C25.7487 10.8732 26.0197 10.8304 26.257 10.441C26.4415 10.1385 26.4497 9.90895 26.2875 9.59521C26.0754 9.18504 25.8245 9.13636 23.9224 9.13636C22.3147 9.13636 22.199 9.12667 22.0073 8.97585C21.6625 8.7047 21.6342 8.43128 21.6591 5.61998L21.6823 3.00222L24.7298 6.34372C27.0828 8.92381 27.8397 9.80345 28.0509 10.2039L28.3244 10.7225V21.0451V31.3677L28.1211 31.8011C27.831 32.4196 27.4879 32.7729 26.8932 33.0657L26.3741 33.3213H15.0028H3.63155L3.19239 33.1153C2.5739 32.8254 2.16819 32.4291 1.90399 31.857L1.678 31.3677V17.4975V3.62736L1.89711 3.15851C2.01761 2.90064 2.22859 2.57221 2.36596 2.42874C2.64735 2.13469 3.21224 1.82291 3.65077 1.7196C3.97834 1.6424 19.2497 1.60896 19.7063 1.68444ZM5.54602 5.05001C4.91229 5.2817 4.84181 6.27598 5.43983 6.54846C5.57501 6.61011 7.18669 6.63582 10.9084 6.63582H16.1853L16.4138 6.40741C16.7909 6.03022 16.6808 5.30061 16.2146 5.08822C16.0619 5.0186 14.6923 4.9964 10.8365 5.00101C7.99116 5.00437 5.61049 5.02649 5.54602 5.05001ZM5.4925 9.25076C5.23213 9.36399 4.99903 9.71601 4.99903 9.99592C4.99903 10.284 5.23478 10.6296 5.50961 10.7444C5.89969 10.9074 11.6 10.9074 11.9901 10.7444C12.2649 10.6296 12.5006 10.284 12.5006 9.99592C12.5006 9.70781 12.2649 9.36227 11.9901 9.2474C11.606 9.08697 5.86234 9.08986 5.4925 9.25076ZM13.8586 9.24865C13.5372 9.38852 13.3602 9.65389 13.3602 9.99592C13.3602 10.64 13.7715 10.8555 15.0012 10.8555C16.2308 10.8555 16.6422 10.64 16.6422 9.99592C16.6422 9.64709 16.4626 9.38571 16.1265 9.24529C15.7775 9.09947 14.196 9.10182 13.8586 9.24865ZM9.35645 14.2141C8.43102 14.3801 7.59857 14.8221 6.9811 15.4755C6.53491 15.9477 6.28274 16.3787 6.05387 17.0606C5.58658 18.4527 5.95361 20.1076 6.96492 21.1679L7.35508 21.577L7.1734 21.6977C7.07346 21.7642 6.74269 22.0684 6.43848 22.3737C6.02691 22.7867 5.80147 23.0988 5.55798 23.5928C5.08788 24.5463 5.002 25.0622 5.00036 26.9407C4.99895 28.6649 5.04256 28.8723 5.44538 29.0559C5.70504 29.1742 14.2952 29.1742 14.5548 29.0559C14.9577 28.8723 15.0013 28.6649 14.9999 26.9407C14.9982 25.0622 14.9123 24.5463 14.4422 23.5928C14.1987 23.0988 13.9733 22.7867 13.5617 22.3737C13.2575 22.0684 12.923 21.7616 12.8184 21.6919L12.6283 21.5652L12.9594 21.231C13.7284 20.4547 14.0733 19.638 14.124 18.4734C14.154 17.7834 14.134 17.6194 13.9545 17.0849C13.6136 16.0695 13.103 15.4007 12.2328 14.8298C11.4446 14.3126 10.242 14.0552 9.35645 14.2141ZM18.0487 15.0509C17.4141 15.2899 17.3442 16.2781 17.9425 16.5506C18.21 16.6725 24.2951 16.6725 24.5625 16.5506C25.0356 16.3351 25.124 15.6018 24.7224 15.2244L24.5221 15.0361L21.344 15.0214C19.5961 15.0133 18.1132 15.0266 18.0487 15.0509ZM11.0781 16.0809C11.5885 16.3442 12.0038 16.7607 12.2443 17.2505C12.4274 17.6233 12.4614 17.7912 12.4604 18.318C12.4586 19.2996 12.0416 20.0175 11.1761 20.529C10.8854 20.7008 10.711 20.7397 10.1133 20.7658C9.2526 20.8035 8.88502 20.6727 8.29193 20.1179C7.12769 19.029 7.28866 17.1657 8.62465 16.2667C9.13773 15.9214 9.38669 15.8577 10.1173 15.8847C10.576 15.9016 10.8318 15.9538 11.0781 16.0809ZM17.9952 19.2529C17.7348 19.3661 17.5017 19.7182 17.5017 19.9981C17.5017 20.2862 17.7375 20.6317 18.0123 20.7466C18.4024 20.9096 24.1027 20.9096 24.4928 20.7466C24.7676 20.6317 25.0033 20.2862 25.0033 19.9981C25.0033 19.71 24.7676 19.3644 24.4928 19.2495C24.1087 19.0891 18.365 19.092 17.9952 19.2529ZM11.1991 22.7338C12.0556 23.0569 12.8184 23.8448 13.1423 24.7414C13.2711 25.0978 13.3139 25.4406 13.3429 26.3471L13.3796 27.4997H10.0098H6.64001V26.6154C6.64001 25.041 6.89178 24.2688 7.65413 23.5047C8.13166 23.0261 8.52612 22.7928 9.16016 22.6143C9.71004 22.4595 10.6116 22.5123 11.1991 22.7338ZM17.9197 23.4501C17.4672 23.6691 17.3911 24.4039 17.7827 24.7718L17.9832 24.9601H21.2525H24.5219L24.7223 24.7718C25.124 24.3944 25.0356 23.6611 24.5625 23.4455C24.3069 23.329 18.1611 23.3333 17.9197 23.4501ZM18.0487 27.5536C17.4141 27.7926 17.3442 28.7807 17.9425 29.0533C18.21 29.1752 24.2951 29.1752 24.5625 29.0533C25.0356 28.8378 25.124 28.1045 24.7224 27.7271L24.5221 27.5388L21.344 27.5241C19.5961 27.516 18.1132 27.5293 18.0487 27.5536Z" fill="#fff"></path>
</svg>