<svg id="Capa_1" enable-background="new 0 0 512 512" height="128" width="128" viewBox="0 0 512 512" xmlns="http://www.w3.org/2000/svg" fill="#fff"><g id="XMLID_210_"><path id="XMLID_211_" d="m479.851 407.815c-.383-.55-52.578-62.575-168.667-200.645v-147.007h.041c16.587 0 30.082-13.494 30.082-30.081s-13.495-30.082-30.082-30.082h-110.449c-16.587 0-30.082 13.495-30.082 30.082s13.495 30.081 30.082 30.081h.041v147.008c-118.837 141.337-168.275 200.083-168.668 200.644-14.211 20.302-15.931 46.567-4.486 68.549 11.444 21.981 33.948 35.636 58.73 35.636h339.214c24.781 0 47.285-13.654 58.73-35.635 11.444-21.981 9.726-48.248-4.486-68.55zm-279.075-367.652c-5.559 0-10.082-4.523-10.082-10.081 0-5.56 4.522-10.082 10.082-10.082h110.449c5.559 0 10.082 4.522 10.082 10.082 0 5.559-4.522 10.081-10.082 10.081-12.632 0-95.877 0-110.449 0zm14.697 180.653h15.425c5.523 0 10-4.478 10-10 0-5.523-4.477-10-10-10h-10.082v-20.164h30.163c5.523 0 10-4.477 10-10 0-5.522-4.477-10-10-10h-30.163v-20.162h10.082c5.523 0 10-4.478 10-10s-4.477-10-10-10h-10.082v-20.164h30.163c5.523 0 10-4.478 10-10s-4.477-10-10-10h-30.163v-20.163h70.367v150.653c0 2.354.831 4.634 2.346 6.436l129.111 153.542c-130.69-6.64-156.326-58.47-270.327-74.866zm251.124 246.313c-8.109 15.573-23.432 24.871-40.989 24.871h-339.215c-17.559 0-32.882-9.298-40.991-24.872-8.043-15.448-6.955-33.173 2.891-47.496l88.717-105.505c55.112 6.152 89.122 20.857 125.062 36.4 44.609 19.291 90.713 39.226 177.894 40.872l23.74 28.232c9.847 14.325 10.935 32.049 2.891 47.498z"/></g><g id="XMLID_216_"><path id="XMLID_217_" d="m170.653 341.388c-16.587 0-30.081 13.494-30.081 30.081s13.495 30.082 30.081 30.082c16.587 0 30.082-13.495 30.082-30.082s-13.495-30.081-30.082-30.081zm0 40.163c-5.559 0-10.081-4.523-10.081-10.082s4.522-10.081 10.081-10.081 10.082 4.522 10.082 10.081-4.523 10.082-10.082 10.082z"/></g><g id="XMLID_220_"><path id="XMLID_221_" d="m230.898 411.674c-16.587 0-30.081 13.494-30.081 30.081s13.495 30.082 30.081 30.082c16.587 0 30.082-13.495 30.082-30.082s-13.495-30.081-30.082-30.081zm0 40.163c-5.559 0-10.082-4.522-10.082-10.082 0-5.559 4.523-10.081 10.082-10.081s10.082 4.522 10.082 10.081c0 5.56-4.523 10.082-10.082 10.082z"/></g><g id="XMLID_224_"><path id="XMLID_225_" d="m261.021 240.98c-16.587 0-30.081 13.494-30.081 30.081s13.495 30.082 30.081 30.082 30.082-13.495 30.082-30.082c-.001-16.587-13.495-30.081-30.082-30.081zm0 40.163c-5.559 0-10.081-4.523-10.081-10.082 0-5.558 4.522-10.081 10.081-10.081s10.082 4.523 10.082 10.081c-.001 5.559-4.523 10.082-10.082 10.082z"/></g><g id="XMLID_228_"><path id="XMLID_229_" d="m110.408 401.633c-16.587 0-30.082 13.495-30.082 30.082s13.495 30.081 30.082 30.081 30.081-13.494 30.081-30.081c.001-16.587-13.494-30.082-30.081-30.082zm0 40.163c-5.559 0-10.082-4.522-10.082-10.081 0-5.56 4.522-10.082 10.082-10.082 5.559 0 10.081 4.522 10.081 10.082.001 5.558-4.522 10.081-10.081 10.081z"/></g></svg>