<svg id="Line" height="128" width="128" viewBox="0 0 64 64" xmlns="http://www.w3.org/2000/svg"><path d="m55.44678 12.40039c-5.96975-6.48629-17.239-6.2856-23.439-.12578l-.11134-.11152a16.337 16.337 0 0 0 -23.82112 22.34033c.23135.261 20.73816 20.79931 20.73816 20.79931a4.51946 4.51946 0 0 0 6.38183-.00195l20.01856-20.01855a16.4319 16.4319 0 0 0 .23291-22.88184zm-45.25537 1.17676c5.72067-5.9306 15.811-5.42252 21.10541.81565a1.0008 1.0008 0 0 0 1.41412.00027c5.30146-5.9913 15.80495-6.57746 21.29347-.60673a14.42457 14.42457 0 0 1 .75541 19.02275h-9.13628l-7.09522-11.59909a2.11319 2.11319 0 0 0 -3.64014.02637l-8.19287 13.95601a.11441.11441 0 0 1 -.0957.063.09267.09267 0 0 1 -.0957-.04687l-5.28711-6.83151a2.15956 2.15956 0 0 0 -3.3955.07718l-3.17921 4.355h-5.4046a14.40043 14.40043 0 0 1 .95392-19.23203zm23.58984 40.30957a2.51678 2.51678 0 0 1 -3.5542.001l-19.094-19.07862h4.01733a.99947.99947 0 0 0 .80762-.41015l3.46777-4.751a.14874.14874 0 0 1 .22411-.02833l5.271 6.81153a2.12565 2.12565 0 0 0 3.50244-.2315c.125-.09866 8.10052-14.01958 8.29328-14.01608a.11017.11017 0 0 1 .10125.063l7.39215 12.08448a1.00018 1.00018 0 0 0 .853.478h7.7959z" fill="#fff"/></svg>