<svg width="95" height="95" viewBox="0 0 95 95" fill="none" xmlns="http://www.w3.org/2000/svg">
<path fill-rule="evenodd" clip-rule="evenodd" d="M13.7228 0.157522C13.162 0.389361 12.6904 0.976288 11.1054 3.41439C5.8089 11.561 2.05216 18.9769 1.27237 22.8248C0.787909 25.2159 1.13966 28.0256 2.2194 30.3899L2.67101 31.3786L2.04028 33.4598C1.32045 35.8346 0.595608 39.1693 0.23959 41.7447C-0.0759619 44.0269 -0.0809736 51.1486 0.231423 53.3459C1.01474 58.856 2.43769 63.5715 4.71264 68.1954C7.3707 73.5984 9.59646 76.7014 13.9032 81.0083C18.1763 85.2815 21.601 87.7424 26.6907 90.1976C30.0881 91.8366 32.3784 92.6749 35.8114 93.536C44.9654 95.8321 54.1669 95.4259 63.1902 92.3278C65.8628 91.4102 71.0167 88.834 73.5398 87.1546C80.5536 82.4862 86.1315 76.1784 89.8943 68.6595C98.0005 52.4616 96.2351 33.4823 85.2548 18.7822C83.4162 16.321 78.4413 11.3778 75.9051 9.4923C67.0942 2.94199 56.6245 -0.346062 45.8349 0.0483785C40.7539 0.233998 35.5855 1.22632 31.0995 2.8774C28.7408 3.74554 24.502 5.80183 22.561 7.01949C21.3461 7.78182 20.9686 7.94127 20.8401 7.74693C20.7496 7.61013 20.3692 6.99684 19.9948 6.3843C18.1158 3.30915 16.0556 0.417018 15.5942 0.206712C15.0318 -0.0494428 14.2716 -0.0694896 13.7228 0.157522ZM50.2029 4.61962C51.5844 4.7193 53.6908 4.97044 54.884 5.17759C72.6019 8.25422 86.6579 22.3251 89.7414 40.0717C92.6769 56.9664 85.4144 73.8368 71.1188 83.3304C52.981 95.376 28.5045 91.8413 14.5161 75.1561C5.6734 64.6089 2.47778 50.9113 5.67099 37.2435C5.87981 36.3503 6.09884 35.6193 6.15805 35.6193C6.21708 35.6193 6.65124 35.8667 7.12253 36.1693C9.65753 37.7961 12.3041 38.5046 15.2825 38.354C18.8824 38.1723 21.5464 36.9838 24.1174 34.4128C25.809 32.7212 26.7846 31.1695 27.5018 29.0298C27.9425 27.7149 28 27.2579 28.0036 25.039C28.0073 22.675 27.9724 22.4309 27.3864 20.7278C27.0446 19.7349 25.9879 17.338 25.0383 15.4013L23.3115 11.8799L24.1785 11.3366C30.7485 7.21903 37.5043 5.04951 45.278 4.56059C47.2348 4.43753 47.7649 4.44384 50.2029 4.61962ZM17.6291 11.2104C20.8054 16.471 23.3031 22.016 23.5908 24.4461C23.9743 27.6832 21.7697 31.428 18.5925 32.9369C15.0856 34.6023 11.195 34.0415 8.48423 31.4796C5.7521 28.8975 4.97789 25.7026 6.20056 22.0537C7.27901 18.8343 10.2315 13.187 13.3046 8.46527L14.6078 6.46244L15.39 7.62999C15.8203 8.27204 16.8278 9.88322 17.6291 11.2104ZM26.6032 42.3569C24.3806 43.2933 23.083 44.4984 22.1332 46.507C21.4378 47.9776 21.2335 49.9294 21.6838 50.8C22.2325 51.8611 23.6395 52.2584 24.7732 51.6722C25.44 51.3275 25.7906 50.6661 25.9495 49.454C26.1088 48.2392 26.7751 47.2669 27.7834 46.7789C29.9685 45.7211 32.3621 47.0287 32.68 49.454C32.9013 51.1419 33.6178 51.9538 34.8859 51.9538C36.9203 51.9538 37.6914 50.213 36.8518 47.5158C36.1487 45.2563 34.7196 43.613 32.5859 42.6105C31.5118 42.1058 31.1223 42.0258 29.5004 41.9756C27.8874 41.9259 27.5078 41.9758 26.6032 42.3569ZM61.6852 42.3569C59.4493 43.2991 58.1455 44.5071 57.2124 46.501C56.5546 47.9069 56.3229 49.7594 56.6932 50.6533C57.1792 51.8268 58.6437 52.2986 59.8552 51.6722C60.522 51.3275 60.8726 50.6661 61.0315 49.454C61.1908 48.2392 61.8571 47.2669 62.8654 46.7789C63.8943 46.2809 64.8948 46.2787 65.9146 46.7724C66.9524 47.2747 67.419 47.9557 67.7238 49.4121C68.1301 51.3538 68.6491 51.9538 69.923 51.9538C72.0038 51.9538 72.7812 50.2381 71.9338 47.5158C71.2307 45.2563 69.8016 43.613 67.6679 42.6105C66.5938 42.1058 66.2043 42.0258 64.5824 41.9756C62.9694 41.9259 62.5898 41.9758 61.6852 42.3569ZM45.4636 63.6797C41.8699 63.9247 38.6809 64.8279 35.2952 66.5598C33.0361 67.7154 30.1625 69.7591 29.7029 70.537C29.004 71.7202 29.5344 73.2472 30.8324 73.7896C31.7204 74.1607 32.2531 73.9667 34.1076 72.5965C42.2125 66.6086 52.6127 66.6086 60.7176 72.5965C62.5721 73.9667 63.1049 74.1607 63.9929 73.7896C64.8794 73.4191 65.4177 72.657 65.4177 71.7721C65.4177 70.7221 65.0344 70.2012 63.3163 68.9158C58.0937 65.0089 52.034 63.2316 45.4636 63.6797Z" fill="#fff"></path>
</svg>