<?xml version="1.0" encoding="iso-8859-1"?>
<!-- Uploaded to: SVG Repo, www.svgrepo.com, Generator: SVG Repo Mixer Tools -->
<svg fill="#fff" height="128" width="128" version="1.1" id="Layer_1" xmlns="http://www.w3.org/2000/svg" xmlns:xlink="http://www.w3.org/1999/xlink" 
	 viewBox="0 0 512 512" xml:space="preserve">
<g>
	<g>
		<g>
			<path d="M370.133,288c-8.64,0-16.32,2.987-24.32,6.08c-3.84,1.493-7.893,3.093-12.373,4.373
				c-9.707,2.773-42.667,7.147-61.333,9.493V42.987c0-5.333-3.84-10.133-9.067-10.88c-6.72-0.96-12.373,4.16-12.373,10.56V307.84
				c-18.773-2.347-51.627-6.72-61.333-9.493c-4.373-1.28-8.427-2.88-12.373-4.267c-8.107-3.093-15.787-6.08-24.427-6.08
				c-30.187,0-51.2,24.96-51.2,60.693c0,39.04,30.507,50.027,63.467,56.213c16.213,3.093,24,9.92,30.827,27.307
				c9.067,23.147,50.027,37.12,65.6,37.12c15.573,0,56.64-13.973,65.6-37.12c6.827-17.387,14.613-24.32,30.827-27.307
				c32.96-6.187,63.467-17.28,63.467-56.213C421.333,312.96,400.213,288,370.133,288z M353.92,384.107
				c-23.68,4.48-37.333,16.213-46.827,40.533c-4.16,10.56-33.707,23.573-45.76,23.573c-12.053,0-41.6-13.013-45.76-23.68
				c-9.6-24.32-23.147-36.053-46.827-40.533c-38.933-7.253-46.08-17.6-46.08-35.307c0-18.133,7.787-39.36,29.867-39.36
				c4.693,0,10.24,2.133,16.747,4.587c4.373,1.707,9.067,3.413,14.08,4.907c10.88,3.2,40.213,7.147,70.293,10.88l6.293,0.853
				c0.32,0,0.64,0,0.96,0s0.32,0.107,0.427,0.107c0.107,0,0.32-0.107,0.427-0.107c0.107,0,0.64,0,0.96,0l6.4-0.853
				c29.973-3.733,59.307-7.787,70.08-10.88c5.12-1.493,9.707-3.2,14.187-4.907c6.613-2.453,12.16-4.587,16.853-4.587
				c22.08,0,29.867,21.227,29.867,39.36C400,366.507,392.853,376.747,353.92,384.107z"/>
			<path d="M337.173,106.667c12.587,0,27.947-2.987,46.08-11.733c5.44-2.24,8-8.533,5.653-13.973c-2.24-5.44-8.533-8-13.973-5.653
				c-0.32,0.107-0.64,0.32-0.96,0.427c-41.6,20.053-61.653,2.773-62.72,1.813c-4.267-4.053-10.987-3.947-15.147,0.32
				c-4.053,4.267-3.947,10.987,0.32,15.147C297.387,93.76,311.147,106.667,337.173,106.667z"/>
			<path d="M308.907,118.507c-5.333-2.56-11.627-0.427-14.293,4.907c-2.56,5.12-0.533,11.413,4.48,14.08
				c1.387,0.747,23.573,11.84,53.973,11.84c17.92,0.107,35.52-3.947,51.627-11.733c5.333-2.56,7.467-8.96,4.907-14.293
				c-2.56-5.333-8.96-7.467-14.293-4.907C351.467,139.627,309.333,118.72,308.907,118.507z"/>
			<path d="M393.28,244.587c5.44-2.24,8.107-8.427,5.867-13.867c-2.24-5.44-8.427-8.107-13.867-5.867
				c-50.88,20.693-73.067,2.88-74.24,1.92c-4.48-3.84-11.2-3.307-15.04,1.067c-3.733,4.267-3.413,10.773,0.747,14.72
				c0.853,0.747,15.147,13.44,44.267,13.44C354.987,256,372.373,253.12,393.28,244.587z"/>
			<path d="M429.013,160c-77.227,22.187-119.36,1.173-120,0.853c-5.227-2.773-11.627-0.853-14.4,4.373
				c-2.773,5.227-0.853,11.627,4.373,14.4c1.28,0.747,22.933,11.947,62.827,11.947c19.947,0,44.373-2.773,73.173-11.093
				c5.653-1.6,8.96-7.467,7.36-13.12C440.747,161.707,434.773,158.4,429.013,160z"/>
			<path d="M138.347,94.507c0.32,0.107,0.64,0.32,1.067,0.427c18.24,8.747,33.6,11.733,46.08,11.733
				c26.027,0,39.787-12.907,40.64-13.653c4.267-4.16,4.267-10.88,0.213-15.147c-4.16-4.267-10.88-4.267-15.147-0.213
				c-0.213,0.213-20.587,18.24-62.613-1.92C143.36,72.96,136.96,74.88,134.08,80C131.307,85.227,133.227,91.627,138.347,94.507z"/>
			<path d="M117.973,137.6c16.107,7.787,33.707,11.84,51.627,11.733c30.4,0,52.587-11.2,53.973-11.947
				c5.12-2.88,7.04-9.387,4.16-14.507c-2.773-4.907-8.853-6.933-13.973-4.48c-0.427,0.213-42.24,21.333-86.4-0.107
				c-5.333-2.56-11.733-0.32-14.293,4.907S112.747,135.04,117.973,137.6z"/>
			<path d="M211.413,226.773c-0.213,0.213-22.613,18.88-74.133-2.027c-5.44-2.24-11.733,0.427-13.867,5.867
				c-2.24,5.44,0.427,11.733,5.867,13.867c20.907,8.533,38.293,11.413,52.267,11.413c29.12,0,43.413-12.693,44.267-13.44
				c4.373-3.947,4.587-10.773,0.64-15.04S215.787,222.827,211.413,226.773z"/>
			<path d="M211.84,180.587c5.547-2.133,8.213-8.32,6.08-13.76c-2.133-5.547-8.32-8.213-13.76-6.08
				c-0.533,0.213-59.307,22.187-120.533-0.107c-5.547-2.027-11.627,0.853-13.653,6.4c-2.027,5.547,0.853,11.627,6.4,13.653
				C97.6,188.267,120.107,192.107,142.72,192C181.653,192,210.027,181.333,211.84,180.587z"/>
			<path d="M445.653,0h-379.2C42.987,0,26.667,18.133,26.667,44.053V467.84c0,25.6,16.747,44.16,39.787,44.16h379.2
				c23.36,0,39.68-18.133,39.68-44.16V44.053C485.333,18.133,469.013,0,445.653,0z M464,467.84c0,11.093-4.8,22.827-18.347,22.827
				h-379.2C52.8,490.667,48,478.4,48,467.84V44.053c0-10.453,4.8-22.72,18.453-22.72h379.2C459.2,21.333,464,33.067,464,44.053
				V467.84z"/>
			<circle cx="160" cy="346.667" r="16"/>
			<circle cx="362.667" cy="346.667" r="16"/>
		</g>
	</g>
</g>
</svg>