<svg xmlns="http://www.w3.org/2000/svg" width="150" height="55" viewBox="0 0 150 55" fill="none"><path d="M138.055 0.000178749H11.9518C11.4921 0.000178749 11.038 0.00017875 10.5796 0.00292874C10.1958 0.00567873 9.81509 0.0136675 9.42764 0.0203912C8.58593 0.0312561 7.74619 0.112483 6.91573 0.263367C6.08644 0.417535 5.28313 0.708186 4.53296 1.12549C3.78372 1.54632 3.09911 2.09315 2.50397 2.74614C1.90571 3.39729 1.40702 4.14994 1.02706 4.97513C0.646059 5.79869 0.38187 6.6812 0.243619 7.59219C0.104055 8.50203 0.028954 9.42236 0.0189907 10.3449C0.0073581 10.7665 0.00612966 11.1895 0 11.6111V43.3931C0.00612966 43.82 0.0073581 44.2336 0.0189907 44.6607C0.0289571 45.5832 0.104058 46.5035 0.243619 47.4133C0.381488 48.3248 0.645693 49.2079 1.02706 50.0317C1.40685 50.8543 1.90561 51.6039 2.50397 52.2514C3.09685 52.9073 3.7819 53.4545 4.53296 53.8721C5.28312 54.2905 6.08635 54.5829 6.91573 54.7394C7.74633 54.8891 8.58598 54.9704 9.42764 54.9825C9.81509 54.9919 10.1958 54.9973 10.5796 54.9973C11.038 55 11.4922 55 11.9518 55H138.055C138.505 55 138.963 55 139.414 54.9973C139.796 54.9973 140.187 54.9919 140.569 54.9825C141.409 54.971 142.247 54.8898 143.076 54.7394C143.908 54.5818 144.715 54.2895 145.468 53.8721C146.219 53.4542 146.903 52.9071 147.495 52.2514C148.092 51.6013 148.592 50.8523 148.977 50.0317C149.355 49.2073 149.617 48.3243 149.753 47.4133C149.892 46.5034 149.97 45.5833 149.985 44.6607C149.99 44.2336 149.99 43.82 149.99 43.3931C150 42.8936 150 42.3968 150 41.8891V13.1123C150 12.6088 150 12.1093 149.99 11.6111C149.99 11.1895 149.99 10.7665 149.985 10.3449C149.97 9.42223 149.892 8.5021 149.753 7.59213C149.616 6.68167 149.355 5.79923 148.977 4.97508C148.203 3.32106 146.976 1.97471 145.468 1.12537C144.715 0.709082 143.908 0.418508 143.076 0.263243C142.248 0.111695 141.409 0.0304393 140.569 0.0201987C140.187 0.0134887 139.796 0.00543123 139.414 0.00274999C138.963 0 138.505 0 138.055 0V0.000178749Z" fill="white"></path><path d="M10.5035 53.9594C10.1211 53.9594 9.74788 53.954 9.36848 53.9446C8.5825 53.9333 7.79837 53.8578 7.0225 53.7189C6.29904 53.5815 5.59821 53.3261 4.94311 52.9608C4.29402 52.5986 3.702 52.1237 3.18973 51.5543C2.67004 50.9916 2.23737 50.3389 1.90887 49.6221C1.57676 48.9007 1.34692 48.1275 1.22735 47.3293C1.09823 46.4716 1.02837 45.6044 1.01837 44.7351C1.01042 44.4433 1 43.4717 1 43.4717V11.5104C1 11.5104 1.0111 10.5537 1.01844 10.2727C1.02801 9.40475 1.09746 8.53886 1.2262 7.68254C1.34598 6.88217 1.576 6.10667 1.9083 5.3829C2.23559 4.66664 2.66585 4.01348 3.18241 3.44873C3.69839 2.87861 4.2923 2.40126 4.9425 2.03406C5.59609 1.67002 6.2956 1.41633 7.01759 1.28148C7.79601 1.14114 8.58287 1.06526 9.37156 1.05449L10.5041 1.0376H139.49L140.636 1.05517C141.417 1.06541 142.197 1.1406 142.968 1.28012C143.698 1.41666 144.404 1.67213 145.065 2.03812C146.368 2.77812 147.428 3.94887 148.097 5.38627C148.424 6.10505 148.65 6.87422 148.768 7.66768C148.899 8.53103 148.971 9.40372 148.986 10.2788C148.99 10.6706 148.99 11.0915 148.99 11.5104C149 12.0292 149 12.523 149 13.0209V41.9773C149 42.48 149 42.9705 148.99 43.4649C148.99 43.9149 148.99 44.327 148.985 44.7513C148.971 45.6107 148.899 46.4678 148.771 47.3157C148.654 48.1197 148.425 48.899 148.093 49.6263C147.762 50.3353 147.332 50.9823 146.818 51.5435C146.306 52.116 145.712 52.5937 145.062 52.9582C144.403 53.3262 143.697 53.5827 142.968 53.7189C142.193 53.8586 141.408 53.934 140.622 53.9446C140.255 53.954 139.87 53.9594 139.496 53.9594L138.135 53.9621L10.5035 53.9594Z" fill="black"></path><path d="M36.7045 28.0134C36.7166 27.0356 36.9669 26.0769 37.4321 25.2264C37.8972 24.376 38.5621 23.6614 39.3648 23.1493C38.8548 22.3935 38.1821 21.7715 37.4 21.3327C36.6178 20.8939 35.7479 20.6504 34.8592 20.6216C32.9636 20.4151 31.1258 21.7987 30.1598 21.7987C29.1751 21.7987 27.6878 20.6421 26.0862 20.6763C25.0502 20.711 24.0406 21.0236 23.1557 21.5837C22.2708 22.1437 21.5408 22.9321 21.0368 23.872C18.8535 27.7946 20.482 33.5595 22.5734 36.7303C23.6198 38.2829 24.8427 40.0173 26.4428 39.9558C28.0086 39.8884 28.5935 38.9196 30.4836 38.9196C32.3561 38.9196 32.9048 39.9558 34.5374 39.9166C36.2176 39.8883 37.2762 38.3571 38.2859 36.7898C39.0377 35.6835 39.6162 34.4608 40 33.1669C39.0238 32.7385 38.1908 32.0213 37.6048 31.1049C37.0188 30.1884 36.7056 29.1132 36.7045 28.0134Z" fill="white"></path><path d="M33.6181 18.536C34.5342 17.3947 34.9856 15.9278 34.8763 14.4468C33.4767 14.5993 32.1838 15.2935 31.2553 16.391C30.8013 16.9271 30.4536 17.5509 30.2321 18.2266C30.0105 18.9022 29.9195 19.6166 29.9642 20.3288C30.6642 20.3363 31.3568 20.1788 31.9897 19.8683C32.6227 19.5577 33.1794 19.1022 33.6181 18.536Z" fill="white"></path><path d="M51.3061 14.3264C51.723 14.2953 52.1414 14.3607 52.531 14.5177C52.9206 14.6748 53.2717 14.9196 53.5591 15.2345C53.8465 15.5494 54.0629 15.9266 54.1928 16.3389C54.3227 16.7511 54.3629 17.1882 54.3103 17.6185C54.3103 19.7351 53.2079 20.9518 51.3061 20.9518H49V14.3264H51.3061ZM49.9916 20.0148H51.1954C51.4933 20.0333 51.7914 19.9826 52.068 19.8665C52.3447 19.7503 52.5929 19.5716 52.7945 19.3433C52.9962 19.1151 53.1463 18.843 53.2339 18.547C53.3215 18.2509 53.3444 17.9383 53.3009 17.632C53.3412 17.3268 53.316 17.0161 53.2271 16.7223C53.1382 16.4284 52.9877 16.1586 52.7865 15.9321C52.5852 15.7057 52.3382 15.5282 52.0632 15.4125C51.7881 15.2967 51.4917 15.2456 51.1954 15.2626H49.9916V20.0148Z" fill="white"></path><path d="M55.4326 18.4497C55.4023 18.1211 55.4386 17.7896 55.539 17.4764C55.6394 17.1632 55.8018 16.8753 56.0157 16.631C56.2296 16.3867 56.4904 16.1916 56.7813 16.058C57.0722 15.9245 57.3867 15.8555 57.7048 15.8555C58.0229 15.8555 58.3375 15.9245 58.6283 16.058C58.9192 16.1916 59.18 16.3867 59.3939 16.631C59.6079 16.8753 59.7702 17.1632 59.8707 17.4764C59.9711 17.7896 60.0073 18.1211 59.977 18.4497C60.0079 18.7786 59.9721 19.1106 59.8719 19.4243C59.7718 19.738 59.6095 20.0265 59.3955 20.2713C59.1815 20.516 58.9205 20.7116 58.6294 20.8454C58.3382 20.9793 58.0233 21.0484 57.7048 21.0484C57.3863 21.0484 57.0714 20.9793 56.7802 20.8454C56.4891 20.7116 56.2281 20.516 56.0141 20.2713C55.8001 20.0265 55.6378 19.738 55.5377 19.4243C55.4375 19.1106 55.4018 18.7786 55.4326 18.4497ZM58.9989 18.4497C58.9989 17.3659 58.5298 16.7321 57.7064 16.7321C56.8798 16.7321 56.4149 17.3659 56.4149 18.4497C56.4149 19.5422 56.8799 20.1711 57.7064 20.1711C58.5298 20.1711 58.9989 19.5379 58.9989 18.4497H58.9989Z" fill="white"></path><path d="M66.0143 20.9521H65.0279L64.0321 17.2696H63.9569L62.9653 20.9521H61.9883L60.6602 15.9521H61.6246L62.4877 19.7674H62.5588L63.5494 15.9521H64.4616L65.4522 19.7674H65.5274L66.3863 15.9521H67.3372L66.0143 20.9521Z" fill="white"></path><path d="M68.4531 15.952H69.3685V16.7463H69.4395C69.5601 16.461 69.7634 16.2219 70.0211 16.0622C70.2788 15.9025 70.5782 15.8303 70.8773 15.8555C71.1118 15.8372 71.3472 15.8739 71.5661 15.9628C71.785 16.0518 71.9819 16.1907 72.142 16.3693C72.3022 16.5479 72.4216 16.7616 72.4913 16.9946C72.5611 17.2275 72.5794 17.4738 72.545 17.7152V20.9519H71.5942V17.963C71.5942 17.1595 71.2577 16.7599 70.5545 16.7599C70.3953 16.7522 70.2364 16.7803 70.0887 16.8423C69.941 16.9043 69.8079 16.9987 69.6986 17.119C69.5894 17.2394 69.5065 17.3828 69.4556 17.5395C69.4047 17.6962 69.3871 17.8625 69.404 18.0269V20.952H68.4531L68.4531 15.952Z" fill="white"></path><path d="M74.0625 14H75.0134V20.9518H74.0625V14Z" fill="white"></path><path d="M76.3349 18.4498C76.3047 18.1212 76.3409 17.7897 76.4414 17.4765C76.5418 17.1632 76.7042 16.8753 76.9181 16.631C77.1321 16.3867 77.3929 16.1916 77.6838 16.058C77.9747 15.9245 78.2893 15.8555 78.6074 15.8555C78.9255 15.8555 79.2401 15.9245 79.531 16.058C79.8219 16.1916 80.0827 16.3867 80.2966 16.631C80.5106 16.8753 80.673 17.1632 80.7734 17.4765C80.8739 17.7897 80.9101 18.1212 80.8798 18.4498C80.9107 18.7788 80.8748 19.1107 80.7747 19.4244C80.6745 19.7382 80.5122 20.0266 80.2982 20.2714C80.0841 20.5161 79.8232 20.7117 79.532 20.8455C79.2408 20.9794 78.9259 21.0485 78.6074 21.0485C78.2889 21.0485 77.974 20.9794 77.6828 20.8455C77.3916 20.7117 77.1306 20.5161 76.9166 20.2714C76.7026 20.0266 76.5403 19.7382 76.4401 19.4244C76.3399 19.1107 76.3041 18.7788 76.3349 18.4498ZM79.9013 18.4498C79.9013 17.366 79.4321 16.7322 78.6087 16.7322C77.7822 16.7322 77.3172 17.366 77.3172 18.4498C77.3172 19.5423 77.7822 20.1712 78.6087 20.1712C79.4321 20.1712 79.9013 19.538 79.9013 18.4498H79.9013Z" fill="white"></path><path d="M81.8828 19.5379C81.8828 18.6379 82.5286 18.1191 83.6748 18.0453L84.98 17.9672V17.5357C84.98 17.0076 84.6435 16.7094 83.9936 16.7094C83.4627 16.7094 83.0949 16.9116 82.9894 17.2651H82.0688C82.166 16.4063 82.9445 15.8555 84.0374 15.8555C85.2454 15.8555 85.9267 16.4795 85.9267 17.5357V20.9519H85.0113V20.2493H84.9361C84.7834 20.5013 84.5689 20.7068 84.3147 20.8447C84.0604 20.9826 83.7754 21.0481 83.4889 21.0343C83.2866 21.0561 83.0822 21.0337 82.8887 20.9686C82.6953 20.9034 82.5172 20.7969 82.3659 20.6559C82.2146 20.5149 82.0934 20.3426 82.0102 20.15C81.927 19.9575 81.8836 19.749 81.8828 19.5379ZM84.98 19.1107V18.6927L83.8034 18.7707C83.1399 18.8168 82.8389 19.051 82.8389 19.4918C82.8389 19.9418 83.2151 20.2037 83.7324 20.2037C83.8839 20.2196 84.037 20.2037 84.1825 20.157C84.3281 20.1103 84.463 20.0336 84.5794 19.9317C84.6958 19.8297 84.7913 19.7044 84.8601 19.5634C84.9289 19.4224 84.9697 19.2684 84.98 19.1107Z" fill="white"></path><path d="M87.1758 18.4497C87.1758 16.8698 87.9584 15.8689 89.1758 15.8689C89.4769 15.8545 89.7757 15.9293 90.0374 16.0847C90.299 16.24 90.5126 16.4694 90.6533 16.7461H90.7243V14H91.6752V20.9518H90.7641V20.1618H90.6888C90.5373 20.4366 90.3162 20.6632 90.0495 20.817C89.7828 20.9707 89.4807 21.0458 89.1758 21.0342C87.9501 21.0342 87.1758 20.0334 87.1758 18.4497ZM88.158 18.4497C88.158 19.5102 88.6398 20.1483 89.4454 20.1483C90.2468 20.1483 90.7421 19.501 90.7421 18.454C90.7421 17.4119 90.2416 16.7554 89.4454 16.7554C88.6449 16.7554 88.158 17.3978 88.158 18.4497Z" fill="white"></path><path d="M95.6084 18.4497C95.5781 18.1211 95.6143 17.7896 95.7147 17.4764C95.8152 17.1632 95.9775 16.8753 96.1915 16.631C96.4054 16.3867 96.6662 16.1916 96.9571 16.058C97.2479 15.9245 97.5625 15.8555 97.8806 15.8555C98.1987 15.8555 98.5132 15.9245 98.8041 16.058C99.095 16.1916 99.3558 16.3867 99.5697 16.631C99.7836 16.8753 99.946 17.1632 100.046 17.4764C100.147 17.7896 100.183 18.1211 100.153 18.4497C100.184 18.7786 100.148 19.1106 100.048 19.4243C99.9476 19.738 99.7853 20.0265 99.5713 20.2713C99.3573 20.516 99.0963 20.7116 98.8051 20.8454C98.514 20.9793 98.199 21.0484 97.8806 21.0484C97.5621 21.0484 97.2472 20.9793 96.956 20.8454C96.6648 20.7116 96.4039 20.516 96.1899 20.2713C95.9759 20.0265 95.8136 19.738 95.7135 19.4243C95.6133 19.1106 95.5775 18.7786 95.6084 18.4497ZM99.1747 18.4497C99.1747 17.3659 98.7055 16.7321 97.8822 16.7321C97.0556 16.7321 96.5907 17.3659 96.5907 18.4497C96.5907 19.5422 97.0557 20.1711 97.8822 20.1711C98.7056 20.1711 99.1747 19.5379 99.1747 18.4497Z" fill="white"></path><path d="M101.43 15.952H102.345V16.7463H102.416C102.537 16.461 102.74 16.2219 102.998 16.0622C103.255 15.9025 103.555 15.8303 103.854 15.8555C104.088 15.8372 104.324 15.8739 104.543 15.9628C104.762 16.0518 104.958 16.1907 105.119 16.3693C105.279 16.5479 105.398 16.7616 105.468 16.9946C105.538 17.2275 105.556 17.4738 105.522 17.7152V20.9519H104.571V17.963C104.571 17.1595 104.234 16.7599 103.531 16.7599C103.372 16.7522 103.213 16.7803 103.065 16.8423C102.918 16.9043 102.784 16.9987 102.675 17.119C102.566 17.2394 102.483 17.3828 102.432 17.5395C102.381 17.6962 102.364 17.8625 102.381 18.0269V20.952H101.43V15.952Z" fill="white"></path><path d="M110.893 14.707V15.9746H111.936V16.8058H110.893V19.3768C110.893 19.9005 111.101 20.1299 111.574 20.1299C111.695 20.1295 111.816 20.1219 111.936 20.1071V20.929C111.766 20.9607 111.593 20.9776 111.419 20.9795C110.362 20.9795 109.941 20.5934 109.941 19.6294V16.8058H109.176V15.9746H109.941V14.707H110.893Z" fill="white"></path><path d="M113.234 14H114.177V16.7553H114.252C114.379 16.4674 114.587 16.2269 114.85 16.0666C115.113 15.9063 115.417 15.8341 115.721 15.8597C115.954 15.8465 116.188 15.8869 116.404 15.978C116.62 16.0691 116.815 16.2086 116.973 16.3867C117.132 16.5647 117.251 16.7769 117.321 17.008C117.391 17.2391 117.412 17.4835 117.381 17.7237V20.9518H116.429V17.9671C116.429 17.1685 116.07 16.764 115.398 16.764C115.235 16.7501 115.071 16.7734 114.917 16.8323C114.763 16.8912 114.623 16.9843 114.508 17.1051C114.392 17.2258 114.304 17.3713 114.248 17.5313C114.192 17.6914 114.171 17.8621 114.185 18.0316V20.9518H113.234L113.234 14Z" fill="white"></path><path d="M122.928 19.602C122.799 20.059 122.519 20.4542 122.137 20.7187C121.755 20.9831 121.296 21.0999 120.84 21.0485C120.523 21.0572 120.207 20.9941 119.916 20.8636C119.624 20.7331 119.363 20.5383 119.151 20.2928C118.94 20.0472 118.782 19.7568 118.689 19.4417C118.596 19.1265 118.571 18.7942 118.614 18.4678C118.572 18.1403 118.598 17.8073 118.691 17.4912C118.783 17.1751 118.94 16.8833 119.151 16.6356C119.361 16.3879 119.621 16.1901 119.912 16.0555C120.202 15.9209 120.517 15.8527 120.836 15.8556C122.176 15.8556 122.985 16.806 122.985 18.3761V18.7204H119.583V18.7757C119.568 18.9592 119.59 19.1439 119.648 19.3179C119.706 19.492 119.798 19.6516 119.919 19.7864C120.04 19.9213 120.187 20.0285 120.35 20.1011C120.513 20.1737 120.689 20.2102 120.866 20.2081C121.094 20.2364 121.324 20.1939 121.528 20.086C121.732 19.9781 121.901 19.8096 122.012 19.602L122.928 19.602ZM119.583 17.9906H122.017C122.029 17.8228 122.007 17.6543 121.952 17.4958C121.897 17.3373 121.812 17.1925 121.7 17.0705C121.588 16.9485 121.453 16.8521 121.303 16.7875C121.154 16.7229 120.993 16.6915 120.831 16.6954C120.666 16.6932 120.503 16.7253 120.351 16.7896C120.198 16.854 120.06 16.9493 119.944 17.07C119.827 17.1907 119.735 17.3344 119.674 17.4925C119.612 17.6506 119.581 17.82 119.583 17.9906H119.583Z" fill="white"></path><path d="M57.4263 33.3518H52.3615L51.1452 37.0787H49L53.7972 23.29H56.0261L60.8233 37.0787H58.6415L57.4263 33.3518ZM52.8861 31.632H56.9007L54.9216 25.5835H54.8662L52.8861 31.632Z" fill="white"></path><path d="M71.1839 32.0531C71.1839 35.1771 69.5727 37.1842 67.1411 37.1842C66.5252 37.2176 65.9126 37.0704 65.3735 36.7593C64.8345 36.4483 64.3907 35.986 64.0931 35.4254H64.0471V40.4047H62.0586V27.026H63.9834V28.6981H64.0199C64.3313 28.1401 64.7825 27.6802 65.3257 27.3673C65.8688 27.0543 66.4836 26.9 67.1046 26.9208C69.5632 26.9208 71.1839 28.9377 71.1839 32.0531ZM69.1401 32.0531C69.1401 30.0177 68.1265 28.6796 66.58 28.6796C65.0607 28.6796 64.0387 30.0459 64.0387 32.0531C64.0387 34.0786 65.0607 35.4352 66.58 35.4352C68.1265 35.4352 69.1401 34.1068 69.1401 32.0531Z" fill="white"></path><path d="M81.8441 32.053C81.8441 35.1771 80.2328 37.1842 77.8013 37.1842C77.1853 37.2176 76.5728 37.0704 76.0337 36.7593C75.4946 36.4483 75.0509 35.986 74.7532 35.4254H74.7072V40.4047H72.7188V27.026H74.6435V28.698H74.6801C74.9914 28.1401 75.4426 27.6802 75.9858 27.3673C76.529 27.0543 77.1437 26.9 77.7647 26.9208C80.2234 26.9208 81.8441 28.9377 81.8441 32.053ZM79.8002 32.053C79.8002 30.0177 78.7866 28.6796 77.2402 28.6796C75.7208 28.6796 74.6989 30.0459 74.6989 32.053C74.6989 34.0786 75.7208 35.4351 77.2402 35.4351C78.7866 35.4351 79.8002 34.1068 79.8002 32.053H79.8002Z" fill="white"></path><path d="M88.8949 33.2373C89.0423 34.6046 90.3223 35.5024 92.0715 35.5024C93.7475 35.5024 94.9534 34.6046 94.9534 33.3717C94.9534 32.3014 94.2261 31.6606 92.5041 31.2214L90.7821 30.7909C88.3422 30.1793 87.2095 28.9952 87.2095 27.0737C87.2095 24.6947 89.2074 23.0605 92.0443 23.0605C94.852 23.0605 96.7768 24.6947 96.8415 27.0737H94.8342C94.7141 25.6977 93.6179 24.8671 92.0161 24.8671C90.4142 24.8671 89.3181 25.7075 89.3181 26.9306C89.3181 27.9054 90.0182 28.4791 91.7308 28.9182L93.1947 29.2912C95.9209 29.9603 97.0536 31.0967 97.0536 33.1135C97.0536 35.6932 95.0735 37.3089 91.9241 37.3089C88.9774 37.3089 86.9879 35.7312 86.8594 33.2372L88.8949 33.2373Z" fill="white"></path><path d="M101.344 24.6475V27.0265H103.186V28.6607H101.344V34.2028C101.344 35.0638 101.713 35.465 102.523 35.465C102.741 35.461 102.96 35.4451 103.177 35.4172V37.0416C102.813 37.1122 102.443 37.1441 102.072 37.137C100.111 37.137 99.346 36.3725 99.346 34.4229V28.6607H97.9375V27.0265H99.346V24.6475H101.344Z" fill="white"></path><path d="M104.254 32.0535C104.254 28.8905 106.049 26.9028 108.848 26.9028C111.657 26.9028 113.444 28.8904 113.444 32.0535C113.444 35.2252 111.667 37.2042 108.848 37.2042C106.031 37.2042 104.254 35.2252 104.254 32.0535ZM111.418 32.0535C111.418 29.8837 110.46 28.6031 108.848 28.6031C107.237 28.6031 106.28 29.8935 106.28 32.0535C106.28 34.232 107.237 35.5028 108.848 35.5028C110.46 35.5028 111.418 34.232 111.418 32.0535H111.418Z" fill="white"></path><path d="M115.082 27.0259H116.979V28.737H117.025C117.153 28.2026 117.455 27.7303 117.879 27.3995C118.303 27.0688 118.824 26.8997 119.355 26.9207C119.584 26.9199 119.812 26.9457 120.036 26.9977V28.9278C119.747 28.8361 119.445 28.794 119.143 28.8031C118.854 28.791 118.566 28.8438 118.298 28.9581C118.031 29.0723 117.791 29.2452 117.594 29.465C117.397 29.6847 117.248 29.946 117.158 30.231C117.068 30.516 117.038 30.818 117.071 31.1161V37.0789H115.082L115.082 27.0259Z" fill="white"></path><path d="M129.204 34.1268C128.936 35.9518 127.223 37.2042 125.032 37.2042C122.214 37.2042 120.465 35.2448 120.465 32.1012C120.465 28.9479 122.223 26.9028 124.949 26.9028C127.629 26.9028 129.314 28.8135 129.314 31.8616V32.5686H122.472V32.6933C122.441 33.0633 122.485 33.436 122.603 33.7867C122.721 34.1374 122.909 34.458 123.156 34.7273C123.402 34.9967 123.701 35.2085 124.033 35.3487C124.364 35.489 124.721 35.5544 125.078 35.5408C125.548 35.5865 126.02 35.4735 126.423 35.2188C126.826 34.964 127.139 34.581 127.315 34.1268L129.204 34.1268ZM122.482 31.1264H127.325C127.343 30.7937 127.294 30.4608 127.182 30.1486C127.07 29.8363 126.897 29.5515 126.674 29.3119C126.451 29.0723 126.182 28.8832 125.885 28.7563C125.589 28.6295 125.27 28.5677 124.949 28.5749C124.625 28.5729 124.304 28.6375 124.004 28.7649C123.705 28.8923 123.432 29.08 123.203 29.3172C122.973 29.5544 122.792 29.8364 122.668 30.147C122.544 30.4575 122.481 30.7904 122.482 31.1264V31.1264Z" fill="white"></path></svg>