<svg xmlns="http://www.w3.org/2000/svg" width="148" height="55" viewBox="0 0 148 55" fill="none"><path d="M142.519 55H5.48148C2.46667 55 0 51.9062 0 48.125V6.875C0 3.09375 2.46667 0 5.48148 0H142.519C145.533 0 148 3.09375 148 6.875V48.125C148 51.9062 145.533 55 142.519 55Z" fill="black"></path><path d="M142.519 1.1C145.062 1.1 147.123 3.685 147.123 6.875V48.125C147.123 51.315 145.062 53.9 142.519 53.9H5.48148C2.93807 53.9 0.877037 51.315 0.877037 48.125V6.875C0.877037 3.685 2.93807 1.1 5.48148 1.1H142.519ZM142.519 0H5.48148C2.46667 0 0 3.09375 0 6.875V48.125C0 51.9062 2.46667 55 5.48148 55H142.519C145.533 55 148 51.9062 148 48.125V6.875C148 3.09375 145.533 0 142.519 0Z" fill="white"></path><path d="M13.4116 16.956C13.1595 17.2284 13.0117 17.6502 13.0117 18.1861V37.6216C13.0117 38.1663 13.1595 38.5881 13.4116 38.8517L13.4725 38.9132L24.2431 28.0357V27.9039V27.7721L13.4725 16.8945L13.4116 16.956Z" fill="url(#paint0_linear_1049_764)"></path><path d="M27.8285 31.6647L24.2383 28.0359V27.9041V27.7723L27.8285 24.1436L27.9067 24.1875L32.1577 26.6301C33.3747 27.3242 33.3747 28.4665 32.1577 29.1694L27.9067 31.612L27.8285 31.6647Z" fill="url(#paint1_linear_1049_764)"></path><path d="M27.9102 31.6112L24.2417 27.9033L13.4102 38.8511C13.81 39.2817 14.4707 39.3344 15.2183 38.9039L27.9102 31.6112Z" fill="url(#paint2_linear_1049_764)"></path><path d="M27.9071 24.1959L15.2066 16.9032C14.459 16.4727 13.7983 16.5254 13.3984 16.9559L24.2387 27.9038L27.9071 24.1959Z" fill="url(#paint3_linear_1049_764)"></path><path opacity="0.2" d="M27.828 31.5317L15.2057 38.7805C14.5016 39.1847 13.867 39.1583 13.4671 38.7893L13.4062 38.8508L13.4671 38.9123C13.8757 39.2813 14.5016 39.3077 15.2057 38.9035L27.9063 31.6108L27.828 31.5317Z" fill="black"></path><path opacity="0.12" d="M13.4077 38.7277C13.1556 38.4553 13.0078 38.0335 13.0078 37.4976V37.6294C13.0078 38.1741 13.1556 38.5959 13.4077 38.8594L13.4685 38.7979L13.4077 38.7277Z" fill="black"></path><path opacity="0.12" d="M32.1581 29.0455L27.8203 31.5321L27.8986 31.6112L32.1495 29.1686C32.758 28.8171 33.0622 28.3602 33.0622 27.9033C33.0188 28.3163 32.7145 28.7292 32.1581 29.0455Z" fill="black"></path><path opacity="0.25" d="M15.208 17.0263L32.1595 26.7616C32.7072 27.0779 33.0201 27.4821 33.0723 27.9038C33.0723 27.4469 32.768 26.9812 32.1595 26.6386L15.208 16.9033C13.991 16.2092 13 16.7891 13 18.1949V18.3267C13 16.9121 13.9997 16.3322 15.208 17.0263Z" fill="white"></path><path d="M48.7248 16.7342C48.7248 17.665 48.4508 18.4074 47.9026 18.9503C47.2887 19.6041 46.4774 19.9365 45.4908 19.9365C44.537 19.9365 43.7367 19.6041 43.0679 18.9392C42.3992 18.2744 42.0703 17.4433 42.0703 16.4682C42.0703 15.4821 42.3992 14.6621 43.0679 13.9973C43.7367 13.3324 44.537 13 45.4908 13C45.9622 13 46.4116 13.0886 46.8392 13.277C47.2668 13.4654 47.6066 13.7092 47.8697 14.0194L47.2887 14.6067C46.8502 14.0859 46.2582 13.82 45.4908 13.82C44.8001 13.82 44.1971 14.0637 43.6928 14.5624C43.1885 15.0499 42.9364 15.6926 42.9364 16.4793C42.9364 17.2661 43.1885 17.9087 43.6928 18.3963C44.1971 18.8838 44.8001 19.1387 45.4908 19.1387C46.2253 19.1387 46.8392 18.8949 47.3325 18.3963C47.6505 18.0749 47.8368 17.6206 47.8807 17.0444H45.4908V16.2466H48.681C48.7029 16.4128 48.7248 16.5791 48.7248 16.7342Z" fill="white" stroke="white" stroke-width="0.2" stroke-miterlimit="10"></path><path d="M53.7745 13.9635H50.7816V16.0688H53.4785V16.8667H50.7816V18.972H53.7745V19.7919H49.9375V13.1436H53.7745V13.9635Z" fill="white" stroke="white" stroke-width="0.2" stroke-miterlimit="10"></path><path d="M57.3422 19.7919H56.498V13.9635H54.6562V13.1436H59.173V13.9635H57.3312V19.7919H57.3422Z" fill="white" stroke="white" stroke-width="0.2" stroke-miterlimit="10"></path><path d="M62.4531 19.7919V13.1436H63.2973V19.7919H62.4531Z" fill="white" stroke="white" stroke-width="0.2" stroke-miterlimit="10"></path><path d="M67.0453 19.7919H66.2012V13.9635H64.3594V13.1436H68.8761V13.9635H67.0343V19.7919H67.0453Z" fill="white" stroke="white" stroke-width="0.2" stroke-miterlimit="10"></path><path d="M77.4369 18.9281C76.7901 19.6041 75.9898 19.9365 75.025 19.9365C74.0603 19.9365 73.26 19.6041 72.6132 18.9281C71.9664 18.2522 71.6484 17.4323 71.6484 16.4682C71.6484 15.5042 71.9664 14.6732 72.6132 14.0083C73.26 13.3324 74.0603 13 75.025 13C75.9788 13 76.7791 13.3324 77.4369 14.0083C78.0837 14.6843 78.4126 15.5042 78.4126 16.4682C78.4016 17.4433 78.0837 18.2633 77.4369 18.9281ZM73.2381 18.3741C73.7204 18.8727 74.3234 19.1165 75.025 19.1165C75.7267 19.1165 76.3296 18.8727 76.812 18.3741C77.2944 17.8755 77.5465 17.2439 77.5465 16.4682C77.5465 15.6926 77.3053 15.061 76.812 14.5624C76.3296 14.0637 75.7267 13.82 75.025 13.82C74.3234 13.82 73.7204 14.0637 73.2381 14.5624C72.7557 15.061 72.5035 15.6926 72.5035 16.4682C72.5035 17.2439 72.7557 17.8755 73.2381 18.3741Z" fill="white" stroke="white" stroke-width="0.2" stroke-miterlimit="10"></path><path d="M79.5938 19.7919V13.1436H80.6243L83.8255 18.3182H83.8583L83.8255 17.0329V13.1436H84.6696V19.7919H83.7926L80.4489 14.3735H80.416L80.4489 15.6589V19.7919H79.5938Z" fill="white" stroke="white" stroke-width="0.2" stroke-miterlimit="10"></path><path d="M71.7799 29.1444C69.2036 29.1444 67.0988 31.1279 67.0988 33.8537C67.0988 36.5685 69.2036 38.563 71.7799 38.563C74.3562 38.563 76.4611 36.5685 76.4611 33.8537C76.4611 31.1279 74.3562 29.1444 71.7799 29.1444ZM71.7799 36.7125C70.3657 36.7125 69.1488 35.538 69.1488 33.8537C69.1488 32.1584 70.3657 30.9949 71.7799 30.9949C73.1942 30.9949 74.4111 32.1584 74.4111 33.8537C74.4111 35.538 73.1832 36.7125 71.7799 36.7125ZM61.5625 29.1444C58.9862 29.1444 56.8813 31.1279 56.8813 33.8537C56.8813 36.5685 58.9862 38.563 61.5625 38.563C64.1388 38.563 66.2436 36.5685 66.2436 33.8537C66.2436 31.1279 64.1388 29.1444 61.5625 29.1444ZM61.5625 36.7125C60.1482 36.7125 58.9313 35.538 58.9313 33.8537C58.9313 32.1584 60.1482 30.9949 61.5625 30.9949C62.9767 30.9949 64.1936 32.1584 64.1936 33.8537C64.1936 35.538 62.9767 36.7125 61.5625 36.7125ZM49.4155 30.596V32.5905H54.1515C54.009 33.7097 53.6362 34.5407 53.0771 35.1058C52.3865 35.8039 51.3121 36.5685 49.4265 36.5685C46.5103 36.5685 44.23 34.1972 44.23 31.2498C44.23 28.3023 46.5103 25.931 49.4265 25.931C50.9942 25.931 52.1453 26.5516 52.9894 27.3604L54.3817 25.9532C53.1977 24.8119 51.63 23.9365 49.4155 23.9365C45.425 23.9365 42.0703 27.2164 42.0703 31.2608C42.0703 35.2942 45.425 38.5851 49.4155 38.5851C51.5752 38.5851 53.1977 37.876 54.4694 36.5352C55.774 35.2166 56.1796 33.3551 56.1796 31.8592C56.1796 31.3938 56.1468 30.9617 56.07 30.6071H49.4155V30.596ZM99.0887 32.1473C98.705 31.0946 97.521 29.1444 95.0982 29.1444C92.6973 29.1444 90.702 31.0503 90.702 33.8537C90.702 36.4909 92.6754 38.563 95.3284 38.563C97.4662 38.563 98.705 37.2444 99.2093 36.4798L97.6197 35.405C97.0934 36.1917 96.3699 36.7125 95.3284 36.7125C94.2869 36.7125 93.5414 36.225 93.07 35.2831L99.3079 32.6792L99.0887 32.1473ZM92.7302 33.7207C92.6754 31.9035 94.1225 30.9727 95.1639 30.9727C95.9752 30.9727 96.6659 31.3827 96.8961 31.97L92.7302 33.7207ZM87.6653 38.286H89.7154V24.4352H87.6653V38.286ZM84.3106 30.1971H84.2339C83.7734 29.6431 82.8964 29.1444 81.7782 29.1444C79.4431 29.1444 77.3053 31.2165 77.3053 33.8759C77.3053 36.5131 79.4431 38.5741 81.7782 38.5741C82.8854 38.5741 83.7734 38.0754 84.2339 37.4992H84.2996V38.1752C84.2996 39.9813 83.3459 40.9453 81.8111 40.9453C80.5613 40.9453 79.7829 40.0367 79.465 39.2721L77.678 40.0256C78.1933 41.2777 79.5527 42.8069 81.8111 42.8069C84.2119 42.8069 86.2401 41.3775 86.2401 37.8981V29.4325H84.2996V30.1971H84.3106ZM81.9536 36.7125C80.5394 36.7125 79.3554 35.5158 79.3554 33.8759C79.3554 32.2138 80.5394 31.006 81.9536 31.006C83.3459 31.006 84.4422 32.2249 84.4422 33.8759C84.4531 35.5158 83.3568 36.7125 81.9536 36.7125ZM108.692 24.4352H103.792V38.286H105.842V33.0337H108.703C110.973 33.0337 113.198 31.3716 113.198 28.7344C113.198 26.0973 110.951 24.4352 108.692 24.4352ZM108.736 31.1057H105.831V26.3521H108.736C110.271 26.3521 111.137 27.6375 111.137 28.7234C111.137 29.8093 110.271 31.1057 108.736 31.1057ZM121.387 29.1223C119.907 29.1223 118.373 29.7871 117.737 31.2387L119.557 32.0032C119.94 31.2387 120.664 30.9838 121.42 30.9838C122.473 30.9838 123.558 31.6265 123.569 32.7678V32.9119C123.196 32.7013 122.407 32.38 121.431 32.38C119.469 32.38 117.485 33.4659 117.485 35.4936C117.485 37.3441 119.085 38.5408 120.883 38.5408C122.253 38.5408 123.021 37.9203 123.492 37.189H123.558V38.2638H125.531V32.9562C125.542 30.4963 123.722 29.1223 121.387 29.1223ZM121.135 36.7125C120.466 36.7125 119.535 36.369 119.535 35.538C119.535 34.4742 120.697 34.0642 121.705 34.0642C122.604 34.0642 123.032 34.2637 123.569 34.5296C123.416 35.8039 122.319 36.7125 121.135 36.7125ZM132.734 29.4214L130.388 35.4272H130.322L127.888 29.4214H125.685L129.336 37.8206L127.253 42.4855H129.39L135.014 29.4214H132.734ZM114.316 38.286H116.366V24.4352H114.316V38.286Z" fill="white"></path><defs><linearGradient id="paint0_linear_1049_764" x1="23.2866" y1="17.9838" x2="8.54184" y2="32.572" gradientUnits="userSpaceOnUse"><stop stop-color="#00A0FF"></stop><stop offset="0.00657445" stop-color="#00A1FF"></stop><stop offset="0.2601" stop-color="#00BEFF"></stop><stop offset="0.5122" stop-color="#00D2FF"></stop><stop offset="0.7604" stop-color="#00DFFF"></stop><stop offset="1" stop-color="#00E3FF"></stop></linearGradient><linearGradient id="paint1_linear_1049_764" x1="33.7436" y1="27.9054" x2="12.7091" y2="27.9054" gradientUnits="userSpaceOnUse"><stop stop-color="#FFE000"></stop><stop offset="0.4087" stop-color="#FFBD00"></stop><stop offset="0.7754" stop-color="#FFA500"></stop><stop offset="1" stop-color="#FF9C00"></stop></linearGradient><linearGradient id="paint2_linear_1049_764" x1="25.9169" y1="29.9208" x2="5.9217" y2="49.7035" gradientUnits="userSpaceOnUse"><stop stop-color="#FF3A44"></stop><stop offset="1" stop-color="#C31162"></stop></linearGradient><linearGradient id="paint3_linear_1049_764" x1="10.6752" y1="10.4858" x2="19.6039" y2="19.3196" gradientUnits="userSpaceOnUse"><stop stop-color="#32A071"></stop><stop offset="0.0685" stop-color="#2DA771"></stop><stop offset="0.4762" stop-color="#15CF74"></stop><stop offset="0.8009" stop-color="#06E775"></stop><stop offset="1" stop-color="#00F076"></stop></linearGradient></defs></svg>