<svg xmlns="http://www.w3.org/2000/svg" width="60" height="60" viewBox="0 0 60 60" fill="none"><path fill-rule="evenodd" clip-rule="evenodd" d="M27.1474 0.0743911C17.7867 1.03451 9.53292 6.15756 4.53495 14.1095C-1.17447 23.1935 -1.519 34.9664 3.6497 44.3662C7.33293 51.0646 13.3502 56.0773 20.6236 58.5064C23.8115 59.5711 26.3692 59.9691 30.0223 59.9691C33.4378 59.9691 35.6781 59.6578 38.5845 58.7793C48.0349 55.9233 55.4719 48.7009 58.5371 39.4025C59.6045 36.1642 59.9994 33.6401 60 30.0501C60.0006 27.0111 59.8002 25.3199 59.123 22.6497C58.5474 20.3804 58.0273 18.9739 56.9561 16.7901C55.5086 13.8393 53.8835 11.5301 51.5691 9.13519C46.8898 4.29295 41.0435 1.2929 34.2467 0.246419C32.7756 0.0198257 28.6529 -0.080035 27.1474 0.0743911ZM34.0045 2.23647C38.8061 2.93902 43.6009 5.00289 47.4405 8.01995C48.6014 8.93219 51.314 11.679 52.1612 12.8004C53.9722 15.1974 55.6165 18.2051 56.4677 20.6784C57.5681 23.8756 58.0006 26.5038 58 29.9914C57.9994 32.8388 57.8236 34.3186 57.1837 36.8618C55.1957 44.7639 49.7186 51.5229 42.4022 55.1034C39.599 56.4751 37.0167 57.2851 33.9534 57.7534C32.0032 58.0514 28.0571 58.0527 26.0913 57.7561C19.8682 56.8166 14.2555 53.9502 9.95184 49.5134C7.71946 47.2122 6.23352 45.0991 4.84627 42.254C3.52344 39.5406 2.68653 36.8492 2.254 33.9166C1.96838 31.9808 1.96838 28.0021 2.254 26.0662C2.48939 24.4701 3.07577 22.0983 3.61884 20.5451C4.46795 18.1168 6.33808 14.753 8.05085 12.5732C8.96309 11.4123 11.7099 8.69973 12.8313 7.85249C16.9443 4.74496 21.8504 2.71207 26.502 2.18778C27.1151 2.11878 27.8016 2.04063 28.0274 2.01434C28.8669 1.91636 32.8215 2.06339 34.0045 2.23647ZM28.0274 4.02141C25.0887 4.24214 21.6497 5.16365 18.9061 6.46536C8.57209 11.3686 2.6342 22.4392 4.27327 33.7465C5.76086 44.008 13.4488 52.5855 23.4583 55.1509C25.9536 55.7904 27.4086 55.9726 30.0223 55.9726C34.3285 55.9726 37.9127 55.1315 41.6706 53.2395C49.3334 49.3813 54.4862 42.2297 55.7997 33.6291C56.0655 31.8886 56.1018 26.565 55.8552 25.4736C55.6572 24.5968 54.5863 21.3318 54.0847 20.0757C51.764 14.2631 46.9815 9.24163 41.1061 6.44881C37.1463 4.5666 32.4282 3.69097 28.0274 4.02141ZM33.8947 6.30636C38.8705 7.1158 43.4074 9.44334 46.9896 13.0245C48.2076 14.2422 49.8492 16.2914 50.4196 17.3063L50.6698 17.7514L49.7007 17.2484C49.1679 16.9717 48.2581 16.5996 47.6792 16.4216C46.6997 16.1204 46.4841 16.098 44.5731 16.099C42.8386 16.1 42.3792 16.1391 41.6162 16.3507C39.7183 16.8773 38.1609 17.7724 36.6669 19.1954C35.5244 20.2838 34.865 21.1958 34.1943 22.616C33.4902 24.1067 33.1852 25.3122 33.1057 26.9198L33.0397 28.2486L32.4404 28.1519C30.7249 27.8751 28.7187 28.1248 27.8839 28.7193C27.7056 28.8462 27.5063 28.9171 27.4411 28.8769C27.3757 28.8365 27.679 28.5191 28.115 28.1715C29.4163 27.1338 30.4403 25.7333 30.8 24.4992C31.0378 23.6833 31.029 22.0724 30.782 21.2167C30.365 19.7715 29.7741 18.9674 27.9359 17.3431C26.5576 16.1253 26.0326 14.9029 26.0326 12.9118C26.0326 10.2603 27.3218 7.82328 29.4775 6.4007L30.1983 5.92487L31.3131 5.99633C31.9262 6.03564 33.088 6.17516 33.8947 6.30636ZM26.0447 6.87313C25.3474 7.75521 24.9128 8.57957 24.4961 9.81052C24.1695 10.7756 24.1122 11.1269 24.0638 12.4639C23.9972 14.3048 24.1878 15.3513 24.8253 16.6439C25.1743 17.3513 25.5052 17.7506 26.7952 19.0205C28.6773 20.8733 28.8737 21.2072 28.9425 22.6692C28.9849 23.5705 28.9542 23.8241 28.7462 24.2943C28.2053 25.5169 26.9974 26.7232 25.3967 27.6391L24.7682 27.9987L18.6419 27.9683L12.5158 27.9379L12.2492 27.0972C11.9241 26.0714 11.6246 25.5713 10.9949 25.0024C10.2195 24.3019 9.59523 24.0805 8.37214 24.0724C7.79128 24.0686 7.17346 24.1102 6.9992 24.1648L6.68237 24.264L6.92011 23.402C7.05083 22.9279 7.43936 21.8375 7.7833 20.9787C10.3634 14.538 15.8015 9.42961 22.4493 7.20205C23.6241 6.80836 25.6834 6.30847 26.182 6.29591L26.5075 6.2877L26.0447 6.87313ZM47.2134 18.3717C49.319 19.0392 51.0393 20.3087 52.3054 22.1293C53.0325 23.1748 53.2338 23.6701 53.5527 25.199C54.1185 27.9115 54.0623 30.0927 53.3572 32.7847C53.0401 33.9953 52.6768 34.5755 51.5034 35.7448C50.3819 36.8626 49.3307 37.6178 47.5067 38.6166C46.8291 38.9878 46.103 39.4535 45.8932 39.6516C45.6834 39.8497 45.5119 39.9589 45.5119 39.8944C45.5119 39.8299 45.2083 39.473 44.8371 39.1016C44.2208 38.4846 43.7793 38.2338 39.735 36.2037C37.2998 34.9813 35.1704 33.9811 35.0028 33.9811C34.6131 33.9811 34.012 34.5712 34.012 34.9537C34.012 35.5657 34.4269 35.8307 38.8265 38.0312C41.9825 39.6096 43.256 40.3058 43.5601 40.6189C44.2449 41.3241 44.5774 42.7272 44.3404 43.9122C43.7889 46.6694 42.9283 48.2659 40.5171 51.0049C39.6309 52.0115 39.5859 52.0437 38.4836 52.4659C35.3288 53.6741 31.4417 54.23 28.2035 53.9361C23.3469 53.4953 19.3237 51.9628 15.4943 49.0947C14.2829 48.1874 11.6701 45.6549 11.5477 45.2694C11.3815 44.7453 12.5211 42.282 13.5015 41.0466C14.3957 39.9197 17.2608 37.6336 20.2097 35.694C21.5963 34.7819 21.9178 34.5181 21.9784 34.242C22.071 33.8206 21.8924 33.3305 21.5868 33.1669C21.0702 32.8904 20.6395 33.0242 19.3592 33.8591L18.1067 34.6757L16.349 34.4505C15.3823 34.3266 13.4153 34.1482 11.9778 34.0542C9.49795 33.8921 9.32557 33.8653 8.61234 33.5316C7.17592 32.8593 6.36695 31.7975 6.07206 30.1972C5.80439 28.7446 6.36788 26.8617 7.2475 26.269C7.92329 25.8136 9.17724 25.9585 9.75094 26.5584C9.94433 26.7604 10.2018 27.322 10.4374 28.0552C10.7149 28.9186 10.9151 29.3295 11.1951 29.61L11.5757 29.9914H18.1464C24.4657 29.9914 24.7473 30.0007 25.5057 30.235L26.2944 30.4786L26.1929 30.9684C26.137 31.2378 26.0963 32.0127 26.1025 32.6903C26.1153 34.0826 26.3697 35.0099 27.2276 36.792C27.7653 37.9086 27.7692 37.8478 27.0623 39.3534C26.3182 40.9382 23.8518 42.8184 21.2255 43.8032C20.2207 44.18 19.9306 44.4555 19.9306 45.0332C19.9306 45.5137 20.1841 45.8331 20.6666 45.9609C21.0149 46.0531 22.3009 45.5926 23.7212 44.867C26.1099 43.6467 28.1512 41.8227 28.8475 40.2864L29.0478 39.8444L30.1472 41.2252C30.7518 41.9847 32.0417 43.4113 33.0137 44.3955C34.6715 46.0743 34.8082 46.185 35.2232 46.185C35.8009 46.185 36.242 45.7678 36.2408 45.2222C36.2402 44.8825 36.0297 44.6211 34.5068 43.0682C30.9497 39.4412 28.8913 36.4071 28.2397 33.8304C27.6411 31.4633 28.3464 30.1963 30.3565 30.0278C32.0548 29.8853 34.3129 30.605 36.7264 32.0579C37.5322 32.543 38.0786 32.5802 38.4586 32.1757C38.6564 31.965 38.7124 31.7844 38.6844 31.4463C38.6529 31.0658 38.5612 30.9318 38.0874 30.5747C37.7796 30.3425 36.9987 29.8919 36.3523 29.5733C35.4647 29.1358 35.1596 28.9263 35.1066 28.7176C34.9722 28.1877 35.163 25.8426 35.4075 25.0183C36.425 21.5888 38.9649 19.1072 42.3342 18.2508C43.5791 17.9344 46.025 17.995 47.2134 18.3717ZM48.2344 28.8212C47.8107 29.216 47.7827 29.6097 48.1342 30.2349C48.5072 30.8985 48.5269 31.2679 48.2075 31.6107C47.8103 32.0371 47.4087 32.0656 46.776 31.7123C46.0613 31.3133 45.8093 31.3188 45.3855 31.7426C44.8459 32.2821 44.9806 32.9341 45.734 33.4287C47.2614 34.4314 49.1538 34.0165 50.0564 32.481C50.3392 31.9998 50.3815 31.8051 50.38 30.9888C50.3783 29.9679 50.2466 29.6072 49.6382 28.9558C49.2182 28.5063 48.6327 28.4501 48.2344 28.8212ZM7.25478 35.0828C8.46496 35.7183 9.0836 35.8659 11.0124 35.9794C12.7816 36.0834 15.7062 36.3352 15.7062 36.3835C15.7062 36.3967 15.2563 36.764 14.7065 37.1997C12.4742 38.9689 11.0448 40.6867 10.2901 42.5077C10.1473 42.8522 10.0005 43.1335 9.96404 43.1327C9.84623 43.1301 8.68486 41.0872 8.1899 40.012C7.44241 38.3883 6.25253 34.5771 6.53416 34.7088C6.57688 34.7289 6.90122 34.8971 7.25478 35.0828ZM52.3066 38.9156C50.9326 42.3561 48.6856 45.5427 45.9078 47.99C45.2791 48.544 44.7468 48.9795 44.7251 48.9577C44.7032 48.936 44.845 48.5965 45.0401 48.2034C45.5362 47.2035 46.0506 45.6112 46.2798 44.3662C46.6029 42.6099 46.9078 41.4646 47.112 41.2389C47.2184 41.1212 47.7593 40.7798 48.3138 40.4798C49.5658 39.803 51.0815 38.7815 52.0832 37.9398C52.5027 37.5872 52.8639 37.3139 52.8857 37.3323C52.9077 37.3508 52.647 38.0632 52.3066 38.9156Z" fill="#D45BA1"></path></svg>