<svg xmlns="http://www.w3.org/2000/svg" width="40" height="60" viewBox="0 0 40 60" fill="none"><path fill-rule="evenodd" clip-rule="evenodd" d="M20.2069 0.172619C19.4878 0.429236 18.9582 0.918216 18.3084 1.92523C17.0395 3.89181 15.2884 5.78 13.6503 6.94826C13.2447 7.23745 12.3592 7.7392 11.6825 8.06331C10.2715 8.73907 9.48793 9.37558 8.84767 10.3662C8.19757 11.3719 7.91506 12.3757 7.9215 13.6565C7.93041 15.4172 8.50856 16.9979 9.58612 18.2069L10.1354 18.8231L9.52191 19.1444C9.18444 19.3211 8.68878 19.6766 8.42033 19.9345C7.90252 20.432 7.23274 21.4938 7.23086 21.8199C7.23028 21.9273 6.79473 22.3553 6.2631 22.771C3.09463 25.2481 0.911042 28.8074 0.263522 32.5504C-0.266704 35.6152 0.018739 39.5721 0.979941 42.482C2.13109 45.9669 4.38475 48.8487 7.66899 51.0357C7.68504 51.0464 7.56927 51.3723 7.41178 51.7599C6.69642 53.5202 6.06448 56.677 6.06015 58.5113C6.05827 59.3265 6.08897 59.4557 6.34571 59.7123L6.63326 60H21.973C37.0771 60 37.3172 59.9965 37.6072 59.7683C37.7693 59.6409 37.9288 59.396 37.9616 59.2242C38.0375 58.8268 37.168 54.513 36.4151 51.551C35.2905 47.1278 34.0661 43.4195 32.7437 40.4315C31.4456 37.4985 31.3422 37.2283 31.0008 35.8764C30.6302 34.4091 30.4115 32.1119 30.6425 32.1119C30.7139 32.1119 31.5261 32.2421 32.4472 32.4011C33.3682 32.5601 34.781 32.765 35.5866 32.8563C37.4782 33.0706 37.7151 32.9951 37.9849 32.0916C38.274 31.1234 38.7165 28.3848 38.9285 26.253C39.3644 21.8675 39.232 7.13141 38.7392 5.18463C38.1024 2.66943 36.1333 0.584261 33.9697 0.134536C33.0028 -0.0665395 20.7821 -0.0326754 20.2069 0.172619ZM25.8547 2.55401C25.4546 5.07249 24.3737 6.88194 22.8401 7.6007C22.2035 7.89915 22.0788 7.91485 20.3536 7.91485C18.6397 7.91485 16.2524 7.68237 16.2524 7.51551C16.2524 7.47368 16.5994 7.09813 17.0233 6.68109C18.0016 5.71884 19.0465 4.43341 19.852 3.20117C20.1985 2.67095 20.5718 2.18478 20.6815 2.1208C20.7962 2.05401 21.9568 2.00304 23.4121 2.00093L25.9431 1.99742L25.8547 2.55401ZM29.6837 2.26106C29.6445 2.40613 29.4536 3.32855 29.2594 4.31107C28.2071 9.63782 27.9743 15.5664 28.6158 20.7088C28.7108 21.4702 28.789 22.1121 28.7894 22.1352C28.7899 22.1584 28.6718 22.1485 28.5267 22.1132C27.8637 21.9519 25.6397 21.6842 23.9861 21.5666C21.1798 21.3668 20.65 21.237 17.7171 20.0318C16.8149 19.661 15.4175 19.1643 14.612 18.928C13.8064 18.6916 12.91 18.3614 12.6199 18.1942C11.7101 17.6695 10.8919 16.7957 10.4239 15.8489C10.0425 15.0771 9.98792 14.8545 9.94784 13.9067C9.86055 11.8395 10.5689 10.7972 12.7807 9.73824L14.0235 9.14333L15.4602 9.43077C18.1969 9.97845 21.3883 10.1395 22.6818 9.79519C25.4782 9.05088 27.2628 6.53978 27.9113 2.43683L27.9808 1.99742H28.8679C29.7309 1.99742 29.7532 2.00456 29.6837 2.26106ZM34.3586 2.37578C35.4843 2.95241 36.4599 4.28248 36.8112 5.71954C37.2375 7.46372 37.3363 22.1932 36.9473 26.0247C36.7493 27.9751 36.322 30.7216 36.1977 30.842C36.0276 31.0071 30.8308 30.1335 27.9701 29.4589C22.3302 28.1289 15.3177 25.4658 13.1713 23.8391C12.3456 23.2132 10.8652 22.4869 9.95417 22.2605C9.61588 22.1763 9.33899 22.0451 9.33899 21.9688C9.33899 21.7329 10.33 20.9026 10.8135 20.7333C11.0665 20.6447 11.7192 20.5737 12.2684 20.5751C13.4762 20.5782 14.1321 20.7681 17.3462 22.0459C20.0268 23.1116 21.1235 23.37 23.767 23.5586C27.6181 23.8332 30.1003 24.3835 31.5781 25.2901C31.9461 25.5158 32.3946 25.7772 32.5748 25.8709C33.2181 26.2055 33.9462 25.7468 33.9462 25.0072C33.9462 24.4275 33.444 23.9724 32.0314 23.2712C30.7666 22.6435 30.9006 22.9007 30.6139 20.5514C30.0346 15.8067 30.1577 10.7155 30.9676 5.92284C31.1729 4.7076 31.7139 2.22169 31.8058 2.07147C31.84 2.01546 32.2959 1.99331 32.8191 2.02214C33.5373 2.06175 33.9145 2.14846 34.3586 2.37578ZM9.40227 24.208C10.3813 24.4621 11.1544 24.8407 11.9983 25.4794C13.1134 26.3233 16.7877 28.0156 20.2973 29.3016C22.0873 29.9575 25.6193 31.0023 27.3971 31.4019L28.5232 31.6549L28.5925 33.2016C28.7021 35.6552 29.1295 37.2569 30.4586 40.1971C32.3844 44.4572 33.9377 49.3749 35.2332 55.3129C35.4934 56.5052 35.733 57.5993 35.7658 57.7443L35.8254 58.008H21.9293H8.03317L8.11074 57.3342C8.29717 55.7146 9.13218 52.427 9.43391 52.1247C9.47949 52.0791 10.0172 52.243 10.629 52.489C13.6654 53.7102 16.7152 54.2282 20.1722 54.1099C21.2066 54.0745 22.1952 53.9902 22.3693 53.9226C22.7576 53.7718 23.0903 53.1723 22.9827 52.8171C22.9397 52.6753 22.7965 52.4413 22.6646 52.297C22.4281 52.0386 22.3936 52.0358 20.3638 52.1085C17.4115 52.2143 15.1975 51.9216 12.6199 51.0845C7.13876 49.3047 3.5958 45.5125 2.44301 40.1918C1.76339 37.0546 1.92779 33.2634 2.8563 30.6621C3.55326 28.7093 4.79405 26.7971 6.24458 25.4402C7.82835 23.9586 8.07336 23.863 9.40227 24.208ZM8.26518 32.212C7.90018 32.3329 7.41999 32.544 7.19817 32.6811C6.56541 33.0722 5.71975 34.0478 5.37759 34.7814C5.10515 35.3658 5.06496 35.6013 5.06356 36.6232C5.06098 38.5496 5.62952 39.6945 7.50705 41.5446C8.86876 42.8864 12.4212 45.8572 12.7781 45.9526C13.2222 46.0714 13.5684 45.8451 15.6962 44.0451C18.4044 41.7541 19.8542 40.2374 20.4033 39.1208C21.928 36.0204 20.3404 32.6302 17.1029 32.0732C15.8797 31.8628 14.0892 32.4095 13.32 33.2282L13.0623 33.5027L12.4899 33.0501C11.3263 32.1304 9.56561 31.7811 8.26518 32.212ZM10.8765 34.4159C11.2422 34.6149 11.6555 34.9844 11.9584 35.3829C12.7064 36.3669 13.3407 36.3884 14.0009 35.4518C15.243 33.6896 17.4889 33.553 18.562 35.1747C18.856 35.6189 18.8889 35.77 18.8889 36.6732C18.8889 37.4957 18.8376 37.784 18.6058 38.2637C18.262 38.9752 16.4379 40.8279 14.4267 42.5083L13.0112 43.6911L11.6471 42.5454C9.3554 40.6206 8.40861 39.7217 7.85366 38.944C6.74786 37.3942 6.70661 35.9308 7.73824 34.8429C8.6084 33.9254 9.70189 33.7766 10.8765 34.4159Z" fill="#D45BA1"></path></svg>