<svg xmlns="http://www.w3.org/2000/svg" width="60" height="60" viewBox="0 0 60 60" fill="none"><path fill-rule="evenodd" clip-rule="evenodd" d="M14.7858 0.032789C12.9979 0.34513 12.5045 0.471754 11.5765 0.856367C7.03323 2.73959 4.20854 7.59428 4.86358 12.3936C5.2596 15.295 6.89002 18.1266 9.14083 19.8224L9.64185 20.1999L8.47439 20.8102C3.79742 23.2549 0.687636 27.8893 0.115233 33.2681C0.0226715 34.137 -0.0183522 39.5176 0.00771323 47.3375L0.0499214 60H1.60496H3.16L3.23405 46.1527L3.3081 32.3055L3.79771 30.8985C4.58856 28.6258 5.67339 26.9375 7.29478 25.4556C9.68554 23.2706 12.5492 22.1659 15.8225 22.1659C17.6199 22.1659 18.8324 22.3909 20.4911 23.0323C23.9316 24.3625 26.8243 27.4958 27.8734 31.0284L28.0901 31.758L27.047 32.0933C22.5028 33.5544 19.677 38.6481 20.8553 43.2547C21.3249 45.091 21.9618 46.2151 23.3342 47.6303C24.2124 48.5358 24.4963 48.9166 24.353 48.9968C23.035 49.7344 21.2533 51.5779 20.3593 53.1291C19.481 54.6529 18.857 57.3548 18.9605 59.1858L19.0066 60H20.5616H22.1167L22.2085 58.2969C22.3136 56.347 22.6041 55.4144 23.5441 54.0066C26.5814 49.4582 33.4985 49.4582 36.5359 54.0066C37.4759 55.4144 37.7663 56.347 37.8714 58.2969L37.9633 60H39.5183H41.0733L41.1194 59.1858C41.2229 57.3548 40.599 54.6529 39.7206 53.1291C38.8216 51.5692 37.0449 49.7344 35.7102 48.9875C35.5441 48.8945 35.7162 48.6544 36.4642 47.936C37.6983 46.7511 38.5055 45.5045 39.0091 44.0053C40.142 40.634 39.2674 36.983 36.7183 34.4427C35.4754 33.2039 34.4653 32.5653 32.9778 32.0776L31.991 31.754L32.2118 30.993C33.3183 27.1783 36.5618 23.9446 40.555 22.6749C42.0674 22.194 44.7912 22.0169 46.3905 22.2955C49.7068 22.8729 52.8309 24.9143 54.7574 27.7626C55.4598 28.8009 55.9009 29.7311 56.4231 31.2752L56.7714 32.3055L56.8457 46.1527L56.9199 60H58.475H60.03L60.0722 47.3375C60.1159 34.2277 60.0693 32.845 59.5089 30.6764C59.1222 29.1802 57.8259 26.5293 56.8588 25.257C55.4539 23.4086 53.4251 21.7142 51.3616 20.6656L50.4302 20.1923L50.8612 19.8938C51.6319 19.3599 53.0975 17.7579 53.6551 16.8401C56.6856 11.8514 55.3926 5.439 50.677 2.07196C49.5508 1.26779 48.1196 0.608746 46.8092 0.290777C45.5014 -0.0264511 43.0136 -0.0264511 41.7057 0.290777C36.2484 1.61478 32.5535 6.93406 33.2986 12.3936C33.6942 15.291 35.3262 18.1283 37.5684 19.8166L38.0623 20.1885L37.2722 20.578C34.5742 21.9082 31.8197 24.5235 30.5426 26.9674C30.0743 27.8638 29.9612 27.9438 29.8147 27.4823C29.582 26.7493 27.89 24.4979 26.7565 23.4132C25.4328 22.1465 24.4475 21.4384 22.9493 20.677L22.0057 20.1977L22.5056 19.8212C25.5154 17.5539 27.2756 13.4418 26.7919 9.80732C26.5158 7.73231 25.9401 6.24362 24.7829 4.61097C23.2947 2.51137 20.8937 0.884802 18.4483 0.319212C17.4539 0.0893625 15.3874 -0.0723613 14.7858 0.032789ZM17.8156 3.43077C19.8149 3.95149 21.7966 5.50371 22.7415 7.2889C24.3916 10.4064 23.8448 14.1383 21.3762 16.607C18.2962 19.6869 13.3488 19.6869 10.2688 16.607C7.80009 14.1383 7.25331 10.4064 8.90343 7.2889C9.83171 5.53511 11.8183 3.96186 13.7657 3.43818C14.8249 3.15323 16.7368 3.14983 17.8156 3.43077ZM46.2506 3.43077C48.2499 3.95149 50.2316 5.50371 51.1765 7.2889C53.9738 12.5738 50.2183 18.9025 44.2847 18.9025C40.6841 18.9025 37.5317 16.4894 36.635 13.0464C36.1547 11.2024 36.4211 9.0221 37.3384 7.2889C38.2667 5.53511 40.2533 3.96186 42.2007 3.43818C43.2599 3.15323 45.1718 3.14983 46.2506 3.43077ZM31.5684 34.9705C32.8165 35.2956 33.5542 35.7217 34.4862 36.6559C36.3793 38.5533 36.862 41.2807 35.7412 43.7466C35.3283 44.6549 34.1157 45.9929 33.2428 46.5034C31.2465 47.6711 28.4307 47.5881 26.5685 46.3069C23.233 44.0121 22.7754 39.4807 25.5937 36.6559C27.2369 35.0089 29.3872 34.4024 31.5684 34.9705Z" fill="#D45BA1"></path></svg>