<svg xmlns="http://www.w3.org/2000/svg" width="60" height="60" viewBox="0 0 60 60" fill="none"><path fill-rule="evenodd" clip-rule="evenodd" d="M37.0907 0.115355C34.6569 0.803834 33.4405 3.66978 34.606 5.9696L34.907 6.56376L28.5897 12.9098C4.35597 37.254 2.78099 38.8545 2.16923 39.7581C1.34937 40.9689 0.683765 42.4154 0.305917 43.8077C0.0234399 44.8485 -0.00283704 45.1326 0.00021296 47.1164C0.00291104 48.9695 0.0403322 49.4208 0.256178 50.2051C1.2811 53.9294 3.70549 56.9677 6.96571 58.6135C11.086 60.6935 15.9902 60.4183 19.8881 57.8883C20.8829 57.2427 22.47 55.6853 37.0972 41.0008L53.2106 24.8247L53.5886 25.0584C54.1981 25.435 55.371 25.6864 56.1123 25.5993C57.4761 25.439 58.7765 24.5291 59.3706 23.3196C59.6565 22.7374 59.6955 22.5236 59.6955 21.5434C59.6955 19.5546 60.3412 20.3223 49.8652 9.8567C39.6702 -0.328184 40.1719 0.106557 38.5035 0.00954386C37.9864 -0.0204869 37.4212 0.0218612 37.0907 0.115355ZM38.8364 2.42761C39.2095 2.56615 56.9768 20.2512 57.2396 20.7457C57.4979 21.2314 57.4529 22.0285 57.1413 22.4911C56.7876 23.0158 55.9621 23.3648 55.3402 23.2523C54.9312 23.1784 53.9781 22.2633 45.7747 14.0678C36.0445 4.347 36.3383 4.67569 36.5377 3.72702C36.7593 2.6736 37.8454 2.0595 38.8364 2.42761ZM44.0272 15.7289L51.4678 23.1702L49.2262 25.4948C47.9933 26.7733 46.458 28.3411 45.8145 28.9787L44.6445 30.1381L43.3748 29.0601C40.8533 26.9191 38.9426 25.804 35.1196 24.2419C32.3968 23.1294 31.1029 22.4871 29.6761 21.5395C28.3862 20.6829 26.1718 18.8767 26.2279 18.727C26.2809 18.5855 36.4248 8.2876 36.5113 8.2876C36.5527 8.2876 39.9349 11.6361 44.0272 15.7289ZM26.4617 22.1032C28.5985 23.8307 30.4904 24.8889 33.9465 26.2895C36.5242 27.3343 38.0419 28.0866 39.3893 28.9874C40.8497 29.9637 42.8619 31.608 42.8619 31.8249C42.8619 31.9684 20.0371 54.8206 19.2915 55.4237C18.3535 56.1823 16.735 56.9933 15.4705 57.3383C14.1296 57.704 11.5397 57.7051 10.1917 57.3403C6.19488 56.2587 3.25996 53.1458 2.44502 49.1243C2.20008 47.9155 2.26085 45.5709 2.56691 44.4184C2.84328 43.3775 3.56355 41.8581 4.22646 40.9174C4.55867 40.4461 8.68403 36.2194 14.6351 30.253L24.4934 20.3693L24.9675 20.8239C25.2283 21.0739 25.9007 21.6495 26.4617 22.1032ZM17.7608 31.9297C15.5522 32.5492 14.0043 34.7795 14.2986 36.9189L14.376 37.4823L13.8675 37.7409C13.022 38.1708 11.6422 39.6537 11.1473 40.6645C10.6774 41.624 10.3729 42.8468 10.3696 43.7858L10.3676 44.385L9.32969 44.5269C7.6021 44.763 6.58751 45.4283 6.00684 46.7059C5.64905 47.4932 5.63908 48.7129 5.9842 49.4686C6.57062 50.7525 7.81279 51.5739 9.1684 51.574C10.3059 51.5741 16.2125 51.116 16.9369 50.9715C19.8712 50.3859 22.4197 48.3913 23.292 45.9974C23.4742 45.4976 23.5616 44.9356 23.5985 44.0267C23.656 42.6075 23.4896 41.694 22.917 40.2869L22.5863 39.4743L22.8651 39.0635C23.4396 38.2169 23.6496 37.4146 23.6005 36.2535C23.5416 34.8592 23.1203 33.9457 22.1004 33.0015C20.9456 31.9324 19.247 31.5129 17.7608 31.9297ZM19.8423 34.2769C20.7348 34.6497 21.2772 35.4633 21.2772 36.4291C21.2772 37.2011 21.1604 37.4741 20.5224 38.1924C19.8547 38.9443 19.8317 39.304 20.381 40.4035C21.4421 42.5271 21.5974 44.3455 20.8369 45.7426C20.1719 46.9645 18.4998 48.1675 16.8989 48.5761C16.0651 48.7888 9.2647 49.3025 8.80967 49.1872C8.35604 49.0721 7.99321 48.4616 8.07086 47.9439C8.18653 47.1725 8.49998 47.007 10.3208 46.7558C12.2259 46.4932 12.5445 46.3842 12.7885 45.9123C12.9432 45.613 12.9488 45.4523 12.8262 44.8027C12.4238 42.6704 13.5173 40.4521 15.3848 39.6126C16.5596 39.0845 16.7634 38.9528 16.9241 38.617C17.0597 38.3337 17.0639 38.184 16.9473 37.7959C16.5848 36.589 16.5582 36.3875 16.6944 35.8827C17.0568 34.5402 18.5949 33.7556 19.8423 34.2769Z" fill="#D45BA1"></path></svg>